<svg xmlns="http://www.w3.org/2000/svg" width="500" height="500" viewBox="0 0 500 500" version="1.1"><path d="M 94.465 9.622 C 94.069 14.914, 93.946 29.089, 94.192 41.122 L 94.640 63 47.320 63 C 5.924 63, 0 63.188, 0 64.500 C 0 65.812, 5.973 66, 47.750 66.002 L 95.500 66.003 97.760 78.752 C 99.308 87.487, 102.371 98.405, 107.491 113.435 C 111.601 125.500, 114.785 135.549, 114.567 135.766 C 114.350 135.984, 98.873 135.450, 80.175 134.581 C 61.477 133.711, 41.076 132.998, 34.839 132.995 C 28.603 132.992, 19.104 132.699, 13.731 132.343 C 2.261 131.583, 3.417 133.292, 1.483 114.233 L 0.190 101.500 0.250 118 C 0.282 127.075, 0.669 135.400, 1.109 136.500 C 2.166 139.138, 4.760 167.773, 5.584 185.881 L 6.238 200.262 3.119 199.804 C -1.081 199.188, -1.060 201.608, 3.143 202.531 L 6.286 203.222 5.637 218.361 C 4.897 235.586, 2.001 265.999, 1.100 266.003 C 0.770 266.004, 0.434 271.966, 0.354 279.253 C 0.198 293.393, 0.051 293.677, 2.801 274.502 L 3.518 269.505 18.009 269.818 C 25.979 269.990, 42.175 270.546, 54 271.052 C 65.825 271.559, 81.800 271.983, 89.500 271.996 C 104.228 272.019, 114 272.808, 114 273.974 C 114 274.356, 111.517 278.681, 108.482 283.584 C 100.440 296.578, 95.078 307.296, 91.517 317.500 L 88.376 326.500 82.438 326.701 C 79.172 326.812, 61.200 327.397, 42.500 328.002 C 4.702 329.224, 0 329.590, -0.001 331.311 C -0.002 332.214, 4.632 332.323, 19.249 331.766 C 61.533 330.153, 87.515 329.302, 87.792 329.520 C 87.952 329.647, 87.618 332.619, 87.049 336.125 C 85.110 348.081, 86.131 370.676, 89.512 390.616 L 90.040 393.732 71.270 394.393 C 60.947 394.756, 41.776 395.530, 28.669 396.112 C 15.562 396.695, 4.574 396.907, 4.251 396.584 C 3.929 396.262, 2.872 392.061, 1.903 387.249 L 0.140 378.500 0.434 389.500 C 0.719 400.194, 2.398 409.174, 8.844 434.500 C 11.101 443.367, 15 462.436, 15 464.608 C 15 465.674, 13.241 466, 7.500 466 C 1.500 466, 0 466.300, 0 467.500 C 0 468.706, 1.543 469, 7.883 469 C 17.278 469, 16.655 467.836, 17.649 487.250 C 18.180 497.622, 18.582 500, 19.801 500 C 21.088 500, 21.213 498.130, 20.685 486.750 C 20.347 479.462, 19.795 472.558, 19.460 471.408 C 18.871 469.389, 19.280 469.292, 31.082 468.658 C 37.809 468.296, 55.776 468, 71.007 468 L 98.701 468 99.350 477.154 C 99.708 482.188, 100 489.388, 100 493.154 C 100 498.823, 100.281 500, 101.634 500 C 103.106 500, 103.197 498.537, 102.543 485.343 C 102.144 477.282, 101.613 470.155, 101.364 469.506 C 101.024 468.621, 109.253 468.152, 134.205 467.636 C 152.517 467.257, 174.448 466.519, 182.940 465.997 C 191.433 465.475, 198.538 465.205, 198.731 465.398 C 198.924 465.591, 199.359 473.455, 199.697 482.874 C 200.069 493.231, 200.708 500, 201.314 500 C 201.968 500, 202.097 493.963, 201.685 482.583 L 201.055 465.166 204.778 464.633 C 206.825 464.339, 211.425 463.862, 215 463.573 C 218.575 463.283, 231.625 462.123, 244 460.995 C 294.279 456.411, 312.502 455.131, 313.497 456.112 C 314.098 456.704, 314.495 465.612, 314.497 478.543 C 314.500 497.641, 314.677 499.993, 316.119 499.996 C 317.214 499.999, 317.939 498.787, 318.358 496.250 C 319.181 491.271, 319.018 467.999, 318.110 460.720 C 317.445 455.398, 317.551 454.907, 319.444 454.514 C 325.496 453.258, 353.725 452.009, 374.646 452.071 C 402.732 452.155, 413.735 452.953, 415 454.999 C 416.565 457.533, 417.502 469.080, 417.425 484.894 C 417.376 494.871, 417.660 499.447, 418.234 497.897 C 419.373 494.817, 419.334 466.107, 418.181 459.250 C 417.696 456.363, 417.569 454.004, 417.899 454.008 C 418.622 454.018, 437.534 456.514, 448 457.981 C 452.125 458.559, 462.925 460.346, 472 461.951 C 481.075 463.556, 490.525 465.179, 493 465.557 C 498.154 466.345, 498.918 467.151, 499.102 472 C 499.220 475.091, 499.332 474.923, 500.061 470.564 C 500.516 467.848, 500.650 465.243, 500.360 464.774 C 500.070 464.304, 498.962 460.226, 497.897 455.710 C 496.832 451.195, 493.461 439.400, 490.406 429.500 C 487.352 419.600, 484.619 410.678, 484.334 409.673 C 483.852 407.972, 484.373 407.895, 491.908 408.552 C 497.293 409.022, 500 408.911, 500 408.219 C 500 407.637, 496.274 406.869, 491.537 406.475 L 483.075 405.770 481.555 400.540 C 478.104 388.669, 476.872 380.749, 476.319 366.862 C 475.998 358.811, 476.047 350.563, 476.428 348.532 L 477.121 344.841 484.810 345.469 C 489.040 345.814, 494.188 346.340, 496.250 346.636 C 499.155 347.054, 500 346.838, 500 345.678 C 500 344.510, 498.068 344.036, 491.250 343.531 C 486.438 343.174, 481.223 342.639, 479.663 342.343 L 476.826 341.803 477.495 335.651 C 478.861 323.094, 481.111 308.993, 484.660 290.750 L 488.308 272 494.154 272 C 501.447 272, 501.752 270.512, 494.695 269.364 L 489.390 268.500 492.139 253.500 C 495.191 236.845, 496.611 225.585, 497.602 210.194 C 498.125 202.073, 498.556 199.999, 499.633 200.413 C 500.415 200.713, 501 200.295, 501 199.437 C 501 198.612, 500.396 197.705, 499.657 197.422 C 498.624 197.025, 498.160 192.136, 497.647 176.226 C 497.280 164.851, 496.692 151.147, 496.340 145.772 C 495.721 136.332, 495.770 136, 497.782 136 C 499.797 136, 501.857 132.524, 500.591 131.258 C 500.266 130.933, 500 131.192, 500 131.833 C 500 132.475, 498.875 133, 497.500 133 C 495.343 133, 495.002 132.553, 495.013 129.750 C 495.020 127.963, 494.501 114.644, 493.860 100.154 C 492.600 71.700, 492.551 72.051, 497.750 72.015 C 499.146 72.006, 500 71.388, 500 70.389 C 500 69.075, 499.323 68.904, 496.339 69.464 L 492.677 70.151 493.351 44.826 C 493.722 30.897, 494.307 17.137, 494.652 14.250 C 495.210 9.576, 495.538 9, 497.639 9 C 499.071 9, 500 8.410, 500 7.500 C 500 6.567, 499.056 6, 497.500 6 C 495.389 6, 495 5.533, 495 3 C 495 -0.760, 493.244 -0.962, 492.816 2.749 C 492.525 5.280, 492.065 5.550, 487 6.157 C 479.110 7.102, 427.063 10.361, 399.342 11.646 L 385.185 12.302 386.468 6.151 C 387.657 0.457, 387.621 -0, 385.989 -0 C 384.615 -0, 383.960 1.410, 383.020 6.394 L 381.813 12.788 362.329 13.519 C 344.312 14.195, 301.153 12.886, 290.195 11.332 L 285.891 10.722 286.561 5.361 C 287.448 -1.744, 285.513 -1.790, 284.041 5.301 L 282.941 10.601 272.720 9.337 C 267.099 8.642, 249.900 6.430, 234.500 4.421 C 210.320 1.266, 203.226 0.728, 182.500 0.472 L 158.500 0.177 174.492 1.131 C 183.288 1.655, 190.852 2.452, 191.302 2.902 C 191.752 3.352, 191.630 12.895, 191.030 24.110 C 190.329 37.244, 190.265 48.415, 190.851 55.500 C 191.351 61.550, 191.635 66.642, 191.481 66.816 C 191.327 66.990, 184.769 66.424, 176.907 65.559 C 168.982 64.687, 148.037 63.695, 129.898 63.333 L 97.183 62.680 96.465 50.225 C 96.049 43.015, 96.221 30.967, 96.873 21.615 C 98.318 0.898, 98.307 0, 96.593 -0 C 95.532 -0, 95.010 2.361, 94.465 9.622 M 194.676 9.216 C 192.724 29.415, 193.071 65.405, 195.239 67.573 C 195.502 67.836, 199.719 68.730, 204.609 69.560 C 216.042 71.500, 235.176 75.244, 256 79.615 C 265.075 81.520, 273.400 83.265, 274.500 83.493 C 276.429 83.893, 276.503 83.354, 276.598 68.204 C 276.687 54.010, 277.403 46.779, 281.632 17.403 L 282.222 13.307 272.861 12.201 C 267.712 11.593, 250.900 9.539, 235.500 7.637 C 220.100 5.735, 204.751 3.899, 201.392 3.556 L 195.283 2.933 194.676 9.216 M 473.500 10.072 C 458.135 11.158, 432.365 12.749, 406.644 14.197 L 384.788 15.428 383.835 17.933 C 380.597 26.449, 375.670 76.566, 377.395 83.438 L 378.087 86.194 385.293 85.502 C 394.460 84.621, 441.114 78.079, 468.599 73.820 L 489.699 70.551 490.366 47.526 C 490.733 34.862, 491.316 21.013, 491.661 16.750 L 492.288 9 488.394 9.147 C 486.252 9.228, 479.550 9.644, 473.500 10.072 M 284.989 14.121 C 284.983 14.330, 283.831 22.150, 282.429 31.500 C 279.281 52.486, 277.973 81.934, 280.112 83.621 C 281.612 84.804, 290.411 86.272, 306.995 88.107 C 317.906 89.314, 361.254 88.725, 370 87.250 L 374.500 86.492 374.177 80.496 C 373.652 70.743, 376.998 38.921, 380.609 19.326 L 381.194 16.153 352.847 16.721 C 327.119 17.236, 306.824 16.469, 289.750 14.336 C 287.137 14.009, 284.995 13.913, 284.989 14.121 M 98 67.792 C 98 73.414, 102.632 92.722, 107.130 105.851 C 109.890 113.908, 113.304 123.875, 114.716 128 C 116.128 132.125, 117.459 135.701, 117.673 135.948 C 118.047 136.378, 213.225 137.926, 213.763 137.510 C 213.908 137.399, 212.397 133.751, 210.406 129.404 C 201.418 109.782, 196.218 94.212, 193.636 79.187 C 192.850 74.615, 192.048 70.716, 191.854 70.524 C 190.314 69, 158.624 66.804, 130.750 66.290 L 98 65.686 98 67.792 M 195.445 73.250 C 195.710 74.487, 196.650 79.221, 197.533 83.768 C 199.604 94.428, 203.444 105.703, 211.055 123.470 L 217.173 137.752 221.726 138.376 C 224.230 138.719, 229.692 139, 233.863 139 C 238.034 139, 248.659 139.438, 257.473 139.974 C 266.288 140.510, 277.369 141.101, 282.097 141.287 L 290.693 141.625 285.391 126.038 C 280.470 111.572, 277 96.632, 277 89.914 C 277 87.439, 276.537 87.007, 273.250 86.409 C 271.188 86.035, 258.250 83.306, 244.500 80.345 C 222.589 75.627, 198.502 71, 195.851 71 C 195.362 71, 195.179 72.013, 195.445 73.250 M 484 74.141 C 476.579 75.183, 469.757 76.262, 441 80.946 C 427.525 83.141, 407.950 85.894, 397.500 87.065 C 387.050 88.235, 378.310 89.376, 378.077 89.602 C 376.557 91.077, 385.228 134.757, 388.124 140.217 C 388.910 141.698, 390.170 141.862, 397.268 141.406 C 405.085 140.904, 449.422 137.371, 479.373 134.864 L 493.246 133.703 492.627 127.601 C 492.287 124.246, 491.553 110.734, 490.997 97.576 C 490.441 84.418, 489.877 73.589, 489.743 73.511 C 489.609 73.433, 487.025 73.717, 484 74.141 M 280.526 92.750 C 281.783 101.953, 285.057 114.645, 289.644 128.099 L 294.280 141.699 319.715 142.399 C 333.703 142.785, 354.137 142.784, 365.123 142.397 C 382.837 141.774, 385.027 141.514, 384.478 140.097 C 382.586 135.212, 377.765 112.855, 376.371 102.500 C 375.483 95.900, 374.641 90.368, 374.501 90.206 C 374.360 90.044, 364.935 90.652, 353.555 91.556 C 331.201 93.331, 310.593 92.654, 291.500 89.515 C 278.997 87.459, 279.772 87.230, 280.526 92.750 M 4.434 137.250 C 5.721 143.377, 7.277 162.486, 7.892 179.705 C 8.269 190.268, 8.868 199.201, 9.223 199.556 C 9.578 199.911, 21.036 201.034, 34.684 202.050 C 48.333 203.067, 71.200 204.795, 85.500 205.890 C 99.800 206.986, 116.787 208.187, 123.250 208.561 L 135 209.240 135 205.796 C 135 199.694, 131.877 183.800, 128.444 172.430 C 124.065 157.923, 117.100 139.969, 115.649 139.445 C 113.761 138.764, 29.640 135, 16.300 135 C 4.032 135, 3.965 135.013, 4.434 137.250 M 487 136.695 C 484.525 136.875, 475.464 137.692, 466.864 138.512 C 434.208 141.624, 404.239 143.990, 397.417 143.995 C 393.521 143.998, 390.105 144.229, 389.825 144.508 C 389.546 144.788, 390.383 148.950, 391.686 153.758 C 394.909 165.656, 398 183.935, 398 191.099 L 398 197 447.103 197 L 496.206 197 495.475 176.996 C 494.388 147.228, 493.613 136.677, 492.500 136.514 C 491.950 136.434, 489.475 136.515, 487 136.695 M 119 140.138 C 119 140.599, 120.526 144.694, 122.392 149.238 C 130.506 169.001, 136.988 193.573, 136.997 204.603 L 137 208.707 144.750 209.365 C 168.093 211.350, 232.387 210.947, 234.531 208.803 C 235.335 207.998, 233.006 191.766, 230.899 183.500 C 228.780 175.184, 220.093 151.204, 216.897 144.851 L 215.062 141.201 203.781 140.621 C 184.495 139.628, 119 139.255, 119 140.138 M 219.295 142.225 C 231.758 172.335, 235.586 184.760, 236.645 198.543 C 236.996 203.106, 237.574 207.310, 237.930 207.886 C 238.626 209.012, 253.503 207.487, 275.500 204.036 C 282.100 203.001, 290.425 201.861, 294 201.505 C 305.042 200.403, 304.347 201.257, 303.534 189.795 C 302.539 175.761, 296.678 152.736, 292.463 146.303 C 291.079 144.190, 290.233 144, 282.227 143.998 C 277.427 143.997, 266.300 143.572, 257.500 143.054 C 221.600 140.937, 218.736 140.875, 219.295 142.225 M 296.525 146.825 C 301.531 159.142, 305.704 176.043, 306.899 188.849 C 307.430 194.541, 308.007 199.295, 308.182 199.415 C 308.357 199.534, 312.100 199.291, 316.500 198.876 C 320.900 198.460, 340.488 197.802, 360.028 197.413 L 395.556 196.707 394.826 188.373 C 393.746 176.061, 390.511 159.707, 386.905 148.336 L 385.902 145.172 340.873 145.161 C 299.153 145.152, 295.894 145.274, 296.525 146.825 M 324 201.216 C 316.025 201.722, 309.211 202.443, 308.859 202.818 C 308.506 203.193, 307.713 212.500, 307.096 223.500 C 306.479 234.500, 305.316 248.424, 304.511 254.441 C 303.707 260.459, 303.216 265.550, 303.421 265.755 C 303.626 265.959, 324.248 265.805, 349.247 265.411 L 394.701 264.696 395.350 249.689 C 395.708 241.435, 396 226.879, 396 217.341 L 396 200 367.250 200.148 C 351.438 200.230, 331.975 200.710, 324 201.216 M 398.997 212.750 C 398.996 219.762, 398.701 234.560, 398.342 245.634 L 397.690 265.767 420.595 266.407 C 433.193 266.759, 453.151 267.483, 464.946 268.015 C 479.565 268.675, 486.595 268.656, 487.028 267.955 C 489.007 264.752, 494.651 227.677, 495.584 211.750 L 496.272 200 447.636 200 L 399 200 398.997 212.750 M 8.652 208.217 C 8.303 211.122, 8.009 217.550, 7.998 222.500 C 7.980 230.809, 6.036 252.718, 4.426 262.750 L 3.744 267 15.411 267 C 21.827 267, 37.972 267.425, 51.289 267.945 C 64.605 268.464, 84.781 269.157, 96.125 269.485 L 116.751 270.081 118.656 266.291 C 119.704 264.206, 122.655 258.675, 125.214 254 C 131.568 242.391, 134.750 232.362, 135.584 221.315 L 136.275 212.164 131.887 211.591 C 129.474 211.276, 118.950 210.561, 108.500 210.002 C 77.642 208.350, 34.743 205.355, 14.893 203.467 L 9.287 202.933 8.652 208.217 M 294.500 204.124 C 290.650 204.604, 281.875 205.872, 275 206.944 C 268.125 208.016, 258 209.379, 252.500 209.974 C 237.033 211.646, 238.394 210.708, 237.608 220.233 C 236.460 234.158, 233.920 241.639, 224.696 258.277 C 221.409 264.204, 218.916 269.249, 219.155 269.488 C 219.393 269.726, 229.244 269.498, 241.044 268.980 C 252.845 268.461, 270.754 267.731, 280.843 267.357 C 292.625 266.921, 299.310 266.288, 299.531 265.589 C 300.316 263.108, 303.046 231.443, 303.655 217.750 C 304.204 205.405, 304.081 203.021, 302.905 203.126 C 302.132 203.196, 298.350 203.645, 294.500 204.124 M 137.983 218.661 C 137.956 229.340, 135.560 238.427, 129.587 250.500 C 126.595 256.550, 123.005 263.341, 121.611 265.590 L 119.077 269.681 145.143 270.333 C 159.479 270.691, 181.269 270.692, 193.565 270.334 L 215.922 269.683 221.896 259.092 C 232.047 241.096, 234.948 232.133, 234.983 218.670 L 235 211.840 224.750 212.633 C 212.191 213.604, 177.329 213.572, 154.750 212.567 L 138 211.822 137.983 218.661 M 310.034 268.930 L 302.568 269.500 300.873 281.500 C 299.020 294.614, 296.339 328.672, 297.099 329.432 C 297.360 329.693, 318.076 330.365, 343.136 330.927 C 368.195 331.488, 389.441 332.232, 390.349 332.580 C 391.740 333.114, 392 332.470, 392 328.485 C 392 323.093, 393.784 282.430, 394.401 273.750 L 394.810 268 356.155 268.180 C 334.895 268.279, 314.140 268.617, 310.034 268.930 M 397.647 273.750 C 396.912 280.418, 394.780 332.114, 395.222 332.555 C 395.385 332.718, 402.264 333.563, 410.509 334.433 C 418.754 335.303, 436.300 337.305, 449.500 338.881 C 462.700 340.457, 473.587 341.680, 473.692 341.598 C 473.798 341.516, 474.584 335.775, 475.439 328.841 C 476.293 321.907, 479.012 306.424, 481.480 294.434 C 483.947 282.443, 485.781 272.447, 485.554 272.220 C 485.107 271.774, 413.124 268.081, 403.890 268.031 L 398.280 268 397.647 273.750 M 294 269.600 C 292.075 269.745, 277.900 270.355, 262.500 270.955 C 247.100 271.555, 230.393 272.298, 225.373 272.607 L 216.245 273.168 208.201 287.834 C 203.777 295.900, 199.043 305.200, 197.682 308.500 C 195.277 314.329, 192 324.527, 192 326.182 C 192 326.632, 197.813 327, 204.918 327 C 212.023 327, 227.886 327.425, 240.168 327.945 C 252.451 328.465, 269.319 329.160, 277.653 329.491 L 292.807 330.091 293.437 320.296 C 294.007 311.446, 297.237 282.157, 298.680 272.750 C 298.997 270.688, 298.861 269.076, 298.378 269.168 C 297.895 269.261, 295.925 269.455, 294 269.600 M 109.116 287.478 C 100.717 302.093, 96.368 311.446, 93.645 320.750 L 92.108 326 140.936 326 L 189.764 326 192.480 317.289 C 195.068 308.990, 202.876 292.558, 210.475 279.419 L 213.992 273.338 165.661 273.260 L 117.330 273.182 109.116 287.478 M 91.655 329.750 C 88.727 334.497, 88.279 362.075, 90.826 380.824 L 92.500 393.148 141.452 393.038 C 168.376 392.978, 190.506 392.827, 190.630 392.703 C 190.754 392.579, 189.951 386.183, 188.846 378.489 C 187.249 367.373, 186.947 361.419, 187.376 349.500 C 187.673 341.250, 188.212 333.262, 188.575 331.750 L 189.233 329 140.676 329 C 113.969 329, 91.910 329.337, 91.655 329.750 M 190.536 331.289 C 190.164 332.505, 189.608 340.045, 189.301 348.043 C 188.797 361.136, 190.226 379.885, 192.556 390.750 L 193.038 393 246.127 393 L 299.217 393 298.519 390.250 C 295.497 378.332, 293.029 356.425, 293.010 341.340 L 293 333.180 284.750 332.619 C 280.212 332.311, 260.750 331.586, 241.500 331.009 C 222.250 330.431, 203.060 329.761, 198.856 329.519 C 191.655 329.104, 191.173 329.207, 190.536 331.289 M 297.020 345.733 C 297.041 359.597, 297.865 367.033, 301.110 382.652 L 303.220 392.805 350.360 393.190 C 376.287 393.401, 397.610 393.523, 397.743 393.460 C 397.877 393.398, 397.085 389.212, 395.982 384.159 C 393.789 374.112, 392.041 356.125, 392.016 343.356 L 392 335.213 375.750 334.634 C 366.813 334.316, 345.438 333.811, 328.250 333.511 L 297 332.966 297.020 345.733 M 395.001 345.121 C 395.002 357.853, 396.680 374.611, 399.032 385.390 C 400.103 390.298, 401.097 394.420, 401.240 394.551 C 401.383 394.682, 408.250 395.522, 416.500 396.418 C 424.750 397.314, 436.900 398.930, 443.500 400.008 C 458.328 402.431, 479.144 405.200, 479.504 404.798 C 479.651 404.634, 478.715 400.337, 477.423 395.250 C 473.981 381.693, 472.712 370.167, 473.189 356.796 C 473.593 345.466, 473.520 344.922, 471.556 344.522 C 468.757 343.951, 411.284 337.214, 402.250 336.397 L 395 335.742 395.001 345.121 M 93.033 397.250 C 93.067 398.556, 94.507 409.553, 97.845 434 C 98.934 441.975, 100.137 452.212, 100.517 456.750 L 101.208 465 118.354 464.987 C 137.411 464.972, 183.323 463.377, 192.250 462.420 L 198 461.804 198.018 458.152 C 198.036 454.701, 192.327 403.056, 191.397 398.250 L 190.962 396 141.981 396 C 103.446 396, 93.007 396.267, 93.033 397.250 M 193.599 399.750 C 193.824 401.813, 195.138 412.632, 196.518 423.794 C 197.899 434.956, 199.316 448.151, 199.669 453.116 L 200.310 462.145 204.905 461.596 C 207.432 461.294, 212.425 460.802, 216 460.502 C 219.575 460.203, 236.061 458.620, 252.635 456.985 C 269.209 455.350, 289.443 453.539, 297.598 452.960 C 305.754 452.380, 312.543 451.790, 312.685 451.649 C 313.215 451.118, 306.983 422.194, 304.681 414.500 C 303.365 410.100, 301.728 404.137, 301.044 401.250 L 299.801 396 246.495 396 L 193.190 396 193.599 399.750 M 304.334 397.658 C 306.751 406.097, 310.470 421.207, 313.524 435 C 315.534 444.075, 317.251 451.534, 317.339 451.575 C 317.428 451.616, 320.875 451.302, 325 450.878 C 338.264 449.514, 390.032 448.782, 402 449.790 C 408.325 450.323, 413.689 450.587, 413.920 450.376 C 415.292 449.126, 401.435 400.036, 399.031 397.630 C 398.233 396.832, 384.081 396.399, 350.854 396.158 C 305.537 395.828, 303.826 395.883, 304.334 397.658 M 46 398.105 C 34.725 398.546, 20.843 399.199, 15.152 399.557 L 4.804 400.206 5.463 404.604 C 5.826 407.024, 8.058 416.990, 10.424 426.751 C 12.789 436.513, 15.538 449, 16.531 454.500 C 17.525 460, 18.656 464.872, 19.045 465.326 C 19.433 465.780, 37.419 465.824, 59.013 465.423 L 98.274 464.695 97.627 455.493 C 96.945 445.789, 91.311 400.386, 90.523 398.250 C 90 396.828, 79.505 396.794, 46 398.105 M 402.199 399.088 C 405.291 407.221, 412.597 431.382, 414.472 439.679 C 415.778 445.454, 417.005 450.339, 417.200 450.534 C 417.395 450.729, 421.593 451.369, 426.528 451.956 C 431.462 452.543, 449.147 455.309, 465.826 458.103 C 482.505 460.897, 496.423 462.910, 496.755 462.578 C 497.088 462.246, 496.548 458.492, 495.557 454.237 C 493.598 445.828, 481.126 407, 480.383 407 C 480.133 407, 466.331 405.192, 449.714 402.983 C 412.116 397.984, 401.446 397.110, 402.199 399.088" stroke="none" fill="#e1e1e1" fill-rule="evenodd"/><path d="M 0 31.500 L 0 63 47.250 63 L 94.500 63 94.500 31.500 L 94.500 -0 47.250 -0 L 0 0 0 31.500 M 98 2.730 C 98 4.232, 97.493 12.730, 96.873 21.615 C 96.221 30.967, 96.049 43.015, 96.465 50.225 L 97.183 62.680 129.898 63.333 C 148.037 63.695, 168.982 64.687, 176.907 65.559 C 184.769 66.424, 191.327 66.990, 191.481 66.816 C 191.635 66.642, 191.351 61.550, 190.851 55.500 C 190.265 48.415, 190.329 37.244, 191.030 24.110 C 191.630 12.895, 191.755 3.369, 191.310 2.939 C 189.958 1.637, 152.803 0, 124.586 0 L 98 0 98 2.730 M 203 0.705 C 204.925 0.916, 219.325 2.689, 235 4.644 C 250.675 6.600, 267.870 8.738, 273.211 9.396 L 282.922 10.593 283.961 5.747 C 284.532 3.082, 285 0.699, 285 0.451 C 285 0.203, 265.762 0.072, 242.250 0.160 C 218.738 0.248, 201.075 0.493, 203 0.705 M 286.579 5.117 C 286.206 7.931, 286.056 10.389, 286.245 10.579 C 286.937 11.270, 308.944 12.886, 326.667 13.546 C 336.658 13.919, 353.144 13.895, 363.302 13.494 L 381.771 12.766 382.885 7.216 C 383.498 4.164, 384 1.291, 384 0.833 C 384 0.375, 362.233 0, 335.629 0 L 287.258 0 286.579 5.117 M 387.534 1.250 C 387.312 1.938, 386.691 4.706, 386.154 7.401 L 385.178 12.303 399.339 11.646 C 427.063 10.361, 479.109 7.102, 487 6.157 C 492.065 5.550, 492.525 5.280, 492.816 2.749 L 493.133 0 440.535 0 C 399.339 0, 387.850 0.271, 387.534 1.250 M 495 3 C 495 5.533, 495.389 6, 497.500 6 C 499.611 6, 500 5.533, 500 3 C 500 0.467, 499.611 0, 497.500 0 C 495.389 0, 495 0.467, 495 3 M 194.676 9.216 C 192.724 29.415, 193.071 65.405, 195.239 67.573 C 195.502 67.836, 199.719 68.730, 204.609 69.560 C 216.042 71.500, 235.176 75.244, 256 79.615 C 265.075 81.520, 273.400 83.265, 274.500 83.493 C 276.429 83.893, 276.503 83.354, 276.598 68.204 C 276.687 54.010, 277.403 46.779, 281.632 17.403 L 282.222 13.307 272.861 12.201 C 267.712 11.593, 250.900 9.539, 235.500 7.637 C 220.100 5.735, 204.751 3.899, 201.392 3.556 L 195.283 2.933 194.676 9.216 M 473.500 10.072 C 458.135 11.158, 432.365 12.749, 406.644 14.197 L 384.788 15.428 383.835 17.933 C 380.597 26.449, 375.670 76.566, 377.395 83.438 L 378.087 86.194 385.293 85.502 C 394.460 84.621, 441.114 78.079, 468.599 73.820 L 489.699 70.551 490.366 47.526 C 490.733 34.862, 491.316 21.013, 491.661 16.750 L 492.288 9 488.394 9.147 C 486.252 9.228, 479.550 9.644, 473.500 10.072 M 494.652 14.250 C 494.307 17.138, 493.722 30.897, 493.351 44.826 L 492.677 70.151 496.339 69.464 C 499.323 68.904, 500 69.075, 500 70.389 C 500 71.388, 499.146 72.006, 497.750 72.015 C 492.551 72.051, 492.600 71.700, 493.860 100.154 C 494.501 114.644, 495.020 127.963, 495.013 129.750 C 495.002 132.553, 495.343 133, 497.500 133 C 498.875 133, 500.008 132.662, 500.017 132.250 C 500.618 105.369, 500.672 84.543, 500.226 50.750 L 499.674 9 497.477 9 C 495.571 9, 495.195 9.699, 494.652 14.250 M 284.989 14.121 C 284.983 14.330, 283.831 22.150, 282.429 31.500 C 279.281 52.486, 277.973 81.934, 280.112 83.621 C 281.612 84.804, 290.411 86.272, 306.995 88.107 C 317.906 89.314, 361.254 88.725, 370 87.250 L 374.500 86.492 374.177 80.496 C 373.652 70.743, 376.998 38.921, 380.609 19.326 L 381.194 16.153 352.847 16.721 C 327.119 17.236, 306.824 16.469, 289.750 14.336 C 287.137 14.009, 284.995 13.913, 284.989 14.121 M 1.317 94.250 C 1.826 119.340, 2.660 129.994, 4.240 131.574 C 4.512 131.845, 18.857 132.485, 36.117 132.994 C 53.378 133.504, 77.997 134.429, 90.827 135.050 C 103.657 135.671, 114.336 135.997, 114.559 135.775 C 114.781 135.552, 111.601 125.500, 107.491 113.435 C 102.371 98.405, 99.308 87.487, 97.760 78.752 L 95.500 66.003 48.122 66.002 L 0.743 66 1.317 94.250 M 98 67.792 C 98 73.414, 102.632 92.722, 107.130 105.851 C 109.890 113.908, 113.304 123.875, 114.716 128 C 116.128 132.125, 117.459 135.701, 117.673 135.948 C 118.047 136.378, 213.225 137.926, 213.763 137.510 C 213.908 137.399, 212.397 133.751, 210.406 129.404 C 201.418 109.782, 196.218 94.212, 193.636 79.187 C 192.850 74.615, 192.048 70.716, 191.854 70.524 C 190.314 69, 158.624 66.804, 130.750 66.290 L 98 65.686 98 67.792 M 195.445 73.250 C 195.710 74.487, 196.650 79.221, 197.533 83.768 C 199.604 94.428, 203.444 105.703, 211.055 123.470 L 217.173 137.752 221.726 138.376 C 224.230 138.719, 229.692 139, 233.863 139 C 238.034 139, 248.659 139.438, 257.473 139.974 C 266.288 140.510, 277.369 141.101, 282.097 141.287 L 290.693 141.625 285.391 126.038 C 280.470 111.572, 277 96.632, 277 89.914 C 277 87.439, 276.537 87.007, 273.250 86.409 C 271.188 86.035, 258.250 83.306, 244.500 80.345 C 222.589 75.627, 198.502 71, 195.851 71 C 195.362 71, 195.179 72.013, 195.445 73.250 M 484 74.141 C 476.579 75.183, 469.757 76.262, 441 80.946 C 427.525 83.141, 407.950 85.894, 397.500 87.065 C 387.050 88.235, 378.310 89.376, 378.077 89.602 C 376.557 91.077, 385.228 134.757, 388.124 140.217 C 388.910 141.698, 390.170 141.862, 397.268 141.406 C 405.085 140.904, 449.422 137.371, 479.373 134.864 L 493.246 133.703 492.627 127.601 C 492.287 124.246, 491.553 110.734, 490.997 97.576 C 490.441 84.418, 489.877 73.589, 489.743 73.511 C 489.609 73.433, 487.025 73.717, 484 74.141 M 280.526 92.750 C 281.783 101.953, 285.057 114.645, 289.644 128.099 L 294.280 141.699 319.715 142.399 C 333.703 142.785, 354.137 142.784, 365.123 142.397 C 382.837 141.774, 385.027 141.514, 384.478 140.097 C 382.586 135.212, 377.765 112.855, 376.371 102.500 C 375.483 95.900, 374.641 90.368, 374.501 90.206 C 374.360 90.044, 364.935 90.652, 353.555 91.556 C 331.201 93.331, 310.593 92.654, 291.500 89.515 C 278.997 87.459, 279.772 87.230, 280.526 92.750 M 0.272 167 L 0.500 199.500 3.366 199.828 L 6.233 200.155 5.578 185.828 C 4.723 167.134, 1.976 137.910, 0.894 136 C 0.418 135.159, 0.145 148.786, 0.272 167 M 4.434 137.250 C 5.721 143.377, 7.277 162.486, 7.892 179.705 C 8.269 190.268, 8.868 199.201, 9.223 199.556 C 9.578 199.911, 21.036 201.034, 34.684 202.050 C 48.333 203.067, 71.200 204.795, 85.500 205.890 C 99.800 206.986, 116.787 208.187, 123.250 208.561 L 135 209.240 135 205.796 C 135 199.694, 131.877 183.800, 128.444 172.430 C 124.065 157.923, 117.100 139.969, 115.649 139.445 C 113.761 138.764, 29.640 135, 16.300 135 C 4.032 135, 3.965 135.013, 4.434 137.250 M 487 136.695 C 484.525 136.875, 475.464 137.692, 466.864 138.512 C 434.208 141.624, 404.239 143.990, 397.417 143.995 C 393.521 143.998, 390.105 144.229, 389.825 144.508 C 389.546 144.788, 390.383 148.950, 391.686 153.758 C 394.909 165.656, 398 183.935, 398 191.099 L 398 197 447.103 197 L 496.206 197 495.475 176.996 C 494.388 147.228, 493.613 136.677, 492.500 136.514 C 491.950 136.434, 489.475 136.515, 487 136.695 M 496.340 145.772 C 496.692 151.147, 497.281 164.872, 497.649 176.272 C 498.016 187.673, 498.696 197, 499.159 197 C 499.621 197, 500 183.275, 500 166.500 L 500 136 497.850 136 C 495.752 136, 495.715 136.240, 496.340 145.772 M 119 140.138 C 119 140.599, 120.526 144.694, 122.392 149.238 C 130.506 169.001, 136.988 193.573, 136.997 204.603 L 137 208.707 144.750 209.365 C 168.093 211.350, 232.387 210.947, 234.531 208.803 C 235.335 207.998, 233.006 191.766, 230.899 183.500 C 228.780 175.184, 220.093 151.204, 216.897 144.851 L 215.062 141.201 203.781 140.621 C 184.495 139.628, 119 139.255, 119 140.138 M 219.295 142.225 C 231.758 172.335, 235.586 184.760, 236.645 198.543 C 236.996 203.106, 237.574 207.310, 237.930 207.886 C 238.626 209.012, 253.503 207.487, 275.500 204.036 C 282.100 203.001, 290.425 201.861, 294 201.505 C 305.042 200.403, 304.347 201.257, 303.534 189.795 C 302.539 175.761, 296.678 152.736, 292.463 146.303 C 291.079 144.190, 290.233 144, 282.227 143.998 C 277.427 143.997, 266.300 143.572, 257.500 143.054 C 221.600 140.937, 218.736 140.875, 219.295 142.225 M 296.525 146.825 C 301.531 159.142, 305.704 176.043, 306.899 188.849 C 307.430 194.541, 308.007 199.295, 308.182 199.415 C 308.357 199.534, 312.100 199.291, 316.500 198.876 C 320.900 198.460, 340.488 197.802, 360.028 197.413 L 395.556 196.707 394.826 188.373 C 393.746 176.061, 390.511 159.707, 386.905 148.336 L 385.902 145.172 340.873 145.161 C 299.153 145.152, 295.894 145.274, 296.525 146.825 M 324 201.216 C 316.025 201.722, 309.211 202.443, 308.859 202.818 C 308.506 203.193, 307.713 212.500, 307.096 223.500 C 306.479 234.500, 305.316 248.424, 304.511 254.441 C 303.707 260.459, 303.216 265.550, 303.421 265.755 C 303.626 265.959, 324.248 265.805, 349.247 265.411 L 394.701 264.696 395.350 249.689 C 395.708 241.435, 396 226.879, 396 217.341 L 396 200 367.250 200.148 C 351.438 200.230, 331.975 200.710, 324 201.216 M 398.997 212.750 C 398.996 219.762, 398.701 234.560, 398.342 245.634 L 397.690 265.767 420.595 266.407 C 433.193 266.759, 453.151 267.483, 464.946 268.015 C 479.565 268.675, 486.595 268.656, 487.028 267.955 C 489.007 264.752, 494.651 227.677, 495.584 211.750 L 496.272 200 447.636 200 L 399 200 398.997 212.750 M 497.601 210.211 C 496.612 225.584, 495.190 236.849, 492.139 253.500 L 489.390 268.500 494.695 269.364 C 501.752 270.512, 501.447 272, 494.154 272 L 488.308 272 484.660 290.750 C 481.111 308.993, 478.861 323.094, 477.495 335.651 L 476.826 341.803 479.663 342.343 C 481.223 342.639, 486.438 343.174, 491.250 343.531 C 498.068 344.036, 500 344.510, 500 345.678 C 500 346.838, 499.155 347.054, 496.250 346.636 C 494.188 346.340, 489.040 345.814, 484.810 345.469 L 477.121 344.841 476.428 348.532 C 476.047 350.563, 475.998 358.811, 476.319 366.862 C 476.872 380.749, 478.104 388.669, 481.555 400.540 L 483.075 405.770 491.537 406.475 C 496.274 406.869, 500 407.637, 500 408.219 C 500 408.911, 497.293 409.022, 491.908 408.552 C 484.373 407.895, 483.852 407.972, 484.334 409.673 C 484.619 410.678, 487.352 419.600, 490.406 429.500 C 493.461 439.400, 496.849 451.267, 497.935 455.872 C 499.021 460.476, 500.116 464.449, 500.368 464.701 C 500.620 464.953, 500.753 405.649, 500.663 332.913 C 500.544 236.435, 500.198 200.566, 499.382 200.294 C 498.632 200.044, 498.045 203.318, 497.601 210.211 M 1.136 234.183 C 1.266 265.064, 1.329 266.078, 2.555 257 C 3.951 246.671, 6.634 204.275, 5.932 203.639 C 5.694 203.424, 4.488 202.937, 3.250 202.557 L 1 201.865 1.136 234.183 M 8.652 208.217 C 8.303 211.122, 8.009 217.550, 7.998 222.500 C 7.980 230.809, 6.036 252.718, 4.426 262.750 L 3.744 267 15.411 267 C 21.827 267, 37.972 267.425, 51.289 267.945 C 64.605 268.464, 84.781 269.157, 96.125 269.485 L 116.751 270.081 118.656 266.291 C 119.704 264.206, 122.655 258.675, 125.214 254 C 131.568 242.391, 134.750 232.362, 135.584 221.315 L 136.275 212.164 131.887 211.591 C 129.474 211.276, 118.950 210.561, 108.500 210.002 C 77.642 208.350, 34.743 205.355, 14.893 203.467 L 9.287 202.933 8.652 208.217 M 294.500 204.124 C 290.650 204.604, 281.875 205.872, 275 206.944 C 268.125 208.016, 258 209.379, 252.500 209.974 C 237.033 211.646, 238.394 210.708, 237.608 220.233 C 236.460 234.158, 233.920 241.639, 224.696 258.277 C 221.409 264.204, 218.916 269.249, 219.155 269.488 C 219.393 269.726, 229.244 269.498, 241.044 268.980 C 252.845 268.461, 270.754 267.731, 280.843 267.357 C 292.625 266.921, 299.310 266.288, 299.531 265.589 C 300.316 263.108, 303.046 231.443, 303.655 217.750 C 304.204 205.405, 304.081 203.021, 302.905 203.126 C 302.132 203.196, 298.350 203.645, 294.500 204.124 M 137.983 218.661 C 137.956 229.340, 135.560 238.427, 129.587 250.500 C 126.595 256.550, 123.005 263.341, 121.611 265.590 L 119.077 269.681 145.143 270.333 C 159.479 270.691, 181.269 270.692, 193.565 270.334 L 215.922 269.683 221.896 259.092 C 232.047 241.096, 234.948 232.133, 234.983 218.670 L 235 211.840 224.750 212.633 C 212.191 213.604, 177.329 213.572, 154.750 212.567 L 138 211.822 137.983 218.661 M 310.034 268.930 L 302.568 269.500 300.873 281.500 C 299.020 294.614, 296.339 328.672, 297.099 329.432 C 297.360 329.693, 318.076 330.365, 343.136 330.927 C 368.195 331.488, 389.441 332.232, 390.349 332.580 C 391.740 333.114, 392 332.470, 392 328.485 C 392 323.093, 393.784 282.430, 394.401 273.750 L 394.810 268 356.155 268.180 C 334.895 268.279, 314.140 268.617, 310.034 268.930 M 397.647 273.750 C 396.912 280.418, 394.780 332.114, 395.222 332.555 C 395.385 332.718, 402.264 333.563, 410.509 334.433 C 418.754 335.303, 436.300 337.305, 449.500 338.881 C 462.700 340.457, 473.587 341.680, 473.692 341.598 C 473.798 341.516, 474.584 335.775, 475.439 328.841 C 476.293 321.907, 479.012 306.424, 481.480 294.434 C 483.947 282.443, 485.781 272.447, 485.554 272.220 C 485.107 271.774, 413.124 268.081, 403.890 268.031 L 398.280 268 397.647 273.750 M 3.431 270.421 C 2.075 274.323, 1 291.473, 1 309.205 L 1 329.962 5.250 329.514 C 7.588 329.267, 24.575 328.578, 43 327.981 C 61.425 327.385, 79.172 326.808, 82.438 326.699 L 88.376 326.500 91.517 317.500 C 95.078 307.296, 100.440 296.578, 108.482 283.584 C 111.517 278.681, 114 274.356, 114 273.974 C 114 272.828, 104.304 272.018, 90.500 272.011 C 83.350 272.008, 66.025 271.567, 52 271.031 C 6.979 269.313, 3.830 269.274, 3.431 270.421 M 294 269.600 C 292.075 269.745, 277.900 270.355, 262.500 270.955 C 247.100 271.555, 230.393 272.298, 225.373 272.607 L 216.245 273.168 208.201 287.834 C 203.777 295.900, 199.043 305.200, 197.682 308.500 C 195.277 314.329, 192 324.527, 192 326.182 C 192 326.632, 197.813 327, 204.918 327 C 212.023 327, 227.886 327.425, 240.168 327.945 C 252.451 328.465, 269.319 329.160, 277.653 329.491 L 292.807 330.091 293.437 320.296 C 294.007 311.446, 297.237 282.157, 298.680 272.750 C 298.997 270.688, 298.861 269.076, 298.378 269.168 C 297.895 269.261, 295.925 269.455, 294 269.600 M 109.116 287.478 C 100.717 302.093, 96.368 311.446, 93.645 320.750 L 92.108 326 140.936 326 L 189.764 326 192.480 317.289 C 195.068 308.990, 202.876 292.558, 210.475 279.419 L 213.992 273.338 165.661 273.260 L 117.330 273.182 109.116 287.478 M 64.500 330.041 C 54.050 330.421, 35.488 331.088, 23.250 331.523 L 1 332.315 1.037 357.408 C 1.070 380.306, 2.246 394.579, 4.264 396.598 C 4.580 396.913, 15.562 396.695, 28.669 396.112 C 41.776 395.530, 60.960 394.756, 71.300 394.392 L 90.100 393.730 89.584 391.115 C 87.228 379.179, 85.800 360.182, 86.341 348 C 86.671 340.575, 87.232 333.262, 87.587 331.750 C 88.159 329.315, 87.962 329.020, 85.867 329.176 C 84.565 329.273, 74.950 329.662, 64.500 330.041 M 91.655 329.750 C 88.727 334.497, 88.279 362.075, 90.826 380.824 L 92.500 393.148 141.452 393.038 C 168.376 392.978, 190.506 392.827, 190.630 392.703 C 190.754 392.579, 189.951 386.183, 188.846 378.489 C 187.249 367.373, 186.947 361.419, 187.376 349.500 C 187.673 341.250, 188.212 333.262, 188.575 331.750 L 189.233 329 140.676 329 C 113.969 329, 91.910 329.337, 91.655 329.750 M 190.536 331.289 C 190.164 332.505, 189.608 340.045, 189.301 348.043 C 188.797 361.136, 190.226 379.885, 192.556 390.750 L 193.038 393 246.127 393 L 299.217 393 298.519 390.250 C 295.497 378.332, 293.029 356.425, 293.010 341.340 L 293 333.180 284.750 332.619 C 280.212 332.311, 260.750 331.586, 241.500 331.009 C 222.250 330.431, 203.060 329.761, 198.856 329.519 C 191.655 329.104, 191.173 329.207, 190.536 331.289 M 297.020 345.733 C 297.041 359.597, 297.865 367.033, 301.110 382.652 L 303.220 392.805 350.360 393.190 C 376.287 393.401, 397.610 393.523, 397.743 393.460 C 397.877 393.398, 397.085 389.212, 395.982 384.159 C 393.789 374.112, 392.041 356.125, 392.016 343.356 L 392 335.213 375.750 334.634 C 366.813 334.316, 345.438 333.811, 328.250 333.511 L 297 332.966 297.020 345.733 M 395.001 345.121 C 395.002 357.853, 396.680 374.611, 399.032 385.390 C 400.103 390.298, 401.097 394.420, 401.240 394.551 C 401.383 394.682, 408.250 395.522, 416.500 396.418 C 424.750 397.314, 436.900 398.930, 443.500 400.008 C 458.328 402.431, 479.144 405.200, 479.504 404.798 C 479.651 404.634, 478.715 400.337, 477.423 395.250 C 473.981 381.693, 472.712 370.167, 473.189 356.796 C 473.593 345.466, 473.520 344.922, 471.556 344.522 C 468.757 343.951, 411.284 337.214, 402.250 336.397 L 395 335.742 395.001 345.121 M 93.033 397.250 C 93.067 398.556, 94.507 409.553, 97.845 434 C 98.934 441.975, 100.137 452.212, 100.517 456.750 L 101.208 465 118.354 464.987 C 137.411 464.972, 183.323 463.377, 192.250 462.420 L 198 461.804 198.018 458.152 C 198.036 454.701, 192.327 403.056, 191.397 398.250 L 190.962 396 141.981 396 C 103.446 396, 93.007 396.267, 93.033 397.250 M 193.599 399.750 C 193.824 401.813, 195.138 412.632, 196.518 423.794 C 197.899 434.956, 199.316 448.151, 199.669 453.116 L 200.310 462.145 204.905 461.596 C 207.432 461.294, 212.425 460.802, 216 460.502 C 219.575 460.203, 236.061 458.620, 252.635 456.985 C 269.209 455.350, 289.443 453.539, 297.598 452.960 C 305.754 452.380, 312.543 451.790, 312.685 451.649 C 313.215 451.118, 306.983 422.194, 304.681 414.500 C 303.365 410.100, 301.728 404.137, 301.044 401.250 L 299.801 396 246.495 396 L 193.190 396 193.599 399.750 M 304.334 397.658 C 306.751 406.097, 310.470 421.207, 313.524 435 C 315.534 444.075, 317.251 451.534, 317.339 451.575 C 317.428 451.616, 320.875 451.302, 325 450.878 C 338.264 449.514, 390.032 448.782, 402 449.790 C 408.325 450.323, 413.689 450.587, 413.920 450.376 C 415.292 449.126, 401.435 400.036, 399.031 397.630 C 398.233 396.832, 384.081 396.399, 350.854 396.158 C 305.537 395.828, 303.826 395.883, 304.334 397.658 M 46 398.105 C 34.725 398.546, 20.843 399.199, 15.152 399.557 L 4.804 400.206 5.463 404.604 C 5.826 407.024, 8.058 416.990, 10.424 426.751 C 12.789 436.513, 15.538 449, 16.531 454.500 C 17.525 460, 18.656 464.872, 19.045 465.326 C 19.433 465.780, 37.419 465.824, 59.013 465.423 L 98.274 464.695 97.627 455.493 C 96.945 445.789, 91.311 400.386, 90.523 398.250 C 90 396.828, 79.505 396.794, 46 398.105 M 402.199 399.088 C 405.291 407.221, 412.597 431.382, 414.472 439.679 C 415.778 445.454, 417.005 450.339, 417.200 450.534 C 417.395 450.729, 421.593 451.369, 426.528 451.956 C 431.462 452.543, 449.147 455.309, 465.826 458.103 C 482.505 460.897, 496.423 462.910, 496.755 462.578 C 497.088 462.246, 496.548 458.492, 495.557 454.237 C 493.598 445.828, 481.126 407, 480.383 407 C 480.133 407, 466.331 405.192, 449.714 402.983 C 412.116 397.984, 401.446 397.110, 402.199 399.088 M 1.107 433.750 L 1 466 8 466 C 12.933 466, 15 465.631, 15 464.750 C 14.999 462.209, 11.827 446.983, 7.552 429 C 5.133 418.825, 2.717 408.475, 2.184 406 C 1.478 402.724, 1.185 410.271, 1.107 433.750 M 331.500 453.448 C 323.800 454.162, 317.469 454.803, 317.431 454.873 C 317.393 454.943, 317.767 458.262, 318.262 462.250 C 318.757 466.238, 318.993 476.363, 318.786 484.750 L 318.410 500 367.615 500 L 416.820 500 417.569 491.250 C 418.275 483.008, 416.877 459.448, 415.463 455.765 C 415.124 454.880, 414.093 453.831, 413.173 453.435 C 410.011 452.075, 346.205 452.086, 331.500 453.448 M 418.180 459.250 C 419.224 465.477, 419.427 493.449, 418.456 497.320 L 417.778 500.022 459.139 499.761 L 500.500 499.500 500.622 483.500 C 500.692 474.188, 500.438 469.172, 500.013 471.500 L 499.284 475.500 499.127 472 C 498.908 467.144, 498.148 466.344, 493 465.557 C 490.525 465.179, 481.075 463.556, 472 461.951 C 462.925 460.346, 452.125 458.559, 448 457.981 C 437.534 456.514, 418.622 454.018, 417.899 454.008 C 417.569 454.004, 417.695 456.363, 418.180 459.250 M 288.500 457.039 C 276.950 458.050, 259.400 459.616, 249.500 460.520 C 239.600 461.423, 224.838 462.751, 216.695 463.470 C 208.552 464.189, 201.707 464.960, 201.483 465.184 C 201.259 465.408, 201.354 473.336, 201.694 482.804 L 202.313 500.017 258.406 499.758 L 314.500 499.500 314.760 483.500 C 315.093 462.921, 314.240 455.555, 311.499 455.351 C 310.400 455.268, 300.050 456.028, 288.500 457.039 M 181 466.053 C 174.675 466.454, 154.067 467.128, 135.205 467.552 C 109.492 468.130, 101.023 468.618, 101.363 469.505 C 101.613 470.155, 102.144 477.282, 102.543 485.343 L 103.269 500 151.634 500 L 200 500 199.994 490.750 C 199.991 485.663, 199.699 477.788, 199.346 473.250 L 198.704 465 195.602 465.162 C 193.896 465.251, 187.325 465.652, 181 466.053 M 27.144 468.746 C 19.066 469.073, 18.810 469.158, 19.429 471.292 C 19.782 472.506, 20.347 479.462, 20.685 486.750 L 21.300 500 60.650 500 L 100 500 100 493.154 C 100 489.388, 99.708 482.188, 99.350 477.154 L 98.701 468 67.100 468.204 C 49.720 468.315, 31.740 468.559, 27.144 468.746 M 1 484.500 L 1 500 9.651 500 L 18.302 500 17.649 487.250 C 16.660 467.945, 17.196 469, 8.383 469 L 1 469 1 484.500" stroke="none" fill="#050505" fill-rule="evenodd"/></svg>