<svg xmlns="http://www.w3.org/2000/svg" width="500" height="500" viewBox="0 0 500 500" version="1.1"><path d="M 94.466 10.658 C 94.066 16.520, 93.947 30.695, 94.201 42.158 L 94.663 63 47.332 63 C 5.926 63, 0 63.188, 0 64.500 C 0 65.812, 5.973 66, 47.750 66.002 L 95.500 66.003 97.760 78.752 C 99.308 87.487, 102.371 98.405, 107.491 113.435 C 111.601 125.500, 114.788 135.545, 114.575 135.758 C 114.362 135.971, 98.661 135.438, 79.685 134.573 C 60.709 133.708, 40.304 132.998, 34.341 132.995 C 28.379 132.992, 19.104 132.699, 13.731 132.343 C 2.261 131.583, 3.417 133.292, 1.483 114.233 L 0.190 101.500 0.256 118 C 0.292 127.075, 0.674 135.175, 1.105 136 C 2.102 137.908, 4.722 167.101, 5.581 185.881 L 6.238 200.262 3.119 199.804 C -1.084 199.187, -1.058 201.609, 3.149 202.533 L 6.297 203.224 5.656 218.362 C 4.931 235.461, 2.011 265.999, 1.100 266.003 C 0.770 266.004, 0.434 271.966, 0.354 279.253 C 0.198 293.394, 0.051 293.680, 2.802 274.500 L 3.519 269.500 17.510 269.810 C 25.204 269.980, 41.625 270.535, 54 271.043 C 66.375 271.550, 82.575 271.977, 90 271.992 C 104.288 272.019, 114 272.821, 114 273.974 C 114 274.356, 111.517 278.681, 108.482 283.584 C 100.440 296.578, 95.078 307.296, 91.517 317.500 L 88.376 326.500 82.438 326.701 C 79.172 326.812, 61.200 327.397, 42.500 328.002 C 4.702 329.224, 0 329.590, -0.001 331.311 C -0.002 332.214, 4.632 332.323, 19.249 331.766 C 64.518 330.039, 87.523 329.310, 87.862 329.591 C 88.061 329.756, 87.724 332.765, 87.112 336.277 C 85.093 347.872, 86.090 370.433, 89.512 390.616 L 90.040 393.732 71.270 394.393 C 60.947 394.756, 41.776 395.530, 28.669 396.112 C 15.562 396.695, 4.574 396.907, 4.251 396.584 C 3.929 396.262, 2.872 392.061, 1.903 387.249 L 0.140 378.500 0.434 389.500 C 0.721 400.268, 2.520 409.827, 8.994 435 C 11.190 443.538, 15 462.410, 15 464.748 C 15 465.639, 12.840 466, 7.500 466 C 1.500 466, 0 466.300, 0 467.500 C 0 468.706, 1.543 469, 7.883 469 C 17.278 469, 16.655 467.836, 17.649 487.250 C 18.181 497.639, 18.580 500, 19.805 500 C 21.099 500, 21.220 498.157, 20.669 486.750 C 20.317 479.463, 19.764 472.558, 19.439 471.408 C 18.870 469.391, 19.289 469.292, 31.082 468.658 C 37.809 468.296, 55.777 468, 71.009 468 L 98.704 468 99.346 476.250 C 99.699 480.787, 99.991 487.988, 99.994 492.250 C 99.999 498.753, 100.263 500, 101.634 500 C 103.106 500, 103.197 498.537, 102.543 485.343 C 102.144 477.282, 101.613 470.155, 101.364 469.505 C 101.023 468.619, 109.240 468.149, 134.205 467.628 C 152.517 467.246, 174.448 466.509, 182.940 465.990 C 191.433 465.472, 198.538 465.205, 198.731 465.398 C 198.924 465.591, 199.359 473.455, 199.697 482.874 C 200.069 493.231, 200.708 500, 201.314 500 C 201.968 500, 202.097 493.963, 201.685 482.583 L 201.055 465.166 204.778 464.633 C 206.825 464.339, 211.425 463.857, 215 463.561 C 218.575 463.265, 231.175 462.145, 243 461.071 C 268.319 458.771, 302.630 455.977, 308.975 455.697 L 313.450 455.500 314.245 461.500 C 314.682 464.800, 314.919 474.813, 314.770 483.751 C 314.530 498.173, 314.682 500.003, 316.119 500.001 C 317.213 500, 317.939 498.783, 318.358 496.250 C 319.180 491.280, 319.019 468.004, 318.113 460.755 C 317.520 456.005, 317.665 454.934, 318.948 454.574 C 324.389 453.050, 359.793 451.783, 384.758 452.220 C 410.372 452.668, 413.453 452.899, 414.592 454.456 C 416.520 457.093, 417.510 467.830, 417.405 484.948 C 417.344 494.880, 417.624 499.545, 418.190 498.015 C 419.320 494.962, 419.300 466.138, 418.164 459.250 C 417.688 456.363, 417.569 454.004, 417.899 454.008 C 418.633 454.018, 437.720 456.539, 448 457.984 C 452.125 458.564, 462.925 460.342, 472 461.936 C 481.075 463.531, 490.525 465.152, 493 465.540 C 498.043 466.330, 498.915 467.183, 499.094 471.500 C 499.198 473.983, 499.368 473.743, 500.081 470.109 C 500.556 467.694, 500.694 465.314, 500.388 464.819 C 500.083 464.325, 498.962 460.226, 497.897 455.710 C 496.832 451.195, 493.461 439.400, 490.406 429.500 C 487.352 419.600, 484.619 410.678, 484.334 409.673 C 483.852 407.972, 484.373 407.895, 491.908 408.552 C 497.293 409.022, 500 408.911, 500 408.219 C 500 407.637, 496.275 406.869, 491.540 406.475 C 481.779 405.662, 482.702 406.833, 478.947 390.500 C 476.729 380.854, 475.190 355.133, 476.434 348.501 L 477.132 344.777 484.816 345.421 C 489.042 345.775, 494.188 346.315, 496.250 346.620 C 499.162 347.052, 500 346.841, 500 345.678 C 500 344.510, 498.068 344.036, 491.250 343.531 C 486.438 343.174, 481.223 342.639, 479.663 342.343 L 476.826 341.803 477.495 335.651 C 478.861 323.094, 481.111 308.993, 484.660 290.750 L 488.308 272 494.154 272 C 501.447 272, 501.752 270.512, 494.695 269.364 L 489.390 268.500 492.139 253.500 C 495.191 236.845, 496.611 225.585, 497.602 210.194 C 498.125 202.073, 498.556 199.999, 499.633 200.413 C 501.408 201.094, 501.422 198.349, 499.648 197.300 C 498.623 196.693, 498.142 191.789, 497.658 177 C 497.307 166.275, 496.722 152.662, 496.358 146.750 C 495.715 136.310, 495.756 136, 497.781 136 C 499.797 136, 501.858 132.524, 500.591 131.258 C 500.266 130.933, 500 131.192, 500 131.833 C 500 132.475, 498.875 133, 497.500 133 C 495.343 133, 495.002 132.553, 495.013 129.750 C 495.020 127.963, 494.501 114.644, 493.860 100.154 C 492.600 71.700, 492.551 72.051, 497.750 72.015 C 499.146 72.006, 500 71.388, 500 70.389 C 500 69.075, 499.323 68.904, 496.339 69.464 L 492.677 70.151 493.351 44.826 C 493.722 30.897, 494.307 17.137, 494.652 14.250 C 495.210 9.576, 495.538 9, 497.639 9 C 499.071 9, 500 8.410, 500 7.500 C 500 6.567, 499.056 6, 497.500 6 C 495.389 6, 495 5.533, 495 3 C 495 1.350, 494.550 0, 494 0 C 493.450 0, 493 1.098, 493 2.441 C 493 3.784, 492.589 5.136, 492.087 5.447 C 491.584 5.757, 484.497 6.470, 476.337 7.030 C 444.750 9.199, 397.216 11.972, 391.374 11.986 L 385.248 12 386.500 6 C 387.656 0.462, 387.616 -0, 385.989 -0 C 384.615 -0, 383.960 1.410, 383.020 6.394 L 381.813 12.788 362.157 13.528 C 343.972 14.212, 301.322 12.911, 290.195 11.333 L 285.891 10.722 286.561 5.361 C 287.448 -1.744, 285.513 -1.790, 284.041 5.301 L 282.941 10.601 272.720 9.337 C 267.099 8.642, 249.900 6.430, 234.500 4.421 C 210.320 1.266, 203.226 0.728, 182.500 0.472 L 158.500 0.177 174.492 1.131 C 183.288 1.655, 190.852 2.452, 191.302 2.902 C 191.752 3.352, 191.624 12.895, 191.017 24.110 C 190.271 37.901, 190.230 48.055, 190.888 55.486 C 191.424 61.528, 191.702 66.631, 191.506 66.827 C 191.310 67.023, 184.597 66.468, 176.587 65.594 C 168.576 64.719, 147.438 63.706, 129.604 63.342 L 97.183 62.681 96.465 50.225 C 96.049 43.015, 96.221 30.967, 96.873 21.615 C 98.318 0.905, 98.306 0, 96.596 0 C 95.524 0, 95.021 2.521, 94.466 10.658 M 194.676 9.169 C 192.690 29.564, 193.045 65.378, 195.255 67.588 C 195.509 67.843, 199.719 68.730, 204.609 69.560 C 216.042 71.500, 235.176 75.244, 256 79.615 C 265.075 81.520, 273.400 83.265, 274.500 83.492 C 276.431 83.892, 276.505 83.344, 276.630 67.703 C 276.724 56.052, 277.497 46.446, 279.380 33.507 C 280.821 23.611, 282 15.012, 282 14.398 C 282 13.735, 278.241 12.837, 272.750 12.189 C 267.663 11.588, 250.900 9.533, 235.500 7.622 C 220.100 5.712, 204.753 3.854, 201.396 3.493 L 195.293 2.838 194.676 9.169 M 480 9.660 C 477.525 9.831, 469.200 10.413, 461.500 10.952 C 453.800 11.491, 433.389 12.721, 416.142 13.685 L 384.785 15.436 383.834 17.937 C 380.597 26.450, 375.671 76.567, 377.395 83.438 L 378.087 86.194 385.293 85.502 C 394.461 84.621, 441.115 78.079, 468.603 73.820 L 489.706 70.550 490.379 47.525 C 490.749 34.861, 491.330 21.013, 491.670 16.750 L 492.288 9 488.394 9.175 C 486.252 9.271, 482.475 9.489, 480 9.660 M 284.989 14.121 C 284.983 14.330, 283.831 22.150, 282.429 31.500 C 279.260 52.628, 277.974 81.903, 280.135 83.697 C 280.911 84.341, 286.935 85.667, 293.523 86.645 C 306.766 88.609, 350.052 89.215, 366.225 87.662 L 374.951 86.825 374.372 81.162 C 373.486 72.510, 376.722 40.447, 380.613 19.306 L 381.201 16.113 352.851 16.702 C 327.054 17.238, 306.944 16.484, 289.750 14.336 C 287.137 14.009, 284.995 13.913, 284.989 14.121 M 98 67.735 C 98 70.627, 100.808 85.467, 102.591 92 C 104.057 97.373, 117.027 135.061, 117.715 135.948 C 118.052 136.383, 213.230 137.924, 213.771 137.502 C 213.920 137.386, 212.258 133.410, 210.077 128.668 C 201.775 110.612, 196.062 93.428, 193.628 79.187 C 192.847 74.615, 192.048 70.716, 191.854 70.524 C 190.297 68.982, 158.691 66.789, 130.750 66.283 C 98.238 65.695, 98 65.706, 98 67.735 M 195.445 73.250 C 195.710 74.487, 196.650 79.221, 197.533 83.768 C 199.605 94.436, 203.444 105.704, 211.079 123.526 L 217.222 137.865 223.361 138.395 C 226.737 138.686, 236.250 139.207, 244.500 139.552 C 252.750 139.896, 266.475 140.524, 275 140.947 C 283.525 141.369, 290.594 141.648, 290.709 141.566 C 290.823 141.483, 289.116 136.485, 286.914 130.458 C 281.769 116.372, 278.344 103.263, 277.456 94.251 C 276.798 87.568, 276.581 87.071, 274.126 86.588 C 272.682 86.304, 260.700 83.763, 247.500 80.942 C 222.998 75.706, 198.777 71, 196.327 71 C 195.435 71, 195.129 71.780, 195.445 73.250 M 483.500 74.087 C 480.750 74.562, 475.575 75.401, 472 75.953 C 468.425 76.504, 454.475 78.751, 441 80.944 C 427.525 83.138, 407.951 85.884, 397.503 87.046 C 387.055 88.209, 378.315 89.352, 378.080 89.586 C 376.557 91.110, 385.225 134.752, 388.143 140.253 C 388.960 141.792, 390.140 141.935, 397.787 141.422 C 406.273 140.852, 451.488 137.223, 479.365 134.873 L 493.229 133.704 492.587 127.102 C 492.116 122.270, 490.347 85.480, 490.021 73.750 C 490.009 73.338, 489.663 73.050, 489.250 73.112 C 488.837 73.173, 486.250 73.612, 483.500 74.087 M 280.526 92.750 C 281.783 101.954, 285.057 114.645, 289.645 128.102 L 294.282 141.703 320.188 142.410 C 334.436 142.799, 354.870 142.798, 365.596 142.408 C 382.890 141.779, 385.028 141.518, 384.479 140.100 C 382.586 135.213, 377.765 112.857, 376.371 102.500 C 375.483 95.900, 374.641 90.368, 374.501 90.206 C 374.360 90.044, 364.935 90.652, 353.555 91.556 C 331.201 93.331, 310.593 92.654, 291.500 89.515 C 278.997 87.459, 279.772 87.230, 280.526 92.750 M 4.444 137.250 C 5.681 143.019, 7.293 163.229, 7.867 180.167 C 8.215 190.434, 8.817 199.151, 9.204 199.538 C 9.591 199.925, 21.066 201.064, 34.704 202.071 C 48.342 203.077, 71.200 204.796, 85.500 205.891 C 99.800 206.986, 116.858 208.192, 123.406 208.571 L 135.311 209.259 134.637 202.005 C 133.304 187.661, 125.874 161.078, 118.602 144.635 L 116.230 139.271 104.365 138.606 C 72.665 136.832, 28.172 135.001, 16.731 135 C 4.013 135, 3.964 135.009, 4.444 137.250 M 487 136.694 C 484.525 136.874, 473.050 137.909, 461.500 138.996 C 428.108 142.137, 404.064 144, 396.933 144 C 393.303 144, 390.105 144.229, 389.825 144.508 C 389.546 144.788, 390.383 148.950, 391.686 153.758 C 394.909 165.656, 398 183.935, 398 191.099 L 398 197 447.116 197 L 496.232 197 495.506 177.250 C 494.417 147.632, 493.609 136.676, 492.500 136.514 C 491.950 136.434, 489.475 136.515, 487 136.694 M 119 140.135 C 119 140.598, 120.526 144.694, 122.392 149.238 C 130.523 169.041, 136.988 193.574, 136.997 204.654 L 137 208.808 147.750 209.631 C 161.592 210.691, 224.022 210.717, 230.301 209.666 L 235.102 208.862 234.499 204.181 C 232.090 185.464, 229.855 177.287, 220.999 154.776 L 215.650 141.181 203.575 140.610 C 182.526 139.615, 119 139.258, 119 140.135 M 219.300 142.239 C 231.177 170.890, 234.631 181.722, 236.126 195 C 237.818 210.037, 237.493 209.260, 241.789 208.548 C 243.830 208.210, 250.675 207.315, 257 206.560 C 270 205.007, 298.276 201.115, 301.875 200.382 C 304.245 199.900, 304.249 199.874, 303.538 189.851 C 302.540 175.766, 296.686 152.748, 292.463 146.303 C 291.090 144.208, 290.211 144, 282.727 143.998 C 278.202 143.997, 267.300 143.573, 258.500 143.054 C 223.706 141.005, 218.746 140.901, 219.300 142.239 M 296.524 146.818 C 301.446 158.886, 305.705 176.338, 306.957 189.573 C 307.458 194.869, 308.010 199.298, 308.184 199.417 C 308.358 199.535, 312.100 199.291, 316.500 198.876 C 320.900 198.460, 340.536 197.801, 360.135 197.412 L 395.770 196.704 395.341 192.602 C 393.617 176.097, 391.310 163.702, 387.475 150.333 L 385.992 145.165 340.915 145.150 C 299.069 145.137, 295.887 145.256, 296.524 146.818 M 324.004 201.193 C 316.031 201.688, 309.217 202.409, 308.862 202.796 C 308.508 203.183, 307.708 212.500, 307.085 223.500 C 306.462 234.500, 305.289 248.414, 304.480 254.421 C 303.671 260.427, 303.185 265.518, 303.401 265.734 C 303.617 265.950, 324.248 265.805, 349.248 265.411 L 394.703 264.696 395.348 250.598 C 395.702 242.844, 395.994 228.287, 395.996 218.250 L 396 200 367.250 200.146 C 351.438 200.227, 331.977 200.697, 324.004 201.193 M 398.997 212.750 C 398.996 219.762, 398.701 234.560, 398.342 245.634 L 397.690 265.767 420.595 266.407 C 433.193 266.759, 453.142 267.482, 464.926 268.014 C 476.711 268.546, 486.571 268.763, 486.837 268.496 C 488.727 266.607, 494.563 228.688, 495.572 211.750 L 496.272 200 447.636 200 L 399 200 398.997 212.750 M 8.648 208.250 C 8.301 211.137, 8.009 217.550, 7.998 222.500 C 7.980 230.809, 6.036 252.718, 4.426 262.750 L 3.744 267 15.411 267 C 21.827 267, 37.972 267.425, 51.289 267.945 C 64.605 268.464, 84.781 269.157, 96.125 269.485 L 116.751 270.081 118.656 266.291 C 119.704 264.206, 122.655 258.675, 125.214 254 C 131.597 242.337, 134.880 232.002, 135.651 221.135 L 136.288 212.166 131.894 211.592 C 129.477 211.277, 118.950 210.555, 108.500 209.988 C 83.234 208.618, 48.436 206.247, 27.500 204.469 C 18.150 203.675, 10.225 203.020, 9.889 203.013 C 9.553 203.006, 8.995 205.363, 8.648 208.250 M 294.500 204.124 C 290.650 204.604, 281.875 205.872, 275 206.944 C 268.125 208.016, 258 209.379, 252.500 209.974 C 237.033 211.646, 238.394 210.708, 237.608 220.233 C 236.460 234.158, 233.920 241.639, 224.696 258.277 C 221.409 264.204, 218.916 269.249, 219.155 269.488 C 219.393 269.726, 229.244 269.498, 241.044 268.980 C 252.845 268.461, 270.754 267.731, 280.843 267.357 C 292.625 266.921, 299.310 266.288, 299.531 265.589 C 300.316 263.108, 303.046 231.443, 303.655 217.750 C 304.204 205.405, 304.081 203.021, 302.905 203.126 C 302.132 203.196, 298.350 203.645, 294.500 204.124 M 137.696 221.660 C 137.357 227.072, 136.337 233.968, 135.431 236.984 C 133.785 242.462, 126.333 257.862, 121.588 265.590 L 119.077 269.681 145.143 270.333 C 159.479 270.691, 181.269 270.692, 193.565 270.334 L 215.922 269.683 221.896 259.092 C 232.050 241.091, 234.948 232.134, 234.983 218.657 L 235 211.813 225.250 212.596 C 213.232 213.560, 176.018 213.538, 154.407 212.553 L 138.313 211.820 137.696 221.660 M 309.546 268.927 L 302.591 269.500 300.830 282.322 C 298.741 297.541, 297.025 316.304, 297.010 324.092 L 297 329.684 315.160 330.342 C 325.148 330.704, 341.011 331.040, 350.410 331.090 C 359.810 331.139, 372.900 331.498, 379.500 331.889 C 386.100 332.279, 391.557 332.576, 391.627 332.549 C 391.697 332.522, 392.271 319.900, 392.902 304.500 C 393.534 289.100, 394.292 274.587, 394.587 272.250 L 395.123 268 355.811 268.177 C 334.190 268.274, 313.370 268.611, 309.546 268.927 M 397.997 269.750 C 397.995 270.712, 397.575 276.450, 397.063 282.500 C 396.551 288.550, 395.871 302.351, 395.551 313.169 L 394.969 332.838 401.735 333.514 C 405.456 333.886, 423.125 335.889, 441 337.965 C 458.875 340.041, 473.578 341.683, 473.673 341.614 C 473.768 341.545, 474.591 335.641, 475.502 328.494 C 476.413 321.347, 479.154 305.868, 481.591 294.095 C 484.029 282.323, 485.828 272.495, 485.589 272.256 C 485.082 271.749, 479.992 271.444, 438.977 269.470 C 398.949 267.542, 398.001 267.549, 397.997 269.750 M 294 269.580 C 292.625 269.734, 278.225 270.357, 262 270.964 C 245.775 271.571, 228.844 272.313, 224.375 272.613 L 216.251 273.159 208.204 287.829 C 203.778 295.898, 199.043 305.200, 197.682 308.500 C 195.384 314.068, 192 324.506, 192 326.022 C 192 326.384, 202.912 326.978, 216.250 327.341 C 229.588 327.704, 252.164 328.449, 266.420 328.997 C 280.677 329.544, 292.446 329.882, 292.575 329.746 C 292.704 329.611, 293.329 322.750, 293.965 314.500 C 294.600 306.250, 295.993 293.027, 297.060 285.115 C 299.358 268.078, 299.320 268.962, 297.750 269.150 C 297.063 269.232, 295.375 269.426, 294 269.580 M 109.067 287.502 C 100.678 302.177, 96.352 311.502, 93.645 320.750 L 92.108 326 140.936 326 L 189.764 326 192.480 317.289 C 195.068 308.988, 202.875 292.559, 210.481 279.409 L 214.004 273.318 165.629 273.250 L 117.254 273.182 109.067 287.502 M 91.655 329.750 C 88.727 334.497, 88.279 362.075, 90.826 380.824 L 92.500 393.148 141.452 393.038 C 168.376 392.978, 190.506 392.827, 190.630 392.703 C 190.754 392.579, 189.951 386.183, 188.846 378.489 C 187.249 367.373, 186.947 361.419, 187.376 349.500 C 187.673 341.250, 188.212 333.262, 188.575 331.750 L 189.233 329 140.676 329 C 113.969 329, 91.910 329.337, 91.655 329.750 M 190.536 331.289 C 190.164 332.505, 189.608 340.045, 189.301 348.043 C 188.797 361.136, 190.226 379.885, 192.556 390.750 L 193.038 393 246.019 393 C 275.159 393, 299 392.825, 299 392.610 C 299 392.396, 298.125 387.966, 297.055 382.766 C 294.844 372.020, 293.026 353.396, 293.010 341.335 L 293 333.171 285.750 332.619 C 281.762 332.315, 262.300 331.595, 242.500 331.018 C 222.700 330.440, 203.060 329.768, 198.856 329.523 C 191.653 329.105, 191.174 329.206, 190.536 331.289 M 297.020 345.733 C 297.041 359.597, 297.865 367.033, 301.110 382.652 L 303.220 392.805 350.360 393.190 C 376.287 393.401, 397.627 393.506, 397.782 393.422 C 397.938 393.338, 397.143 389.132, 396.017 384.076 C 393.792 374.089, 392.041 356.265, 392.016 343.356 L 392 335.213 375.750 334.634 C 366.813 334.316, 345.438 333.811, 328.250 333.511 L 297 332.966 297.020 345.733 M 395.001 345.106 C 395.002 357.852, 396.679 374.607, 399.032 385.390 C 400.103 390.298, 401.097 394.420, 401.240 394.551 C 401.383 394.682, 408.250 395.522, 416.500 396.418 C 424.750 397.314, 436.900 398.930, 443.500 400.008 C 458.328 402.431, 479.144 405.200, 479.504 404.798 C 479.651 404.634, 478.715 400.337, 477.423 395.250 C 473.981 381.693, 472.712 370.167, 473.189 356.796 C 473.593 345.466, 473.520 344.922, 471.556 344.522 C 468.613 343.922, 410.903 337.122, 402.250 336.355 L 395 335.713 395.001 345.106 M 93.022 397.750 C 93.034 398.712, 93.677 404, 94.451 409.500 C 98.268 436.620, 99.886 449.216, 100.517 456.750 L 101.208 465 118.854 464.987 C 138.531 464.972, 184.565 463.386, 192.887 462.437 L 198.274 461.822 197.741 454.161 C 197.211 446.549, 192.216 402.553, 191.392 398.250 L 190.962 396 141.981 396 C 95.991 396, 93.001 396.107, 93.022 397.750 M 193.599 399.750 C 193.824 401.813, 195.114 412.500, 196.465 423.500 C 197.816 434.500, 199.231 447.696, 199.610 452.823 L 200.298 462.147 204.899 461.597 C 207.430 461.295, 212.425 460.802, 216 460.502 C 219.575 460.203, 236.061 458.620, 252.635 456.985 C 269.209 455.350, 289.443 453.539, 297.598 452.960 C 305.754 452.380, 312.543 451.790, 312.685 451.649 C 313.215 451.118, 306.983 422.194, 304.681 414.500 C 303.365 410.100, 301.728 404.137, 301.044 401.250 L 299.801 396 246.495 396 L 193.190 396 193.599 399.750 M 304.334 397.658 C 306.751 406.097, 310.470 421.207, 313.524 435 C 315.534 444.075, 317.251 451.568, 317.339 451.650 C 317.428 451.733, 321.100 451.390, 325.500 450.889 C 338.551 449.402, 389.357 448.697, 401.989 449.828 C 408.307 450.393, 413.671 450.662, 413.908 450.425 C 415.293 449.040, 401.552 400.152, 399.083 397.683 C 398.217 396.816, 385.330 396.409, 350.854 396.158 C 305.537 395.828, 303.826 395.883, 304.334 397.658 M 45 398.111 C 33.175 398.554, 19.293 399.206, 14.152 399.559 L 4.803 400.201 5.463 404.602 C 5.826 407.023, 8.058 416.990, 10.424 426.751 C 12.789 436.513, 15.538 449, 16.531 454.500 C 17.525 460, 18.656 464.872, 19.045 465.326 C 19.433 465.780, 37.417 465.824, 59.008 465.423 L 98.265 464.695 97.570 454.598 C 96.882 444.606, 91.377 400.662, 90.511 398.250 C 90.001 396.828, 80.014 396.798, 45 398.111 M 402.199 399.088 C 405.291 407.221, 412.597 431.382, 414.472 439.679 C 415.778 445.454, 417.046 450.380, 417.292 450.625 C 417.538 450.871, 421.960 451.534, 427.119 452.099 C 432.279 452.664, 449.619 455.348, 465.654 458.063 C 481.689 460.778, 495.301 463, 495.904 463 C 497.488 463, 497.268 460.401, 494.925 451.438 C 492.434 441.907, 481.002 407, 480.372 407 C 480.128 407, 466.331 405.192, 449.714 402.983 C 412.116 397.984, 401.446 397.110, 402.199 399.088" stroke="none" fill="#181818" fill-rule="evenodd"/><path d="M 0 31.500 L 0 63 47.250 63 L 94.500 62.999 94.500 31.500 L 94.500 -0 47.250 -0 L 0 0 0 31.500 M 98 2.730 C 98 4.232, 97.493 12.730, 96.873 21.615 C 96.221 30.967, 96.049 43.015, 96.465 50.225 L 97.183 62.681 129.604 63.342 C 147.438 63.706, 168.576 64.719, 176.587 65.594 C 184.597 66.468, 191.310 67.023, 191.506 66.827 C 191.702 66.631, 191.424 61.528, 190.888 55.486 C 190.230 48.055, 190.271 37.901, 191.017 24.110 C 191.624 12.895, 191.755 3.369, 191.310 2.939 C 189.958 1.637, 152.803 0, 124.586 0 L 98 0 98 2.730 M 203 0.705 C 204.925 0.916, 219.325 2.689, 235 4.644 C 250.675 6.600, 267.870 8.738, 273.211 9.396 L 282.922 10.593 283.961 5.747 C 284.532 3.082, 285 0.699, 285 0.451 C 285 0.203, 265.762 0.072, 242.250 0.160 C 218.738 0.248, 201.075 0.493, 203 0.705 M 286.579 5.117 C 286.206 7.931, 286.056 10.389, 286.245 10.579 C 286.909 11.242, 308.643 12.875, 325.842 13.553 C 335.380 13.929, 351.864 13.911, 362.475 13.514 L 381.766 12.790 382.883 7.228 C 383.497 4.169, 384 1.291, 384 0.833 C 384 0.375, 362.233 0, 335.629 0 L 287.258 0 286.579 5.117 M 387.534 1.250 C 387.312 1.938, 386.705 4.637, 386.186 7.250 L 385.242 12 391.371 11.986 C 397.215 11.972, 444.744 9.200, 476.337 7.030 C 484.497 6.470, 491.584 5.757, 492.087 5.447 C 492.589 5.136, 493 3.784, 493 2.441 L 493 0 440.469 0 C 399.325 0, 387.850 0.271, 387.534 1.250 M 495 3 C 495 5.533, 495.389 6, 497.500 6 C 499.611 6, 500 5.533, 500 3 C 500 0.467, 499.611 0, 497.500 0 C 495.389 0, 495 0.467, 495 3 M 194.676 9.169 C 192.690 29.564, 193.045 65.378, 195.255 67.588 C 195.509 67.843, 199.719 68.730, 204.609 69.560 C 216.042 71.500, 235.176 75.244, 256 79.615 C 265.075 81.520, 273.400 83.265, 274.500 83.492 C 276.431 83.892, 276.505 83.344, 276.630 67.703 C 276.724 56.052, 277.497 46.446, 279.380 33.507 C 280.821 23.611, 282 15.012, 282 14.398 C 282 13.735, 278.241 12.837, 272.750 12.189 C 267.663 11.588, 250.900 9.533, 235.500 7.622 C 220.100 5.712, 204.753 3.854, 201.396 3.493 L 195.293 2.838 194.676 9.169 M 480 9.660 C 477.525 9.831, 469.200 10.413, 461.500 10.952 C 453.800 11.491, 433.389 12.721, 416.142 13.685 L 384.785 15.436 383.834 17.937 C 380.597 26.450, 375.671 76.567, 377.395 83.438 L 378.087 86.194 385.293 85.502 C 394.461 84.621, 441.115 78.079, 468.603 73.820 L 489.706 70.550 490.379 47.525 C 490.749 34.861, 491.330 21.013, 491.670 16.750 L 492.288 9 488.394 9.175 C 486.252 9.271, 482.475 9.489, 480 9.660 M 494.652 14.250 C 494.307 17.138, 493.722 30.897, 493.351 44.826 L 492.677 70.151 496.339 69.464 C 499.323 68.904, 500 69.075, 500 70.389 C 500 71.388, 499.146 72.006, 497.750 72.015 C 492.551 72.051, 492.600 71.700, 493.860 100.154 C 494.501 114.644, 495.020 127.963, 495.013 129.750 C 495.002 132.553, 495.343 133, 497.500 133 C 498.875 133, 500.008 132.662, 500.017 132.250 C 500.618 105.369, 500.672 84.543, 500.226 50.750 L 499.674 9 497.477 9 C 495.571 9, 495.195 9.699, 494.652 14.250 M 284.989 14.121 C 284.983 14.330, 283.831 22.150, 282.429 31.500 C 279.260 52.628, 277.974 81.903, 280.135 83.697 C 280.911 84.341, 286.935 85.667, 293.523 86.645 C 306.766 88.609, 350.052 89.215, 366.225 87.662 L 374.951 86.825 374.372 81.162 C 373.486 72.510, 376.722 40.447, 380.613 19.306 L 381.201 16.113 352.851 16.702 C 327.054 17.238, 306.944 16.484, 289.750 14.336 C 287.137 14.009, 284.995 13.913, 284.989 14.121 M 1.317 94.250 C 1.825 119.311, 2.661 129.994, 4.235 131.568 C 4.503 131.837, 18.848 132.481, 36.112 133.001 C 53.375 133.520, 77.998 134.447, 90.829 135.060 C 103.660 135.674, 114.339 135.995, 114.560 135.773 C 114.782 135.552, 111.601 125.500, 107.491 113.435 C 102.371 98.405, 99.308 87.487, 97.760 78.752 L 95.500 66.003 48.122 66.002 L 0.743 66 1.317 94.250 M 98 67.735 C 98 70.627, 100.808 85.467, 102.591 92 C 104.057 97.373, 117.027 135.061, 117.715 135.948 C 118.052 136.383, 213.230 137.924, 213.771 137.502 C 213.920 137.386, 212.258 133.410, 210.077 128.668 C 201.775 110.612, 196.062 93.428, 193.628 79.187 C 192.847 74.615, 192.048 70.716, 191.854 70.524 C 190.297 68.982, 158.691 66.789, 130.750 66.283 C 98.238 65.695, 98 65.706, 98 67.735 M 195.445 73.250 C 195.710 74.487, 196.650 79.221, 197.533 83.768 C 199.605 94.436, 203.444 105.704, 211.079 123.526 L 217.222 137.865 223.361 138.395 C 226.737 138.686, 236.250 139.207, 244.500 139.552 C 252.750 139.896, 266.475 140.524, 275 140.947 C 283.525 141.369, 290.594 141.648, 290.709 141.566 C 290.823 141.483, 289.116 136.485, 286.914 130.458 C 281.769 116.372, 278.344 103.263, 277.456 94.251 C 276.798 87.568, 276.581 87.071, 274.126 86.588 C 272.682 86.304, 260.700 83.763, 247.500 80.942 C 222.998 75.706, 198.777 71, 196.327 71 C 195.435 71, 195.129 71.780, 195.445 73.250 M 483.500 74.087 C 480.750 74.562, 475.575 75.401, 472 75.953 C 468.425 76.504, 454.475 78.751, 441 80.944 C 427.525 83.138, 407.951 85.884, 397.503 87.046 C 387.055 88.209, 378.315 89.352, 378.080 89.586 C 376.557 91.110, 385.225 134.752, 388.143 140.253 C 388.960 141.792, 390.140 141.935, 397.787 141.422 C 406.273 140.852, 451.488 137.223, 479.365 134.873 L 493.229 133.704 492.587 127.102 C 492.116 122.270, 490.347 85.480, 490.021 73.750 C 490.009 73.338, 489.663 73.050, 489.250 73.112 C 488.837 73.173, 486.250 73.612, 483.500 74.087 M 280.526 92.750 C 281.783 101.954, 285.057 114.645, 289.645 128.102 L 294.282 141.703 320.188 142.410 C 334.436 142.799, 354.870 142.798, 365.596 142.408 C 382.890 141.779, 385.028 141.518, 384.479 140.100 C 382.586 135.213, 377.765 112.857, 376.371 102.500 C 375.483 95.900, 374.641 90.368, 374.501 90.206 C 374.360 90.044, 364.935 90.652, 353.555 91.556 C 331.201 93.331, 310.593 92.654, 291.500 89.515 C 278.997 87.459, 279.772 87.230, 280.526 92.750 M 0.236 167.036 L 0.500 199.500 3.375 199.828 L 6.250 200.157 5.606 186.328 C 4.690 166.645, 1.882 136.674, 0.848 135.536 C 0.345 134.983, 0.084 148.407, 0.236 167.036 M 4.444 137.250 C 5.681 143.019, 7.293 163.229, 7.867 180.167 C 8.215 190.434, 8.817 199.151, 9.204 199.538 C 9.591 199.925, 21.066 201.064, 34.704 202.071 C 48.342 203.077, 71.200 204.796, 85.500 205.891 C 99.800 206.986, 116.858 208.192, 123.406 208.571 L 135.311 209.259 134.637 202.005 C 133.304 187.661, 125.874 161.078, 118.602 144.635 L 116.230 139.271 104.365 138.606 C 72.665 136.832, 28.172 135.001, 16.731 135 C 4.013 135, 3.964 135.009, 4.444 137.250 M 487 136.694 C 484.525 136.874, 473.050 137.909, 461.500 138.996 C 428.108 142.137, 404.064 144, 396.933 144 C 393.303 144, 390.105 144.229, 389.825 144.508 C 389.546 144.788, 390.383 148.950, 391.686 153.758 C 394.909 165.656, 398 183.935, 398 191.099 L 398 197 447.116 197 L 496.232 197 495.506 177.250 C 494.417 147.632, 493.609 136.676, 492.500 136.514 C 491.950 136.434, 489.475 136.515, 487 136.694 M 496.362 146.750 C 496.728 152.662, 497.317 166.387, 497.672 177.250 C 498.027 188.113, 498.696 197, 499.159 197 C 499.621 197, 500 183.275, 500 166.500 L 500 136 497.848 136 C 495.738 136, 495.709 136.207, 496.362 146.750 M 119 140.135 C 119 140.598, 120.526 144.694, 122.392 149.238 C 130.523 169.041, 136.988 193.574, 136.997 204.654 L 137 208.808 147.750 209.631 C 161.592 210.691, 224.022 210.717, 230.301 209.666 L 235.102 208.862 234.499 204.181 C 232.090 185.464, 229.855 177.287, 220.999 154.776 L 215.650 141.181 203.575 140.610 C 182.526 139.615, 119 139.258, 119 140.135 M 219.300 142.239 C 231.177 170.890, 234.631 181.722, 236.126 195 C 237.818 210.037, 237.493 209.260, 241.789 208.548 C 243.830 208.210, 250.675 207.315, 257 206.560 C 270 205.007, 298.276 201.115, 301.875 200.382 C 304.245 199.900, 304.249 199.874, 303.538 189.851 C 302.540 175.766, 296.686 152.748, 292.463 146.303 C 291.090 144.208, 290.211 144, 282.727 143.998 C 278.202 143.997, 267.300 143.573, 258.500 143.054 C 223.706 141.005, 218.746 140.901, 219.300 142.239 M 296.524 146.818 C 301.446 158.886, 305.705 176.338, 306.957 189.573 C 307.458 194.869, 308.010 199.298, 308.184 199.417 C 308.358 199.535, 312.100 199.291, 316.500 198.876 C 320.900 198.460, 340.536 197.801, 360.135 197.412 L 395.770 196.704 395.341 192.602 C 393.617 176.097, 391.310 163.702, 387.475 150.333 L 385.992 145.165 340.915 145.150 C 299.069 145.137, 295.887 145.256, 296.524 146.818 M 324.004 201.193 C 316.031 201.688, 309.217 202.409, 308.862 202.796 C 308.508 203.183, 307.708 212.500, 307.085 223.500 C 306.462 234.500, 305.289 248.414, 304.480 254.421 C 303.671 260.427, 303.185 265.518, 303.401 265.734 C 303.617 265.950, 324.248 265.805, 349.248 265.411 L 394.703 264.696 395.348 250.598 C 395.702 242.844, 395.994 228.287, 395.996 218.250 L 396 200 367.250 200.146 C 351.438 200.227, 331.977 200.697, 324.004 201.193 M 398.997 212.750 C 398.996 219.762, 398.701 234.560, 398.342 245.634 L 397.690 265.767 420.595 266.407 C 433.193 266.759, 453.142 267.482, 464.926 268.014 C 476.711 268.546, 486.571 268.763, 486.837 268.496 C 488.727 266.607, 494.563 228.688, 495.572 211.750 L 496.272 200 447.636 200 L 399 200 398.997 212.750 M 497.601 210.211 C 496.612 225.584, 495.190 236.849, 492.139 253.500 L 489.390 268.500 494.695 269.364 C 501.752 270.512, 501.447 272, 494.154 272 L 488.308 272 484.660 290.750 C 481.111 308.993, 478.861 323.094, 477.495 335.651 L 476.826 341.803 479.663 342.343 C 481.223 342.639, 486.438 343.174, 491.250 343.531 C 498.068 344.036, 500 344.510, 500 345.678 C 500 346.841, 499.162 347.052, 496.250 346.620 C 494.188 346.315, 489.042 345.775, 484.816 345.421 L 477.132 344.777 476.434 348.501 C 475.190 355.133, 476.729 380.854, 478.947 390.500 C 482.702 406.833, 481.779 405.662, 491.540 406.475 C 496.275 406.869, 500 407.637, 500 408.219 C 500 408.911, 497.293 409.022, 491.908 408.552 C 484.373 407.895, 483.852 407.972, 484.334 409.673 C 484.619 410.678, 487.352 419.600, 490.406 429.500 C 493.461 439.400, 496.849 451.267, 497.935 455.872 C 499.021 460.476, 500.116 464.449, 500.368 464.701 C 500.620 464.953, 500.753 405.649, 500.663 332.913 C 500.544 236.435, 500.198 200.566, 499.382 200.294 C 498.632 200.044, 498.045 203.318, 497.601 210.211 M 1.136 234.183 C 1.266 265.084, 1.328 266.084, 2.557 257 C 3.978 246.506, 6.661 204.304, 5.949 203.657 C 5.702 203.432, 4.488 202.937, 3.250 202.557 L 1 201.865 1.136 234.183 M 8.648 208.250 C 8.301 211.137, 8.009 217.550, 7.998 222.500 C 7.980 230.809, 6.036 252.718, 4.426 262.750 L 3.744 267 15.411 267 C 21.827 267, 37.972 267.425, 51.289 267.945 C 64.605 268.464, 84.781 269.157, 96.125 269.485 L 116.751 270.081 118.656 266.291 C 119.704 264.206, 122.655 258.675, 125.214 254 C 131.597 242.337, 134.880 232.002, 135.651 221.135 L 136.288 212.166 131.894 211.592 C 129.477 211.277, 118.950 210.555, 108.500 209.988 C 83.234 208.618, 48.436 206.247, 27.500 204.469 C 18.150 203.675, 10.225 203.020, 9.889 203.013 C 9.553 203.006, 8.995 205.363, 8.648 208.250 M 294.500 204.124 C 290.650 204.604, 281.875 205.872, 275 206.944 C 268.125 208.016, 258 209.379, 252.500 209.974 C 237.033 211.646, 238.394 210.708, 237.608 220.233 C 236.460 234.158, 233.920 241.639, 224.696 258.277 C 221.409 264.204, 218.916 269.249, 219.155 269.488 C 219.393 269.726, 229.244 269.498, 241.044 268.980 C 252.845 268.461, 270.754 267.731, 280.843 267.357 C 292.625 266.921, 299.310 266.288, 299.531 265.589 C 300.316 263.108, 303.046 231.443, 303.655 217.750 C 304.204 205.405, 304.081 203.021, 302.905 203.126 C 302.132 203.196, 298.350 203.645, 294.500 204.124 M 137.696 221.660 C 137.357 227.072, 136.337 233.968, 135.431 236.984 C 133.785 242.462, 126.333 257.862, 121.588 265.590 L 119.077 269.681 145.143 270.333 C 159.479 270.691, 181.269 270.692, 193.565 270.334 L 215.922 269.683 221.896 259.092 C 232.050 241.091, 234.948 232.134, 234.983 218.657 L 235 211.813 225.250 212.596 C 213.232 213.560, 176.018 213.538, 154.407 212.553 L 138.313 211.820 137.696 221.660 M 309.546 268.927 L 302.591 269.500 300.830 282.322 C 298.741 297.541, 297.025 316.304, 297.010 324.092 L 297 329.684 315.160 330.342 C 325.148 330.704, 341.011 331.040, 350.410 331.090 C 359.810 331.139, 372.900 331.498, 379.500 331.889 C 386.100 332.279, 391.557 332.576, 391.627 332.549 C 391.697 332.522, 392.271 319.900, 392.902 304.500 C 393.534 289.100, 394.292 274.587, 394.587 272.250 L 395.123 268 355.811 268.177 C 334.190 268.274, 313.370 268.611, 309.546 268.927 M 397.997 269.750 C 397.995 270.712, 397.575 276.450, 397.063 282.500 C 396.551 288.550, 395.871 302.351, 395.551 313.169 L 394.969 332.838 401.735 333.514 C 405.456 333.886, 423.125 335.889, 441 337.965 C 458.875 340.041, 473.578 341.683, 473.673 341.614 C 473.768 341.545, 474.591 335.641, 475.502 328.494 C 476.413 321.347, 479.154 305.868, 481.591 294.095 C 484.029 282.323, 485.828 272.495, 485.589 272.256 C 485.082 271.749, 479.992 271.444, 438.977 269.470 C 398.949 267.542, 398.001 267.549, 397.997 269.750 M 3.435 270.410 C 2.075 274.318, 1 291.450, 1 309.205 L 1 329.962 5.250 329.514 C 7.588 329.267, 24.575 328.578, 43 327.981 C 61.425 327.385, 79.172 326.808, 82.438 326.699 L 88.376 326.500 91.517 317.500 C 95.078 307.296, 100.440 296.578, 108.482 283.584 C 111.517 278.681, 114 274.356, 114 273.974 C 114 272.844, 104.374 272.018, 91.106 272.009 C 84.289 272.004, 66.514 271.553, 51.606 271.006 C 3.823 269.254, 3.837 269.255, 3.435 270.410 M 294 269.580 C 292.625 269.734, 278.225 270.357, 262 270.964 C 245.775 271.571, 228.844 272.313, 224.375 272.613 L 216.251 273.159 208.204 287.829 C 203.778 295.898, 199.043 305.200, 197.682 308.500 C 195.384 314.068, 192 324.506, 192 326.022 C 192 326.384, 202.912 326.978, 216.250 327.341 C 229.588 327.704, 252.164 328.449, 266.420 328.997 C 280.677 329.544, 292.446 329.882, 292.575 329.746 C 292.704 329.611, 293.329 322.750, 293.965 314.500 C 294.600 306.250, 295.993 293.027, 297.060 285.115 C 299.358 268.078, 299.320 268.962, 297.750 269.150 C 297.063 269.232, 295.375 269.426, 294 269.580 M 109.067 287.502 C 100.678 302.177, 96.352 311.502, 93.645 320.750 L 92.108 326 140.936 326 L 189.764 326 192.480 317.289 C 195.068 308.988, 202.875 292.559, 210.481 279.409 L 214.004 273.318 165.629 273.250 L 117.254 273.182 109.067 287.502 M 64.500 330.041 C 54.050 330.421, 35.488 331.088, 23.250 331.523 L 1 332.315 1.037 357.408 C 1.070 380.306, 2.246 394.579, 4.264 396.598 C 4.580 396.913, 15.562 396.695, 28.669 396.112 C 41.776 395.530, 60.960 394.756, 71.300 394.392 L 90.100 393.730 89.584 391.115 C 89.300 389.677, 88.322 382.442, 87.411 375.037 C 85.803 361.977, 85.891 340.910, 87.590 332.250 C 88.170 329.291, 88.016 329.016, 85.863 329.176 C 84.564 329.273, 74.950 329.662, 64.500 330.041 M 91.655 329.750 C 88.727 334.497, 88.279 362.075, 90.826 380.824 L 92.500 393.148 141.452 393.038 C 168.376 392.978, 190.506 392.827, 190.630 392.703 C 190.754 392.579, 189.951 386.183, 188.846 378.489 C 187.249 367.373, 186.947 361.419, 187.376 349.500 C 187.673 341.250, 188.212 333.262, 188.575 331.750 L 189.233 329 140.676 329 C 113.969 329, 91.910 329.337, 91.655 329.750 M 190.536 331.289 C 190.164 332.505, 189.608 340.045, 189.301 348.043 C 188.797 361.136, 190.226 379.885, 192.556 390.750 L 193.038 393 246.019 393 C 275.159 393, 299 392.825, 299 392.610 C 299 392.396, 298.125 387.966, 297.055 382.766 C 294.844 372.020, 293.026 353.396, 293.010 341.335 L 293 333.171 285.750 332.619 C 281.762 332.315, 262.300 331.595, 242.500 331.018 C 222.700 330.440, 203.060 329.768, 198.856 329.523 C 191.653 329.105, 191.174 329.206, 190.536 331.289 M 297.020 345.733 C 297.041 359.597, 297.865 367.033, 301.110 382.652 L 303.220 392.805 350.360 393.190 C 376.287 393.401, 397.627 393.506, 397.782 393.422 C 397.938 393.338, 397.143 389.132, 396.017 384.076 C 393.792 374.089, 392.041 356.265, 392.016 343.356 L 392 335.213 375.750 334.634 C 366.813 334.316, 345.438 333.811, 328.250 333.511 L 297 332.966 297.020 345.733 M 395.001 345.106 C 395.002 357.852, 396.679 374.607, 399.032 385.390 C 400.103 390.298, 401.097 394.420, 401.240 394.551 C 401.383 394.682, 408.250 395.522, 416.500 396.418 C 424.750 397.314, 436.900 398.930, 443.500 400.008 C 458.328 402.431, 479.144 405.200, 479.504 404.798 C 479.651 404.634, 478.715 400.337, 477.423 395.250 C 473.981 381.693, 472.712 370.167, 473.189 356.796 C 473.593 345.466, 473.520 344.922, 471.556 344.522 C 468.613 343.922, 410.903 337.122, 402.250 336.355 L 395 335.713 395.001 345.106 M 93.022 397.750 C 93.034 398.712, 93.677 404, 94.451 409.500 C 98.268 436.620, 99.886 449.216, 100.517 456.750 L 101.208 465 118.854 464.987 C 138.531 464.972, 184.565 463.386, 192.887 462.437 L 198.274 461.822 197.741 454.161 C 197.211 446.549, 192.216 402.553, 191.392 398.250 L 190.962 396 141.981 396 C 95.991 396, 93.001 396.107, 93.022 397.750 M 193.599 399.750 C 193.824 401.813, 195.114 412.500, 196.465 423.500 C 197.816 434.500, 199.231 447.696, 199.610 452.823 L 200.298 462.147 204.899 461.597 C 207.430 461.295, 212.425 460.802, 216 460.502 C 219.575 460.203, 236.061 458.620, 252.635 456.985 C 269.209 455.350, 289.443 453.539, 297.598 452.960 C 305.754 452.380, 312.543 451.790, 312.685 451.649 C 313.215 451.118, 306.983 422.194, 304.681 414.500 C 303.365 410.100, 301.728 404.137, 301.044 401.250 L 299.801 396 246.495 396 L 193.190 396 193.599 399.750 M 304.334 397.658 C 306.751 406.097, 310.470 421.207, 313.524 435 C 315.534 444.075, 317.251 451.568, 317.339 451.650 C 317.428 451.733, 321.100 451.390, 325.500 450.889 C 338.551 449.402, 389.357 448.697, 401.989 449.828 C 408.307 450.393, 413.671 450.662, 413.908 450.425 C 415.293 449.040, 401.552 400.152, 399.083 397.683 C 398.217 396.816, 385.330 396.409, 350.854 396.158 C 305.537 395.828, 303.826 395.883, 304.334 397.658 M 45 398.111 C 33.175 398.554, 19.293 399.206, 14.152 399.559 L 4.803 400.201 5.463 404.602 C 5.826 407.023, 8.058 416.990, 10.424 426.751 C 12.789 436.513, 15.538 449, 16.531 454.500 C 17.525 460, 18.656 464.872, 19.045 465.326 C 19.433 465.780, 37.417 465.824, 59.008 465.423 L 98.265 464.695 97.570 454.598 C 96.882 444.606, 91.377 400.662, 90.511 398.250 C 90.001 396.828, 80.014 396.798, 45 398.111 M 402.199 399.088 C 405.291 407.221, 412.597 431.382, 414.472 439.679 C 415.778 445.454, 417.046 450.380, 417.292 450.625 C 417.538 450.871, 421.960 451.534, 427.119 452.099 C 432.279 452.664, 449.619 455.348, 465.654 458.063 C 481.689 460.778, 495.301 463, 495.904 463 C 497.488 463, 497.268 460.401, 494.925 451.438 C 492.434 441.907, 481.002 407, 480.372 407 C 480.128 407, 466.331 405.192, 449.714 402.983 C 412.116 397.984, 401.446 397.110, 402.199 399.088 M 1.107 433.750 L 1 466 8 466 C 12.939 466, 15 465.631, 15 464.748 C 15 462.168, 10.992 442.936, 7.133 427 C 4.936 417.925, 2.705 408.475, 2.176 406 C 1.480 402.744, 1.185 410.417, 1.107 433.750 M 331.500 453.446 C 323.800 454.161, 317.469 454.803, 317.431 454.873 C 317.393 454.943, 317.767 458.262, 318.262 462.250 C 318.757 466.238, 318.993 476.363, 318.786 484.750 L 318.410 500 367.615 500 L 416.820 500 417.542 491.338 C 418.663 477.876, 416.707 456.307, 414.130 453.730 C 412.441 452.041, 348.983 451.822, 331.500 453.446 M 418.163 459.250 C 419.178 465.412, 419.375 493.659, 418.429 497.427 L 417.778 500.022 459.139 499.761 L 500.500 499.500 500.632 483.500 C 500.708 474.291, 500.445 468.985, 500.013 471 C 499.266 474.488, 499.263 474.489, 499.116 471.500 C 498.904 467.175, 498.036 466.329, 493 465.540 C 490.525 465.152, 481.075 463.531, 472 461.936 C 462.925 460.342, 452.125 458.564, 448 457.984 C 437.720 456.539, 418.633 454.018, 417.899 454.008 C 417.569 454.004, 417.688 456.363, 418.163 459.250 M 307 455.585 C 305.625 455.761, 295.725 456.616, 285 457.484 C 244.824 460.736, 201.965 464.702, 201.451 465.215 C 201.245 465.422, 201.354 473.336, 201.694 482.804 L 202.313 500.017 258.406 499.758 L 314.500 499.500 314.760 483.500 C 314.902 474.700, 314.677 464.800, 314.259 461.500 C 313.449 455.112, 313.076 454.808, 307 455.585 M 181 466.047 C 174.675 466.444, 154.067 467.118, 135.204 467.544 C 109.465 468.126, 101.022 468.615, 101.363 469.503 C 101.613 470.154, 102.144 477.282, 102.543 485.343 L 103.269 500 151.634 500 L 200 500 199.994 490.750 C 199.991 485.663, 199.699 477.788, 199.346 473.250 L 198.704 465 195.602 465.162 C 193.896 465.251, 187.325 465.649, 181 466.047 M 27.144 468.746 C 19.073 469.073, 18.810 469.159, 19.409 471.292 C 19.751 472.506, 20.317 479.462, 20.669 486.750 L 21.308 500 60.654 500 L 100 500 99.994 492.250 C 99.991 487.988, 99.699 480.788, 99.346 476.250 L 98.704 468 67.102 468.204 C 49.721 468.315, 31.740 468.559, 27.144 468.746 M 1 484.500 L 1 500 9.651 500 L 18.302 500 17.649 487.250 C 16.660 467.945, 17.196 469, 8.383 469 L 1 469 1 484.500" stroke="none" fill="#fafafa" fill-rule="evenodd"/></svg>
