<svg xmlns="http://www.w3.org/2000/svg" width="500" height="500" viewBox="0 0 500 500" version="1.1"><path d="M 275.500 10.092 C 265.600 10.564, 239.500 11.889, 217.500 13.035 C 195.500 14.180, 158.827 15.526, 136.004 16.025 C 95.590 16.908, 94.259 16.876, 85.004 14.805 C 76.475 12.897, 72.218 12.666, 43.500 12.560 C 25.900 12.494, 10.487 12.615, 9.250 12.829 C 6.747 13.261, 6.146 15, 8.500 15 C 9.325 15, 10.086 15.113, 10.192 15.250 C 10.298 15.387, 10.769 54.200, 11.240 101.500 C 11.710 148.800, 12.183 194.025, 12.291 202 C 12.420 211.610, 11.891 220.556, 10.721 228.526 C 9.126 239.401, 8.923 252.476, 8.604 365.224 C 8.251 489.896, 8.251 489.896, 10.876 490.448 C 34.542 495.425, 74.027 497.403, 93.784 494.601 C 110.489 492.231, 249.488 492.309, 261.500 494.695 C 268.436 496.072, 284.099 496.337, 379.250 496.683 C 481.065 497.054, 489 496.962, 489 495.420 C 489 494.506, 490.356 487.991, 492.013 480.944 C 495.026 468.130, 495.026 468.130, 495.061 412.315 C 495.085 374.539, 495.474 354.238, 496.265 349.500 C 498.721 334.792, 497.232 235.457, 494.278 217 C 493.020 209.136, 492.675 190.653, 492.278 109.675 C 491.798 11.849, 491.798 11.849, 453.149 12.675 C 401.320 13.781, 394.809 13.634, 378.500 10.981 C 364.830 8.758, 363.930 8.735, 340.349 9.998 C 319.614 11.108, 307.610 10.986, 296.021 9.545 C 294.635 9.373, 285.400 9.619, 275.500 10.092 M 338.500 22.119 C 333.550 22.573, 317.350 22.669, 302.500 22.332 C 275.500 21.720, 275.500 21.720, 280.775 25.903 C 291.687 34.556, 296.787 46.156, 295.641 59.713 C 294.167 77.162, 282.894 100.416, 268.328 116.060 C 264.082 120.620, 264.082 120.620, 270.980 118.306 C 276.972 116.297, 280.161 115.960, 295.241 115.746 C 312.604 115.500, 312.604 115.500, 320.300 119.304 C 328.953 123.580, 339.616 133.367, 343.133 140.261 C 347.140 148.115, 349.110 160.972, 349.707 183.167 C 350.210 201.835, 350.471 204.205, 352.407 207.667 C 355.233 212.720, 359.605 213.604, 360.549 209.313 C 360.889 207.766, 361.434 205.825, 361.761 205 C 362.087 204.175, 362.677 183.475, 363.072 159 C 363.638 123.910, 364.121 113.125, 365.360 108 C 366.223 104.425, 366.951 99.700, 366.978 97.500 C 367.231 76.565, 383.087 46.221, 399.841 34.610 C 401.993 33.119, 407.188 30.406, 411.386 28.581 C 419.017 25.263, 419.017 25.263, 407.759 25.739 C 398.663 26.123, 393.506 25.713, 380.917 23.607 C 364.760 20.904, 355.359 20.574, 338.500 22.119 M 32.250 24.673 C 23 25.075, 23 25.075, 23 82.561 C 23 140.046, 23 140.046, 25.654 138.307 C 28.915 136.170, 37.051 136.126, 42 138.218 C 47.066 140.359, 51.328 144.256, 59.770 154.464 C 72.790 170.209, 78.203 172.953, 93.671 171.645 C 107.013 170.517, 109.340 167.590, 106.530 155.474 C 102.810 139.432, 96.453 132.706, 76.709 123.924 C 44.637 109.657, 37.996 102.961, 39.318 86.223 C 40.332 73.384, 44.082 63.133, 51.776 52.167 C 57.047 44.655, 64.284 39.129, 76.820 33.044 C 81.869 30.594, 86 28.286, 86 27.916 C 86 25.739, 53.210 23.761, 32.250 24.673 M 451 24.776 C 439.941 25.111, 439.647 25.176, 443.324 26.470 C 451.855 29.471, 463.200 37.453, 471.622 46.379 C 480 55.259, 480 55.259, 480 39.629 C 480 22.073, 483.361 23.795, 451 24.776 M 187 26.552 C 174.075 27.253, 156.799 27.865, 148.609 27.913 C 133.718 28, 133.718 28, 138.407 32.127 C 140.985 34.396, 144.198 38.431, 145.547 41.093 C 147.702 45.346, 148 47.249, 148 56.774 C 148 63.319, 147.208 71.927, 146 78.500 C 143.276 93.327, 143.379 105.811, 146.284 113 C 148.507 118.500, 148.507 118.500, 153.504 118.820 C 161.071 119.306, 166.673 118.146, 169.908 115.424 C 173.813 112.138, 181.331 94.187, 185.566 78.037 C 191.340 56.018, 198.040 42.822, 209.069 31.750 C 215.204 25.591, 215.561 25.012, 213.147 25.139 C 211.691 25.216, 199.925 25.851, 187 26.552 M 246.597 131.098 C 243.901 132.192, 234.676 134.907, 226.097 137.133 C 217.519 139.358, 207.245 142.680, 203.267 144.516 C 194.390 148.613, 185.964 156.330, 182.388 163.639 C 180.155 168.204, 179.829 169.979, 180.189 175.632 C 180.527 180.938, 181.050 182.622, 182.799 184.038 C 185.084 185.888, 204.755 192.382, 218.500 195.824 C 222.900 196.926, 227.400 198.110, 228.500 198.455 C 230.412 199.056, 230.508 198.587, 230.681 187.792 C 230.834 178.265, 231.424 174.468, 234.456 163.500 C 238.647 148.334, 241.618 141.774, 247.648 134.371 C 250.054 131.417, 251.905 129.025, 251.762 129.055 C 251.618 129.085, 249.294 130.004, 246.597 131.098 M 137.500 144.207 C 129.356 147.053, 123.904 154.914, 122.479 165.865 C 121.755 171.426, 123.705 185.569, 126.594 195.712 C 128.764 203.332, 136.161 211.040, 145.709 215.633 C 152.304 218.805, 153.878 219.177, 159.105 218.799 C 165.720 218.320, 169.929 215.898, 171.421 211.711 C 172.019 210.032, 171.891 206.211, 171.057 200.813 C 170.038 194.225, 170.020 190.873, 170.967 184.662 C 173.567 167.627, 168.509 155.176, 155.595 146.820 C 149.279 142.734, 143.925 141.961, 137.500 144.207 M 476.352 187.132 C 472.190 192.909, 460.321 204.456, 451 211.797 C 440.239 220.273, 433.364 227.998, 429.793 235.629 C 425.955 243.830, 425.960 248.463, 429.812 255.420 C 432.142 259.627, 433.716 261.058, 438.968 263.750 C 444.416 266.542, 446.341 267, 452.621 267 C 459.081 267, 460.664 266.597, 466.233 263.536 C 470.283 261.310, 474.583 259.831, 478.267 259.398 C 484 258.725, 484 258.725, 483.999 243.112 C 483.998 233.705, 483.402 224.122, 482.500 219 C 481.677 214.325, 480.949 205.550, 480.883 199.500 C 480.817 193.450, 480.479 187.209, 480.132 185.632 C 479.500 182.763, 479.500 182.763, 476.352 187.132 M 100.500 211.347 C 93.624 213.588, 92.128 214.850, 85.131 224.301 C 72.220 241.742, 67.469 244.943, 54.432 244.978 C 39.904 245.018, 30.377 240.410, 25.738 231.102 C 23.674 226.960, 23.052 226.342, 22.376 227.760 C 21.919 228.717, 21.428 247.725, 21.285 270 C 21.026 310.500, 21.026 310.500, 24.983 301 C 31.334 285.751, 34.068 281.173, 41.674 273.047 C 53.213 260.719, 70.067 249.649, 87 243.276 C 95.680 240.009, 112.322 231.406, 114.397 229.113 C 118.384 224.708, 118.043 217.268, 113.665 213.155 C 110.677 210.348, 105.673 209.660, 100.500 211.347 M 255.742 234.795 C 256.132 242.181, 255.976 242.852, 251.990 251 C 246.744 261.721, 242.260 267.211, 236.458 270.020 C 233.949 271.235, 232.089 272.423, 232.326 272.659 C 236.131 276.464, 251.732 288.587, 255.500 290.667 C 259.746 293.010, 261.940 293.486, 270.049 293.821 C 286.911 294.519, 301.848 290.668, 309.210 283.726 C 315.301 277.981, 313.718 270.336, 304.578 261.360 C 299.800 256.667, 268.862 235.062, 256.418 227.727 C 255.667 227.285, 255.460 229.445, 255.742 234.795 M 160.500 237.206 C 158.850 237.783, 156.437 239.210, 155.139 240.377 C 152.862 242.424, 152.801 242.857, 153.427 252.500 C 154.741 272.726, 157.486 285.229, 163.835 299.906 C 167.470 308.311, 167.470 308.311, 168.705 300.938 C 170.426 290.661, 174.917 282.146, 183.239 273.385 C 191.039 265.174, 193.587 264.021, 204 263.994 C 210.500 263.978, 210.500 263.978, 207.286 261.445 C 205.519 260.052, 201.335 255.119, 197.989 250.484 C 192.641 243.076, 191.137 241.690, 185.559 239.028 C 180.085 236.416, 178.135 236.011, 171.357 236.079 C 167.036 236.122, 162.150 236.630, 160.500 237.206 M 354.330 248.423 C 353.137 249.291, 351.391 252.363, 350.450 255.251 C 349.509 258.138, 346.359 266.350, 343.449 273.500 C 336.267 291.151, 334.378 300.717, 335.910 311.675 C 337.097 320.157, 340.810 332.648, 344.053 339.068 C 348.734 348.336, 359.849 353.820, 371.394 352.559 C 382.256 351.372, 384.937 350.224, 390.982 344.168 C 394.094 341.050, 398.917 334.675, 401.698 330 C 404.480 325.325, 408.419 318.800, 410.452 315.500 C 415.620 307.109, 415.201 304.760, 404.867 284.161 C 395.052 264.596, 391.161 260.079, 377.702 252.631 C 370.529 248.661, 367.760 247.677, 362.702 247.304 C 358.072 246.961, 355.950 247.245, 354.330 248.423 M 175.214 333.077 C 175.539 333.945, 176.861 339.570, 178.152 345.577 C 180.207 355.139, 180.481 358.930, 180.344 376 C 180.205 393.427, 179.917 396.519, 177.639 405.089 C 174.437 417.137, 166.970 436.563, 162.397 444.747 C 158.445 451.818, 145.977 468.232, 139.391 475.034 C 136.976 477.528, 135 479.891, 135 480.284 C 135 480.678, 149.287 480.962, 166.750 480.916 C 198.500 480.831, 198.500 480.831, 194 478.783 C 187.889 476.001, 182.583 471.674, 179.808 467.212 C 177.664 463.763, 177.505 462.471, 177.569 449 C 177.632 435.716, 177.864 433.920, 180.336 427.586 C 184.092 417.961, 192.644 405.521, 200.787 397.839 C 216.638 382.886, 236.736 374.037, 265.119 369.513 C 290.167 365.520, 293.332 364.872, 297.060 362.969 C 301 360.959, 301 360.959, 301 353.513 C 301 346.393, 300.853 345.919, 297.634 342.701 C 292.857 337.923, 286.892 336.478, 272.500 336.610 C 259.929 336.726, 250.004 338.712, 233.154 344.484 C 227.101 346.557, 223.927 347, 215.114 347 C 198.897 347, 190.300 344.159, 179.061 335.084 C 176.620 333.113, 174.888 332.210, 175.214 333.077 M 424.190 369.329 C 421.092 371.080, 418.015 375.913, 418.007 379.040 C 417.985 387.285, 425.507 405.771, 435.282 421.500 C 446.706 439.882, 448.893 445.057, 449.929 456.153 C 451.025 467.889, 450.116 472.670, 445.444 479.750 C 441.980 485, 441.980 485, 460.253 485 C 478.527 485, 478.527 485, 479.860 479.750 C 482.637 468.810, 482.914 466.035, 482.956 448.750 C 483 431, 483 431, 477.450 431 C 471.264 431, 467.779 429.549, 463.851 425.339 C 460.811 422.081, 449.629 400.006, 445.549 389.208 C 439.674 373.663, 430.927 365.521, 424.190 369.329 M 339.322 388.882 C 333.828 392.861, 328.899 399.905, 323.437 411.582 C 312.249 435.498, 308.578 442.143, 300.833 452.500 C 290.926 465.747, 281.420 475.526, 273.995 480.109 C 268.500 483.500, 268.500 483.500, 275 484.133 C 278.575 484.481, 296.997 484.819, 315.937 484.883 C 350.374 485, 350.374 485, 347.751 482.250 C 343.948 478.264, 343 474.911, 343 465.452 C 343 458.427, 343.584 455.334, 346.526 446.767 C 348.465 441.120, 352.290 431.757, 355.026 425.961 C 359.696 416.066, 360 414.934, 359.994 407.461 C 359.988 397.896, 358.780 393.080, 355.373 389.031 C 351.796 384.781, 345.070 384.718, 339.322 388.882 M 21.028 441.750 C 21.013 462.788, 21.337 480.014, 21.750 480.032 C 22.163 480.049, 27 480.742, 32.500 481.571 C 43.957 483.298, 77.814 484.633, 83.435 483.578 C 87.205 482.871, 87.205 482.871, 79.853 479.139 C 67.783 473.013, 53.777 463.959, 49.344 459.418 C 43.159 453.082, 34.669 436.747, 23.922 410.500 C 21.056 403.500, 21.056 403.500, 21.028 441.750" stroke="none" fill="#eadcec" fill-rule="evenodd"/></svg>
