<svg xmlns="http://www.w3.org/2000/svg" width="500" height="500" viewBox="0 0 500 500" version="1.1"><path d="M 269 10.066 C 259.375 10.546, 228.775 12.070, 201 13.452 C 173.225 14.834, 142.625 15.954, 133 15.941 C 123.375 15.927, 111 16.202, 105.500 16.550 C 97.101 17.083, 93.819 16.811, 85 14.851 C 75.322 12.701, 72.229 12.518, 45.500 12.525 C 29.550 12.529, 15.232 12.878, 13.681 13.302 L 10.862 14.073 11.431 100.286 C 11.743 147.704, 12.255 191.417, 12.567 197.426 C 12.966 205.086, 12.671 211.081, 11.580 217.478 C 8.757 234.043, 7.795 255.090, 8.519 284.500 C 8.899 299.900, 9.609 312.993, 10.099 313.596 C 10.621 314.238, 10.610 317.763, 10.073 322.096 C 9.569 326.168, 8.832 364.238, 8.436 406.695 L 7.717 483.891 10.108 484.466 C 29.282 489.075, 72.942 491.286, 91.960 488.612 C 108.754 486.250, 246.391 486.301, 258.500 488.673 C 265.371 490.019, 281.782 490.303, 374.750 490.681 C 478.712 491.103, 483.001 491.049, 483.018 489.310 C 483.028 488.315, 484.370 482.100, 486 475.500 L 488.964 463.500 488.982 407.434 C 488.995 368.356, 489.358 349.569, 490.183 345.434 C 491.379 339.435, 491.792 303.063, 491.215 254.546 C 490.999 236.379, 490.425 227.320, 488.839 217.046 C 486.843 204.118, 486.735 199.146, 486.474 108 L 486.200 12.500 436.850 12.855 C 389.406 13.196, 387.017 13.124, 375 10.985 C 363.522 8.943, 360.987 8.832, 344 9.626 C 321.883 10.661, 305.375 10.735, 294.500 9.847 C 290.100 9.488, 278.625 9.587, 269 10.066 M 276.255 21.660 L 273.010 22.126 277.226 25.342 C 300.644 43.204, 296.165 76.821, 265.286 114.939 C 262.930 117.849, 262.808 118.259, 264.500 117.603 C 271.285 114.972, 281.323 113.868, 295.500 114.195 C 310.263 114.535, 310.602 114.593, 316.964 117.893 C 324.287 121.690, 335.004 131.460, 338.636 137.648 C 342.615 144.428, 344.939 158.962, 345.647 181.500 C 346.169 198.098, 346.590 202.126, 348.124 205.182 C 349.140 207.207, 350.432 209.149, 350.995 209.497 C 352.727 210.568, 355.745 209.050, 356.523 206.717 C 356.929 205.498, 357.590 185.150, 357.990 161.500 C 358.533 129.441, 359.116 116.337, 360.281 110 C 361.140 105.325, 362.380 97.225, 363.036 92 C 364.587 79.632, 367.171 71.403, 372.700 61.219 C 382.102 43.901, 390.208 35.662, 404.500 28.899 L 412.500 25.113 398.965 25.057 C 389.658 25.018, 381.847 24.337, 373.965 22.879 C 363.583 20.959, 360.800 20.838, 344.500 21.607 C 322.575 22.640, 307.343 22.709, 291.500 21.847 C 284.900 21.487, 278.040 21.403, 276.255 21.660 M 27.750 24.735 L 23 25.110 23 81.611 L 23 138.113 25.223 136.557 C 28.297 134.403, 37.487 134.578, 42.500 136.885 C 46.362 138.663, 52.187 144.384, 64.218 158.215 C 71.389 166.460, 77.950 170, 86.060 170 C 93.741 170, 101.971 168.336, 104.180 166.337 C 107.465 163.365, 105.955 151.684, 101.046 142.082 C 96.888 133.948, 90.571 128.975, 76.904 123.076 C 53.122 112.812, 41.008 103.887, 39.428 95.469 C 38.129 88.541, 39.649 74.718, 42.493 67.610 C 49.348 50.475, 56.806 42.402, 73.935 33.574 C 82.986 28.911, 84.963 27.530, 83.415 26.958 C 77.217 24.665, 44.969 23.377, 27.750 24.735 M 443.500 24.927 C 436.740 25.480, 436.610 25.540, 439.694 26.678 C 446.669 29.252, 459.213 38.416, 466.507 46.267 L 474 54.333 474 39.166 L 474 24 462.250 24.177 C 455.788 24.274, 447.350 24.611, 443.500 24.927 M 175.500 26.679 C 161.750 27.443, 146.269 27.859, 141.098 27.605 L 131.697 27.142 136.759 31.570 C 144.576 38.408, 146 42.266, 146 56.601 C 146 64.466, 145.279 72.502, 143.897 80.035 C 141.190 94.791, 141.574 105.542, 145.062 112.580 C 147.271 117.038, 147.856 117.529, 151.289 117.813 C 156.934 118.279, 165.501 116.192, 168.195 113.695 C 171.573 110.565, 179.482 91.907, 182.532 79.874 C 188.783 55.215, 196.896 39.423, 208.614 29.109 L 213.282 25 206.891 25.146 C 203.376 25.226, 189.250 25.916, 175.500 26.679 M 240 130.560 C 236.425 131.835, 227.496 134.478, 220.158 136.432 C 203.710 140.813, 195.786 144.515, 188.391 151.273 C 181.323 157.734, 178.018 164.342, 178.025 172 C 178.032 180.338, 179.267 181.903, 188.500 185.277 C 195.019 187.660, 216.738 193.766, 225.500 195.681 C 227.390 196.094, 227.510 195.551, 227.685 185.809 C 227.827 177.935, 228.603 172.706, 230.971 163.668 C 235.760 145.386, 237.124 142.411, 246.060 130.750 C 248.522 127.536, 248.480 127.535, 240 130.560 M 136.838 142.130 C 131.447 143.642, 125.459 149.240, 123.329 154.761 C 120.220 162.816, 121.369 182.495, 125.662 194.722 C 129.394 205.352, 144.568 216, 155.986 216 C 160.283 216, 162.546 215.433, 165.089 213.719 C 169.827 210.526, 170.616 207.564, 169.004 199.021 C 167.923 193.292, 167.896 190.144, 168.862 182.711 C 171.179 164.885, 166.837 154.164, 153.620 145.079 C 148.237 141.379, 142.878 140.438, 136.838 142.130 M 468.080 188.080 C 464.929 192.211, 458.477 198.564, 452.590 203.330 C 423.837 226.611, 416.402 240.206, 425.178 253.455 C 429.489 259.963, 437.754 263.998, 446.777 263.999 C 452.068 264, 454.155 263.423, 460.061 260.329 C 464.813 257.840, 468.827 256.513, 472.534 256.206 L 478 255.752 477.980 240.126 C 477.969 230.945, 477.364 221.200, 476.515 216.500 C 475.720 212.100, 475.054 202.313, 475.035 194.750 C 475.016 187.188, 474.658 181, 474.240 181 C 473.822 181, 471.050 184.186, 468.080 188.080 M 96.395 209.908 C 91.464 212.148, 89.483 214.171, 82.504 224.103 C 76.616 232.482, 70.352 238.439, 65.030 240.722 C 59.911 242.918, 43.014 242.088, 37 239.346 C 31.630 236.897, 27.558 232.979, 24.702 227.513 L 22.605 223.500 21.861 228.419 C 20.660 236.363, 19.901 307.179, 21.024 306.485 C 21.561 306.153, 22 305.284, 22 304.553 C 22 303.106, 26.239 293.260, 31.264 283.035 C 36.814 271.741, 52.451 257.211, 68.616 248.326 C 72.186 246.363, 80.299 242.589, 86.644 239.940 C 101.794 233.614, 112.817 227.255, 114.595 223.817 C 117.214 218.753, 115.820 213.044, 111.046 209.282 C 108.739 207.464, 101.054 207.793, 96.395 209.908 M 252.795 232.250 C 253.109 239.045, 252.869 240.034, 248.980 248 C 243.705 258.806, 239.293 264.172, 233.409 266.938 L 228.742 269.131 231.121 270.775 C 232.430 271.679, 236.814 275.235, 240.865 278.677 C 244.915 282.119, 250.516 286.075, 253.311 287.468 C 257.882 289.746, 259.574 290, 270.147 290 C 283.864 290, 290.368 288.820, 298.117 284.928 C 314.903 276.494, 312.266 265.517, 289.500 249.053 C 282.907 244.286, 253.375 225, 252.667 225 C 252.554 225, 252.612 228.262, 252.795 232.250 M 158.603 234.477 C 152.013 236.825, 151.509 237.847, 151.797 248.265 C 152.178 262.067, 155.572 280.693, 159.451 290.270 C 165.701 305.704, 165.236 305.270, 166.634 296.974 C 167.304 292.996, 169.218 286.987, 170.886 283.621 C 174.533 276.259, 185.138 264.258, 189.670 262.365 C 191.466 261.614, 196.169 261, 200.120 261 L 207.304 261 201.902 255.194 C 198.931 252.001, 194.925 247.163, 193 244.444 C 187.868 237.194, 179.225 232.984, 169.595 233.044 C 165.693 233.068, 160.746 233.713, 158.603 234.477 M 349.929 245.826 C 348.514 246.947, 346.788 249.807, 346.091 252.182 C 345.395 254.557, 342.359 262.717, 339.345 270.315 C 330.349 292.995, 329.473 300.976, 334.060 318.489 C 338.250 334.485, 343.752 342.740, 352.787 346.584 C 355.553 347.761, 358.931 348.072, 366.031 347.805 C 374.217 347.497, 376.216 347.064, 380.197 344.731 C 385.962 341.352, 390.785 335.821, 396.966 325.500 C 399.600 321.100, 403.419 314.800, 405.451 311.500 C 410.497 303.307, 410.077 301.117, 399.472 280.332 C 389.408 260.607, 386.549 257.281, 373.405 249.999 C 362.086 243.728, 354.316 242.347, 349.929 245.826 M 175.134 337.250 C 179.958 359.207, 179.720 386.444, 174.551 404.112 C 171.123 415.830, 163.820 433.764, 159.409 441.295 C 155.749 447.544, 140.023 467.866, 136.107 471.405 C 134.948 472.453, 134 473.690, 134 474.155 C 134 474.620, 147.838 474.978, 164.750 474.952 L 195.500 474.904 189.814 471.968 C 182.550 468.218, 177.294 462.795, 175.881 457.593 C 175.203 455.097, 174.958 448.624, 175.253 441 C 175.652 430.672, 176.193 427.308, 178.365 421.639 C 185.263 403.634, 201.458 386.841, 221.820 376.577 C 233.414 370.733, 248.645 366.719, 273 363.089 C 290.049 360.549, 295.794 358.656, 297.157 355.132 C 298.864 350.721, 297.676 342.356, 294.917 339.356 C 286.247 329.929, 263.033 329.638, 236.372 338.621 C 213.957 346.173, 193.605 344.066, 178.741 332.654 C 176.124 330.644, 173.834 329, 173.652 329 C 173.471 329, 174.137 332.712, 175.134 337.250 M 416.766 366.923 C 413.701 369.666, 413.506 370.234, 413.602 376.173 C 413.744 384.925, 419.773 399.315, 431.338 418.500 C 442.749 437.430, 444.077 440.899, 444.738 453.509 C 445.201 462.345, 445.002 464.125, 443.039 468.688 C 441.816 471.531, 439.957 474.634, 438.908 475.584 C 437.858 476.533, 437 477.690, 437 478.155 C 437 478.620, 444.995 479, 454.768 479 L 472.535 479 474.420 472.250 C 475.860 467.090, 476.411 460.965, 476.758 446.250 C 477.204 427.342, 477.176 427, 475.155 427 C 474.024 427, 470.791 426.505, 467.970 425.900 C 459.770 424.142, 456.780 420.700, 448.547 403.544 C 444.576 395.270, 440.508 386.250, 439.507 383.500 C 438.507 380.750, 436.236 376.212, 434.462 373.416 C 428.271 363.657, 422.700 361.612, 416.766 366.923 M 336.226 383.580 C 330.220 387.180, 323.383 397.415, 316.436 413.203 C 309.202 429.645, 305.620 435.891, 296.468 448.013 C 286.176 461.645, 279.690 468.425, 272.313 473.261 L 265.848 477.500 271.174 478.022 C 281.184 479.003, 345 478.999, 345 478.017 C 345 477.497, 344.147 476.614, 343.105 476.056 C 340.214 474.509, 339 469.619, 339 459.526 C 339 451.602, 339.484 448.958, 342.547 440.143 C 344.497 434.529, 348.322 425.378, 351.047 419.806 C 355.479 410.742, 356 408.975, 356 402.998 C 356 389.912, 351.157 380.991, 344.063 381.009 C 342.033 381.015, 338.661 382.121, 336.226 383.580 M 20.543 422.147 C 20.167 433.891, 20.003 450.232, 20.179 458.460 L 20.500 473.420 24 474.192 C 37.565 477.184, 82.996 479.434, 84.387 477.182 C 84.666 476.732, 82.330 475.112, 79.196 473.582 C 69.873 469.028, 51.731 457.396, 48.383 453.825 C 43.845 448.985, 37.901 438.359, 31.141 423 C 27.873 415.575, 24.305 407.541, 23.214 405.147 L 21.228 400.794 20.543 422.147" stroke="none" fill="#331b3b" fill-rule="evenodd"/></svg>