<svg xmlns="http://www.w3.org/2000/svg" width="948" height="240" viewBox="0 0 948 240" version="1.1"><path d="M 38.637 64.740 C 36.693 70.658, 29.658 92.825, 23.005 114 C 16.351 135.175, 10.717 153.063, 10.485 153.750 C 10.153 154.734, 17.298 155, 44.031 155 C 73.047 155, 78 154.788, 78 153.549 C 78 152.751, 78.487 149.826, 79.083 147.049 L 80.166 142 87.503 142 C 95.699 142, 94.833 141.117, 96.577 151.250 L 97.223 155 132.111 155 C 151.300 155, 166.998 154.662, 166.996 154.250 C 166.994 153.838, 159.888 131.225, 151.206 104 L 135.420 54.500 88.796 54.240 L 42.172 53.980 38.637 64.740 M 304 104.500 L 304 155 328 155 L 352 155 352 131.617 L 352 108.233 354.250 107.630 C 357.844 106.667, 358.877 106.877, 361 109 C 362.879 110.879, 363 112.333, 363 133 L 363 155 387.048 155 L 411.095 155 410.798 119.584 L 410.500 84.169 407.469 79.858 C 400.986 70.638, 389.286 66.677, 374.783 68.790 C 370.354 69.436, 365.115 70.760, 363.142 71.732 C 359.835 73.361, 359.307 74.268, 356.431 83.262 C 354.714 88.631, 353.015 93.318, 352.655 93.678 C 352.295 94.039, 352 85.258, 352 74.167 L 352 54 328 54 L 304 54 304 104.500 M 477 104.500 L 477 155 501 155 L 525 155 525 104.500 L 525 54 501 54 L 477 54 477 104.500 M 173.685 55.649 C 173.308 56.025, 173 78.533, 173 105.667 L 173 155 197 155 L 221 155 221 151.958 L 221 148.916 225.250 151.372 C 231.855 155.191, 239.491 157.001, 248.932 156.988 C 259.088 156.974, 265.568 155.413, 273.894 150.976 C 282.197 146.550, 289.170 139.430, 293.181 131.283 C 296.359 124.829, 296.500 124.050, 296.500 113 C 296.500 102.011, 296.345 101.143, 293.266 94.890 C 283.867 75.796, 258.366 65.236, 234 70.346 L 228.500 71.500 225 84.500 L 221.500 97.500 221 76.500 L 220.500 55.500 197.435 55.232 C 184.749 55.085, 174.061 55.272, 173.685 55.649 M 29.678 103.750 C 21.570 129.463, 14.950 150.838, 14.968 151.250 C 14.986 151.662, 28.450 152, 44.889 152 L 74.777 152 75.423 148.250 C 75.778 146.188, 76.314 143.262, 76.614 141.750 L 77.159 139 87.473 139 L 97.786 139 98.868 145.142 C 99.463 148.520, 100.118 151.451, 100.323 151.656 C 100.528 151.861, 114.675 151.910, 131.762 151.764 L 162.828 151.500 147.742 104.250 L 132.657 57 88.538 57 L 44.420 57 29.678 103.750 M 308 104.500 L 308 152.041 328.250 151.771 L 348.500 151.500 348.500 104.500 L 348.500 57.500 328.250 57.229 L 308 56.959 308 104.500 M 480.667 57.667 C 480.300 58.033, 480 79.408, 480 105.167 L 480 152 500.500 152 L 521 152 521 104.500 L 521 57 501.167 57 C 490.258 57, 481.033 57.300, 480.667 57.667 M 177 105.500 L 177 152 197 152 L 217 152 217.015 148.750 C 217.024 146.963, 217.452 144.833, 217.967 144.019 C 218.767 142.754, 219.313 142.863, 221.702 144.766 C 234.600 155.038, 254.372 156.585, 270.500 148.582 C 289.237 139.286, 297.932 120.304, 292.160 101.300 C 289.529 92.639, 284.832 86.389, 277.048 81.191 C 266.605 74.217, 253.830 71.423, 239.738 73.030 C 235.329 73.533, 231.541 74.125, 231.320 74.347 C 230.813 74.854, 224.031 100.122, 224.013 101.571 C 224.004 102.281, 226.782 102.495, 232.262 102.208 C 245.164 101.531, 251.526 105.422, 251.287 113.844 C 251.161 118.305, 246.994 122.386, 240.886 124.031 C 235.710 125.424, 225.704 123.905, 222 121.163 C 217.605 117.910, 217.117 114.413, 217.056 85.750 L 217 59 197 59 L 177 59 177 105.500 M 758.039 68.106 C 741.037 70.701, 727.053 78.196, 722.390 87.212 C 718.817 94.122, 719.826 104.262, 724.657 110.004 C 730.541 116.997, 741.196 120, 760.125 120 C 771.371 120, 775.613 121.029, 770.765 122.581 C 766.797 123.851, 750.750 123.194, 742.993 121.444 C 734.600 119.550, 729.423 117.234, 726.595 114.106 C 725.547 112.948, 724.300 112, 723.822 112 C 723.345 112, 723.078 120.207, 723.227 130.238 L 723.500 148.477 731 151.673 C 742.244 156.464, 753.298 158.458, 768.500 158.435 C 794.545 158.396, 813.621 150.677, 819.942 137.621 C 824.523 128.157, 821.287 114.243, 813.202 108.640 C 806.103 103.720, 798.678 101.863, 783.724 101.267 C 776.147 100.965, 770.191 100.475, 770.489 100.178 C 771.817 98.850, 782.288 98.315, 790.676 99.147 C 800.645 100.136, 809.375 102.707, 814.039 106.028 L 817 108.136 817 91.517 L 817 74.898 813.330 73.365 C 803.964 69.451, 794.515 67.802, 779.500 67.461 C 771.250 67.273, 761.593 67.564, 758.039 68.106 M 858.971 68.484 C 854.829 69.267, 847.629 71.173, 842.971 72.719 L 834.500 75.531 834.227 93.265 C 834.077 103.019, 834.219 111, 834.543 111 C 834.867 111, 836.114 110.510, 837.316 109.911 C 838.517 109.311, 837.301 110.749, 834.614 113.104 C 828.353 118.593, 826.050 123.640, 826.022 131.934 C 825.983 143.250, 831.990 151.492, 843.619 156.077 C 851.427 159.156, 866.890 159.324, 874.500 156.413 C 879.277 154.585, 879.686 154.120, 883.667 146 L 887.833 137.500 888.167 146 L 888.500 154.500 912.792 154.768 L 937.083 155.036 936.792 124.768 C 936.524 96.973, 936.338 94.173, 934.523 90.500 C 929.991 81.333, 918.926 73.982, 903.500 69.889 C 893.085 67.126, 870.009 66.398, 858.971 68.484 M 655.819 70.023 C 645.122 71.301, 645.834 70.545, 641.970 84.748 L 638.500 97.500 638 84.500 L 637.500 71.500 614 71.500 L 590.500 71.500 590.241 121.250 L 589.981 171 613.991 171 L 638 171 638 161.393 C 638 152.630, 638.154 151.851, 639.750 152.521 C 649.477 156.606, 652.305 157.302, 661.004 157.752 C 672.577 158.351, 679.760 156.986, 688.774 152.477 C 706.358 143.680, 714.778 129.737, 713.761 111.098 C 713.097 98.938, 710.349 92.383, 702.639 84.568 C 691.382 73.157, 674.215 67.824, 655.819 70.023 M 760.814 71.006 C 734.356 75.222, 721.346 85.486, 724.008 100.044 C 725.433 107.834, 731.306 113.087, 740.812 115.072 C 743.940 115.725, 752.978 116.538, 760.895 116.880 C 773.307 117.415, 775.441 117.749, 776.395 119.311 C 778.147 122.181, 773.362 125.686, 766.527 126.540 C 756.746 127.762, 738.808 124.983, 731.102 121.052 C 728.982 119.971, 726.967 119.366, 726.624 119.710 C 726.281 120.053, 726 125.814, 726 132.512 C 726 142.841, 726.266 144.930, 727.750 146.270 C 730.389 148.654, 743.438 152.695, 752.911 154.063 C 763.256 155.556, 783.157 154.760, 791.500 152.518 C 812.575 146.855, 822.619 134.792, 817.828 120.899 C 815.901 115.311, 812.913 112.113, 806.740 109.028 C 799.903 105.611, 796.927 105.081, 779.500 104.176 C 767.134 103.533, 766.485 103.393, 766.189 101.313 C 765.684 97.768, 770.001 95.727, 779.124 95.199 C 788.177 94.675, 800.151 96.323, 807.500 99.106 C 810.250 100.147, 812.612 100.999, 812.750 100.999 C 812.888 101, 813 95.616, 813 89.035 C 813 75.117, 813.768 76.128, 800.818 72.980 C 791.263 70.657, 769.689 69.592, 760.814 71.006 M 864.269 70.994 C 856.868 72.040, 847.145 74.435, 841.250 76.664 L 837 78.272 837 91.636 C 837 101.935, 837.298 105, 838.300 105 C 839.015 105, 840.044 104.556, 840.586 104.014 C 842.475 102.125, 857.368 99, 864.478 99 C 876.806 99, 887.648 103.572, 890.204 109.848 C 891.455 112.918, 891.832 119.123, 891.930 138.250 L 892 152 913.057 152 L 934.114 152 933.807 123.750 L 933.500 95.500 930.763 90.845 C 925.890 82.554, 914.136 75.437, 900.412 72.468 C 891.815 70.607, 872.560 69.822, 864.269 70.994 M 374 72.134 C 362.282 74.051, 362.897 73.415, 358.197 88.453 C 355.889 95.838, 354 102.298, 354 102.809 C 354 103.319, 355.908 103.993, 358.240 104.305 C 365.768 105.315, 366 106.103, 366 130.611 L 366 152 387 152 L 408 152 408 120.649 C 408 99.971, 407.614 88.141, 406.867 85.899 C 403.377 75.423, 389.479 69.603, 374 72.134 M 420 113 L 420 155 444 155 L 468 155 468 131 L 468 107 454.300 107 C 446.554 107, 441.013 106.625, 441.550 106.137 C 442.072 105.663, 447.450 104.279, 453.500 103.062 C 459.550 101.844, 465.288 100.627, 466.250 100.357 C 467.813 99.918, 468 98.324, 468 85.433 L 468 71 444 71 L 420 71 420 113 M 533 112.982 L 533 155 557.500 155 L 582 155 582 131 L 582 107 568.300 107 C 560.058 107, 554.978 106.638, 555.550 106.092 C 556.072 105.592, 561.450 104.194, 567.500 102.985 C 573.550 101.776, 579.300 100.362, 580.278 99.843 C 581.871 98.998, 582.027 97.478, 581.778 85.200 L 581.500 71.500 557.250 71.232 L 533 70.964 533 112.982 M 651.376 73.714 C 648.261 74.107, 648.241 74.148, 644.608 87.804 C 640.216 104.307, 640.220 104.247, 643.565 102.975 C 647.836 101.351, 657.112 101.868, 661.788 103.990 C 666.526 106.140, 669.613 111.407, 668.432 115.323 C 665.282 125.768, 645.721 128.577, 637.300 119.793 L 634.500 116.873 634.178 95.936 L 633.855 75 613.928 75 L 594 75 594 121.500 L 594 168 614 168 L 634 168 634.015 158.750 C 634.036 146.413, 634.442 145.885, 641.250 149.329 C 667.128 162.422, 701.058 150.309, 708.995 125.145 C 716.235 102.192, 702.861 80.422, 677.907 74.540 C 672.033 73.155, 659.020 72.750, 651.376 73.714 M 423 89.313 C 423 97.758, 423.222 104.889, 423.494 105.161 C 423.885 105.552, 451.817 100.097, 462.782 97.489 C 465.013 96.958, 465.059 96.690, 464.782 85.723 L 464.500 74.500 443.750 74.230 L 423 73.959 423 89.313 M 537 89.869 L 537 105.739 557.250 101.546 L 577.500 97.354 577.782 85.677 L 578.063 74 557.532 74 L 537 74 537 89.869 M 86.278 87.250 C 85.746 87.938, 83.853 97.500, 82.072 108.500 C 80.291 119.500, 78.597 129.512, 78.308 130.750 C 77.794 132.955, 77.963 133, 86.725 133 C 91.643 133, 95.905 132.762, 96.195 132.471 C 96.486 132.181, 94.991 121.943, 92.874 109.721 C 90.756 97.500, 89.018 87.162, 89.012 86.750 C 88.993 85.571, 87.343 85.873, 86.278 87.250 M 86.672 102 C 86.356 103.375, 85.392 109, 84.529 114.500 C 83.666 120, 82.708 125.737, 82.400 127.250 C 81.851 129.953, 81.926 130, 86.754 130 C 89.456 130, 91.896 129.770, 92.177 129.489 C 92.651 129.015, 88.617 103.190, 87.671 100.642 C 87.437 100.014, 86.988 100.625, 86.672 102 M 856.677 103.096 C 850.915 103.865, 839.319 107.696, 840.220 108.533 C 840.374 108.676, 843.875 107.906, 848 106.822 C 859.270 103.859, 874.043 105.351, 883.898 110.447 C 887.539 112.330, 887.950 111.241, 884.736 108.222 C 879.592 103.389, 868.991 101.453, 856.677 103.096 M 226.892 106.547 C 223.008 108.220, 220.586 111.613, 221.158 114.583 C 221.354 115.599, 223.086 117.496, 225.007 118.800 C 228.045 120.862, 229.436 121.125, 235.687 120.819 C 241.655 120.527, 243.316 120.052, 245.484 118.015 C 248.880 114.825, 248.579 110.500, 244.763 107.664 C 241.166 104.989, 231.861 104.408, 226.892 106.547 M 647.143 106.091 C 640.595 107.355, 637.274 110.970, 638.429 115.575 C 639.762 120.886, 651.752 123.530, 659.320 120.183 C 664.171 118.037, 665.815 115.145, 664.514 111.046 C 663.129 106.680, 655.445 104.489, 647.143 106.091 M 854.346 109.052 C 838.789 110.635, 828.968 119.366, 829.022 131.566 C 829.066 141.356, 835.884 150.044, 846.119 153.349 C 852.609 155.446, 865.001 155.486, 871.914 153.433 L 877.191 151.866 881.096 143.415 C 883.243 138.767, 885 134.747, 885 134.482 C 885 134.217, 882.953 134, 880.450 134 C 872.033 134, 866.832 129.201, 869.018 123.452 C 870.865 118.594, 881.024 116.410, 887.117 119.561 C 890 121.051, 890.090 121.037, 889.127 119.238 C 885.405 112.283, 869.209 107.540, 854.346 109.052 M 423 131.020 L 423 152.041 443.750 151.770 L 464.500 151.500 464.770 130.750 L 465.041 110 444.020 110 L 423 110 423 131.020 M 537 131 L 537 152 557.500 152 L 578 152 578 131 L 578 110 557.500 110 L 537 110 537 131 M 876 122.346 C 869.173 124.597, 872.133 131, 880 131 C 886.095 131, 890.367 126.104, 886.750 123.263 C 884.593 121.569, 879.639 121.147, 876 122.346" stroke="none" fill="#1b121d" fill-rule="evenodd"/><path d="M 65.819 53.749 C 78.644 53.908, 99.344 53.907, 111.819 53.749 C 124.293 53.590, 113.800 53.461, 88.500 53.461 C 63.200 53.461, 52.993 53.591, 65.819 53.749 M 328.471 53.740 L 351.942 54.036 352.266 67.019 L 352.591 80.003 352.545 66.751 L 352.500 53.500 328.749 53.472 L 304.999 53.445 328.471 53.740 M 489.250 53.747 C 495.712 53.921, 506.288 53.921, 512.750 53.747 C 519.212 53.573, 513.925 53.430, 501 53.430 C 488.075 53.430, 482.788 53.573, 489.250 53.747 M 476.464 104.500 C 476.464 132, 476.592 143.106, 476.749 129.180 C 476.906 115.255, 476.906 92.755, 476.749 79.180 C 476.592 65.606, 476.464 77, 476.464 104.500 M 29.678 103.750 C 21.570 129.463, 14.950 150.838, 14.968 151.250 C 14.986 151.662, 28.450 152, 44.889 152 L 74.777 152 75.423 148.250 C 75.778 146.188, 76.314 143.262, 76.614 141.750 L 77.159 139 87.473 139 L 97.786 139 98.868 145.142 C 99.463 148.520, 100.118 151.451, 100.323 151.656 C 100.528 151.861, 114.675 151.910, 131.762 151.764 L 162.828 151.500 147.742 104.250 L 132.657 57 88.538 57 L 44.420 57 29.678 103.750 M 308 104.500 L 308 152.041 328.250 151.771 L 348.500 151.500 348.500 104.500 L 348.500 57.500 328.250 57.229 L 308 56.959 308 104.500 M 480.667 57.667 C 480.300 58.033, 480 79.408, 480 105.167 L 480 152 500.500 152 L 521 152 521 104.500 L 521 57 501.167 57 C 490.258 57, 481.033 57.300, 480.667 57.667 M 177 105.500 L 177 152 197 152 L 217 152 217.015 148.750 C 217.024 146.963, 217.452 144.833, 217.967 144.019 C 218.767 142.754, 219.313 142.863, 221.702 144.766 C 234.600 155.038, 254.372 156.585, 270.500 148.582 C 289.237 139.286, 297.932 120.304, 292.160 101.300 C 289.529 92.639, 284.832 86.389, 277.048 81.191 C 266.605 74.217, 253.830 71.423, 239.738 73.030 C 235.329 73.533, 231.541 74.125, 231.320 74.347 C 230.813 74.854, 224.031 100.122, 224.013 101.571 C 224.004 102.281, 226.782 102.495, 232.262 102.208 C 245.164 101.531, 251.526 105.422, 251.287 113.844 C 251.161 118.305, 246.994 122.386, 240.886 124.031 C 235.710 125.424, 225.704 123.905, 222 121.163 C 217.605 117.910, 217.117 114.413, 217.056 85.750 L 217 59 197 59 L 177 59 177 105.500 M 760.814 71.006 C 734.356 75.222, 721.346 85.486, 724.008 100.044 C 725.433 107.834, 731.306 113.087, 740.812 115.072 C 743.940 115.725, 752.978 116.538, 760.895 116.880 C 773.307 117.415, 775.441 117.749, 776.395 119.311 C 778.147 122.181, 773.362 125.686, 766.527 126.540 C 756.746 127.762, 738.808 124.983, 731.102 121.052 C 728.982 119.971, 726.967 119.366, 726.624 119.710 C 726.281 120.053, 726 125.814, 726 132.512 C 726 142.841, 726.266 144.930, 727.750 146.270 C 730.389 148.654, 743.438 152.695, 752.911 154.063 C 763.256 155.556, 783.157 154.760, 791.500 152.518 C 812.575 146.855, 822.619 134.792, 817.828 120.899 C 815.901 115.311, 812.913 112.113, 806.740 109.028 C 799.903 105.611, 796.927 105.081, 779.500 104.176 C 767.134 103.533, 766.485 103.393, 766.189 101.313 C 765.684 97.768, 770.001 95.727, 779.124 95.199 C 788.177 94.675, 800.151 96.323, 807.500 99.106 C 810.250 100.147, 812.612 100.999, 812.750 100.999 C 812.888 101, 813 95.616, 813 89.035 C 813 75.117, 813.768 76.128, 800.818 72.980 C 791.263 70.657, 769.689 69.592, 760.814 71.006 M 864.269 70.994 C 856.868 72.040, 847.145 74.435, 841.250 76.664 L 837 78.272 837 91.636 C 837 101.935, 837.298 105, 838.300 105 C 839.015 105, 840.044 104.556, 840.586 104.014 C 842.475 102.125, 857.368 99, 864.478 99 C 876.806 99, 887.648 103.572, 890.204 109.848 C 891.455 112.918, 891.832 119.123, 891.930 138.250 L 892 152 913.057 152 L 934.114 152 933.807 123.750 L 933.500 95.500 930.763 90.845 C 925.890 82.554, 914.136 75.437, 900.412 72.468 C 891.815 70.607, 872.560 69.822, 864.269 70.994 M 374 72.134 C 362.282 74.051, 362.897 73.415, 358.197 88.453 C 355.889 95.838, 354 102.298, 354 102.809 C 354 103.319, 355.908 103.993, 358.240 104.305 C 365.768 105.315, 366 106.103, 366 130.611 L 366 152 387 152 L 408 152 408 120.649 C 408 99.971, 407.614 88.141, 406.867 85.899 C 403.377 75.423, 389.479 69.603, 374 72.134 M 419.457 113.500 C 419.456 136.050, 419.588 145.418, 419.749 134.317 C 419.909 123.216, 419.910 104.766, 419.749 93.317 C 419.589 81.868, 419.457 90.950, 419.457 113.500 M 651.376 73.714 C 648.261 74.107, 648.241 74.148, 644.608 87.804 C 640.216 104.307, 640.220 104.247, 643.565 102.975 C 647.836 101.351, 657.112 101.868, 661.788 103.990 C 666.526 106.140, 669.613 111.407, 668.432 115.323 C 665.282 125.768, 645.721 128.577, 637.300 119.793 L 634.500 116.873 634.178 95.936 L 633.855 75 613.928 75 L 594 75 594 121.500 L 594 168 614 168 L 634 168 634.015 158.750 C 634.036 146.413, 634.442 145.885, 641.250 149.329 C 667.128 162.422, 701.058 150.309, 708.995 125.145 C 716.235 102.192, 702.861 80.422, 677.907 74.540 C 672.033 73.155, 659.020 72.750, 651.376 73.714 M 423 89.313 C 423 97.758, 423.222 104.889, 423.494 105.161 C 423.885 105.552, 451.817 100.097, 462.782 97.489 C 465.013 96.958, 465.059 96.690, 464.782 85.723 L 464.500 74.500 443.750 74.230 L 423 73.959 423 89.313 M 468.389 86.500 C 468.390 93.650, 468.550 96.444, 468.742 92.708 C 468.935 88.973, 468.934 83.123, 468.739 79.708 C 468.545 76.294, 468.387 79.350, 468.389 86.500 M 537 89.869 L 537 105.739 557.250 101.546 L 577.500 97.354 577.782 85.677 L 578.063 74 557.532 74 L 537 74 537 89.869 M 86.278 87.250 C 85.746 87.938, 83.853 97.500, 82.072 108.500 C 80.291 119.500, 78.597 129.512, 78.308 130.750 C 77.794 132.955, 77.963 133, 86.725 133 C 91.643 133, 95.905 132.762, 96.195 132.471 C 96.486 132.181, 94.991 121.943, 92.874 109.721 C 90.756 97.500, 89.018 87.162, 89.012 86.750 C 88.993 85.571, 87.343 85.873, 86.278 87.250 M 411.448 122.500 C 411.447 140.650, 411.582 148.216, 411.748 139.314 C 411.913 130.411, 411.914 115.561, 411.749 106.314 C 411.583 97.066, 411.448 104.350, 411.448 122.500 M 937.440 127.500 C 937.440 142.900, 937.579 149.060, 937.748 141.189 C 937.917 133.319, 937.917 120.719, 937.747 113.189 C 937.578 105.660, 937.439 112.100, 937.440 127.500 M 800.580 101.893 C 799.048 102.494, 799.620 102.914, 803.419 103.977 C 806.036 104.710, 809.732 106.365, 811.633 107.655 C 815.723 110.431, 815.891 110.464, 815.594 108.440 C 815.262 106.174, 810.165 103.144, 807.749 103.776 C 806.499 104.103, 805.934 103.916, 806.313 103.302 C 806.699 102.678, 805.895 102.456, 804.220 102.723 C 802.090 103.062, 801.825 102.926, 803 102.094 C 804.709 100.882, 803.430 100.776, 800.580 101.893 M 844.500 106.507 C 841.750 107.871, 840.625 108.687, 842 108.320 C 843.375 107.953, 846.661 107.154, 849.302 106.545 C 851.944 105.936, 853.781 105.114, 853.386 104.719 C 852.125 103.458, 849.634 103.959, 844.500 106.507 M 441.344 106.250 C 441.090 106.662, 447.096 106.928, 454.691 106.840 C 469.658 106.667, 468.593 106.221, 452.153 105.779 C 446.463 105.625, 441.599 105.838, 441.344 106.250 M 555.345 106.250 C 555.090 106.662, 560.871 106.928, 568.191 106.840 C 582.521 106.668, 581.474 106.231, 565.654 105.780 C 560.238 105.626, 555.599 105.838, 555.345 106.250 M 352.430 131 C 352.430 143.925, 352.573 149.213, 352.747 142.750 C 352.921 136.287, 352.921 125.712, 352.747 119.250 C 352.573 112.787, 352.430 118.075, 352.430 131 M 468.430 131 C 468.430 143.925, 468.573 149.213, 468.747 142.750 C 468.921 136.287, 468.921 125.712, 468.747 119.250 C 468.573 112.787, 468.430 118.075, 468.430 131 M 854.346 109.052 C 838.789 110.635, 828.968 119.366, 829.022 131.566 C 829.066 141.356, 835.884 150.044, 846.119 153.349 C 852.609 155.446, 865.001 155.486, 871.914 153.433 L 877.191 151.866 881.096 143.415 C 883.243 138.767, 885 134.747, 885 134.482 C 885 134.217, 882.953 134, 880.450 134 C 872.033 134, 866.832 129.201, 869.018 123.452 C 870.865 118.594, 881.024 116.410, 887.117 119.561 C 890 121.051, 890.090 121.037, 889.127 119.238 C 885.405 112.283, 869.209 107.540, 854.346 109.052 M 723 109.861 C 723 111.522, 727.618 115.583, 732.389 118.117 C 735.384 119.708, 736.762 119.947, 738.389 119.159 C 740.197 118.282, 740.243 118.126, 738.710 118.068 C 736.087 117.968, 728.917 114.171, 725.750 111.203 C 724.237 109.786, 723 109.182, 723 109.861 M 836.500 110.158 C 835.400 110.721, 833.375 112.598, 832 114.329 C 829.668 117.266, 829.820 117.212, 834.250 113.527 C 839.938 108.797, 840.340 108.194, 836.500 110.158 M 423 131.020 L 423 152.041 443.750 151.770 L 464.500 151.500 464.770 130.750 L 465.041 110 444.020 110 L 423 110 423 131.020 M 537 131 L 537 152 557.500 152 L 578 152 578 131 L 578 110 557.500 110 L 537 110 537 131 M 362.426 132.500 C 362.427 144.600, 362.571 149.413, 362.747 143.195 C 362.923 136.977, 362.922 127.077, 362.746 121.195 C 362.569 115.313, 362.425 120.400, 362.426 132.500 M 589.374 131.500 C 589.376 137.550, 589.541 139.896, 589.740 136.713 C 589.939 133.531, 589.937 128.581, 589.736 125.713 C 589.535 122.846, 589.372 125.450, 589.374 131.500 M 532.320 136 C 532.320 139.575, 532.502 141.037, 532.723 139.250 C 532.945 137.463, 532.945 134.537, 532.723 132.750 C 532.502 130.963, 532.320 132.425, 532.320 136 M 22.728 155.722 C 24.503 155.943, 27.653 155.946, 29.728 155.730 C 31.802 155.513, 30.350 155.333, 26.500 155.328 C 22.650 155.324, 20.952 155.501, 22.728 155.722 M 103.750 155.732 C 106.087 155.943, 109.912 155.943, 112.250 155.732 C 114.587 155.522, 112.675 155.349, 108 155.349 C 103.325 155.349, 101.412 155.522, 103.750 155.732 M 186.250 155.716 C 187.762 155.945, 190.238 155.945, 191.750 155.716 C 193.262 155.487, 192.025 155.300, 189 155.300 C 185.975 155.300, 184.738 155.487, 186.250 155.716 M 317.306 155.747 C 323.800 155.922, 334.150 155.921, 340.306 155.746 C 346.463 155.571, 341.150 155.428, 328.500 155.429 C 315.850 155.429, 310.813 155.573, 317.306 155.747 M 376.750 155.747 C 382.938 155.922, 393.063 155.922, 399.250 155.747 C 405.438 155.571, 400.375 155.428, 388 155.428 C 375.625 155.428, 370.563 155.571, 376.750 155.747 M 433.750 155.747 C 439.938 155.922, 450.063 155.922, 456.250 155.747 C 462.438 155.571, 457.375 155.428, 445 155.428 C 432.625 155.428, 427.563 155.571, 433.750 155.747 M 491.250 155.746 C 497.163 155.923, 506.837 155.923, 512.750 155.746 C 518.663 155.569, 513.825 155.425, 502 155.425 C 490.175 155.425, 485.337 155.569, 491.250 155.746 M 547.306 155.747 C 553.800 155.922, 564.150 155.921, 570.306 155.746 C 576.463 155.571, 571.150 155.428, 558.500 155.429 C 545.850 155.429, 540.813 155.573, 547.306 155.747 M 905.750 155.746 C 911.388 155.924, 920.612 155.924, 926.250 155.746 C 931.888 155.568, 927.275 155.422, 916 155.422 C 904.725 155.422, 900.112 155.568, 905.750 155.746 M 603.306 171.747 C 609.800 171.922, 620.150 171.921, 626.306 171.746 C 632.463 171.571, 627.150 171.428, 614.500 171.429 C 601.850 171.429, 596.813 171.573, 603.306 171.747" stroke="none" fill="#dea9e7" fill-rule="evenodd"/></svg>