<svg xmlns="http://www.w3.org/2000/svg" xmlns:xlink="http://www.w3.org/1999/xlink" width="321" zoomAndPan="magnify" viewBox="0 0 240.75 141.750002" height="188" preserveAspectRatio="xMidYMid meet" version="1.0"><defs><filter x="0%" y="0%" width="100%" height="100%" id="60d632c9a6"><feColorMatrix values="0 0 0 0 1 0 0 0 0 1 0 0 0 0 1 0 0 0 1 0" color-interpolation-filters="sRGB"/></filter><g/><clipPath id="0fa539151d"><path d="M 0.0859375 0 L 240.414062 0 L 240.414062 141.5 L 0.0859375 141.5 Z M 0.0859375 0 " clip-rule="nonzero"/></clipPath><linearGradient x1="0" gradientTransform="matrix(0.749457, 0, 0, 0.749457, 0.0871459, 0.00000698768)" y1="0" x2="320.667049" gradientUnits="userSpaceOnUse" y2="0" id="6b856a26a5"><stop stop-opacity="1" stop-color="rgb(100%, 96.899414%, 67.799377%)" offset="0"/><stop stop-opacity="1" stop-color="rgb(100%, 96.77887%, 67.915344%)" offset="0.0078125"/><stop stop-opacity="1" stop-color="rgb(100%, 96.540833%, 68.147278%)" offset="0.015625"/><stop stop-opacity="1" stop-color="rgb(100%, 96.30127%, 68.380737%)" offset="0.0234375"/><stop stop-opacity="1" stop-color="rgb(100%, 96.063232%, 68.612671%)" offset="0.03125"/><stop stop-opacity="1" stop-color="rgb(100%, 95.823669%, 68.84613%)" offset="0.0390625"/><stop stop-opacity="1" stop-color="rgb(100%, 95.585632%, 69.078064%)" offset="0.046875"/><stop stop-opacity="1" stop-color="rgb(100%, 95.346069%, 69.309998%)" offset="0.0546875"/><stop stop-opacity="1" stop-color="rgb(100%, 95.108032%, 69.543457%)" offset="0.0625"/><stop stop-opacity="1" stop-color="rgb(100%, 94.868469%, 69.775391%)" offset="0.0703125"/><stop stop-opacity="1" stop-color="rgb(100%, 94.630432%, 70.00885%)" offset="0.078125"/><stop stop-opacity="1" stop-color="rgb(100%, 94.390869%, 70.240784%)" offset="0.0859375"/><stop stop-opacity="1" stop-color="rgb(100%, 94.152832%, 70.474243%)" offset="0.09375"/><stop stop-opacity="1" stop-color="rgb(100%, 93.913269%, 70.706177%)" offset="0.101562"/><stop stop-opacity="1" stop-color="rgb(100%, 93.675232%, 70.93811%)" offset="0.109375"/><stop stop-opacity="1" stop-color="rgb(100%, 93.435669%, 71.17157%)" offset="0.117188"/><stop stop-opacity="1" stop-color="rgb(100%, 93.197632%, 71.403503%)" offset="0.125"/><stop stop-opacity="1" stop-color="rgb(100%, 92.958069%, 71.636963%)" offset="0.132812"/><stop stop-opacity="1" stop-color="rgb(100%, 92.720032%, 71.868896%)" offset="0.140625"/><stop stop-opacity="1" stop-color="rgb(100%, 92.480469%, 72.10083%)" offset="0.148438"/><stop stop-opacity="1" stop-color="rgb(100%, 92.242432%, 72.33429%)" offset="0.15625"/><stop stop-opacity="1" stop-color="rgb(100%, 92.002869%, 72.566223%)" offset="0.164062"/><stop stop-opacity="1" stop-color="rgb(100%, 91.764832%, 72.799683%)" offset="0.171875"/><stop stop-opacity="1" stop-color="rgb(100%, 91.525269%, 73.031616%)" offset="0.179687"/><stop stop-opacity="1" stop-color="rgb(100%, 91.287231%, 73.265076%)" offset="0.1875"/><stop stop-opacity="1" stop-color="rgb(100%, 91.047668%, 73.497009%)" offset="0.195312"/><stop stop-opacity="1" stop-color="rgb(100%, 90.809631%, 73.728943%)" offset="0.203125"/><stop stop-opacity="1" stop-color="rgb(100%, 90.570068%, 73.962402%)" offset="0.210938"/><stop stop-opacity="1" stop-color="rgb(100%, 90.332031%, 74.194336%)" offset="0.21875"/><stop stop-opacity="1" stop-color="rgb(100%, 90.092468%, 74.427795%)" offset="0.226562"/><stop stop-opacity="1" stop-color="rgb(100%, 89.854431%, 74.659729%)" offset="0.234375"/><stop stop-opacity="1" stop-color="rgb(100%, 89.614868%, 74.891663%)" offset="0.242188"/><stop stop-opacity="1" stop-color="rgb(100%, 89.376831%, 75.125122%)" offset="0.25"/><stop stop-opacity="1" stop-color="rgb(100%, 89.137268%, 75.357056%)" offset="0.257812"/><stop stop-opacity="1" stop-color="rgb(100%, 88.899231%, 75.590515%)" offset="0.265625"/><stop stop-opacity="1" stop-color="rgb(100%, 88.659668%, 75.822449%)" offset="0.273437"/><stop stop-opacity="1" stop-color="rgb(100%, 88.421631%, 76.055908%)" offset="0.28125"/><stop stop-opacity="1" stop-color="rgb(100%, 88.182068%, 76.287842%)" offset="0.289063"/><stop stop-opacity="1" stop-color="rgb(100%, 87.944031%, 76.519775%)" offset="0.296875"/><stop stop-opacity="1" stop-color="rgb(100%, 87.704468%, 76.753235%)" offset="0.304688"/><stop stop-opacity="1" stop-color="rgb(100%, 87.466431%, 76.985168%)" offset="0.3125"/><stop stop-opacity="1" stop-color="rgb(100%, 87.226868%, 77.218628%)" offset="0.320312"/><stop stop-opacity="1" stop-color="rgb(100%, 86.987305%, 77.450562%)" offset="0.328125"/><stop stop-opacity="1" stop-color="rgb(100%, 86.749268%, 77.682495%)" offset="0.335938"/><stop stop-opacity="1" stop-color="rgb(100%, 86.509705%, 77.915955%)" offset="0.34375"/><stop stop-opacity="1" stop-color="rgb(100%, 86.271667%, 78.147888%)" offset="0.351562"/><stop stop-opacity="1" stop-color="rgb(100%, 86.032104%, 78.381348%)" offset="0.359375"/><stop stop-opacity="1" stop-color="rgb(100%, 85.794067%, 78.613281%)" offset="0.367187"/><stop stop-opacity="1" stop-color="rgb(100%, 85.554504%, 78.846741%)" offset="0.375"/><stop stop-opacity="1" stop-color="rgb(100%, 85.316467%, 79.078674%)" offset="0.382812"/><stop stop-opacity="1" stop-color="rgb(100%, 85.076904%, 79.310608%)" offset="0.390625"/><stop stop-opacity="1" stop-color="rgb(100%, 84.838867%, 79.544067%)" offset="0.398438"/><stop stop-opacity="1" stop-color="rgb(100%, 84.599304%, 79.776001%)" offset="0.40625"/><stop stop-opacity="1" stop-color="rgb(100%, 84.361267%, 80.00946%)" offset="0.414062"/><stop stop-opacity="1" stop-color="rgb(100%, 84.121704%, 80.241394%)" offset="0.421875"/><stop stop-opacity="1" stop-color="rgb(100%, 83.883667%, 80.473328%)" offset="0.429688"/><stop stop-opacity="1" stop-color="rgb(100%, 83.644104%, 80.706787%)" offset="0.4375"/><stop stop-opacity="1" stop-color="rgb(100%, 83.406067%, 80.938721%)" offset="0.445312"/><stop stop-opacity="1" stop-color="rgb(100%, 83.166504%, 81.17218%)" offset="0.453125"/><stop stop-opacity="1" stop-color="rgb(100%, 82.928467%, 81.404114%)" offset="0.460938"/><stop stop-opacity="1" stop-color="rgb(100%, 82.688904%, 81.637573%)" offset="0.46875"/><stop stop-opacity="1" stop-color="rgb(100%, 82.450867%, 81.869507%)" offset="0.476562"/><stop stop-opacity="1" stop-color="rgb(100%, 82.211304%, 82.10144%)" offset="0.484375"/><stop stop-opacity="1" stop-color="rgb(100%, 81.973267%, 82.3349%)" offset="0.492187"/><stop stop-opacity="1" stop-color="rgb(100%, 81.733704%, 82.566833%)" offset="0.5"/><stop stop-opacity="1" stop-color="rgb(100%, 81.495667%, 82.800293%)" offset="0.507812"/><stop stop-opacity="1" stop-color="rgb(100%, 81.256104%, 83.032227%)" offset="0.515625"/><stop stop-opacity="1" stop-color="rgb(100%, 81.018066%, 83.26416%)" offset="0.523438"/><stop stop-opacity="1" stop-color="rgb(100%, 80.778503%, 83.49762%)" offset="0.53125"/><stop stop-opacity="1" stop-color="rgb(100%, 80.540466%, 83.729553%)" offset="0.539062"/><stop stop-opacity="1" stop-color="rgb(100%, 80.300903%, 83.963013%)" offset="0.546875"/><stop stop-opacity="1" stop-color="rgb(100%, 80.062866%, 84.194946%)" offset="0.554688"/><stop stop-opacity="1" stop-color="rgb(100%, 79.823303%, 84.428406%)" offset="0.5625"/><stop stop-opacity="1" stop-color="rgb(100%, 79.585266%, 84.660339%)" offset="0.570312"/><stop stop-opacity="1" stop-color="rgb(100%, 79.345703%, 84.892273%)" offset="0.578125"/><stop stop-opacity="1" stop-color="rgb(100%, 79.107666%, 85.125732%)" offset="0.585938"/><stop stop-opacity="1" stop-color="rgb(100%, 78.868103%, 85.357666%)" offset="0.59375"/><stop stop-opacity="1" stop-color="rgb(100%, 78.630066%, 85.591125%)" offset="0.601562"/><stop stop-opacity="1" stop-color="rgb(100%, 78.390503%, 85.823059%)" offset="0.609375"/><stop stop-opacity="1" stop-color="rgb(100%, 78.152466%, 86.054993%)" offset="0.617188"/><stop stop-opacity="1" stop-color="rgb(100%, 77.912903%, 86.288452%)" offset="0.625"/><stop stop-opacity="1" stop-color="rgb(100%, 77.674866%, 86.520386%)" offset="0.632812"/><stop stop-opacity="1" stop-color="rgb(100%, 77.435303%, 86.753845%)" offset="0.640625"/><stop stop-opacity="1" stop-color="rgb(100%, 77.197266%, 86.985779%)" offset="0.648438"/><stop stop-opacity="1" stop-color="rgb(100%, 76.957703%, 87.219238%)" offset="0.65625"/><stop stop-opacity="1" stop-color="rgb(100%, 76.719666%, 87.451172%)" offset="0.664062"/><stop stop-opacity="1" stop-color="rgb(100%, 76.480103%, 87.683105%)" offset="0.671875"/><stop stop-opacity="1" stop-color="rgb(100%, 76.242065%, 87.916565%)" offset="0.679688"/><stop stop-opacity="1" stop-color="rgb(100%, 76.002502%, 88.148499%)" offset="0.6875"/><stop stop-opacity="1" stop-color="rgb(100%, 75.764465%, 88.381958%)" offset="0.695312"/><stop stop-opacity="1" stop-color="rgb(100%, 75.524902%, 88.613892%)" offset="0.703125"/><stop stop-opacity="1" stop-color="rgb(100%, 75.286865%, 88.847351%)" offset="0.710938"/><stop stop-opacity="1" stop-color="rgb(100%, 75.047302%, 89.079285%)" offset="0.71875"/><stop stop-opacity="1" stop-color="rgb(100%, 74.809265%, 89.311218%)" offset="0.726562"/><stop stop-opacity="1" stop-color="rgb(100%, 74.569702%, 89.544678%)" offset="0.734375"/><stop stop-opacity="1" stop-color="rgb(100%, 74.330139%, 89.776611%)" offset="0.742188"/><stop stop-opacity="1" stop-color="rgb(100%, 74.092102%, 90.010071%)" offset="0.75"/><stop stop-opacity="1" stop-color="rgb(100%, 73.852539%, 90.242004%)" offset="0.757812"/><stop stop-opacity="1" stop-color="rgb(100%, 73.614502%, 90.473938%)" offset="0.765625"/><stop stop-opacity="1" stop-color="rgb(100%, 73.374939%, 90.707397%)" offset="0.773438"/><stop stop-opacity="1" stop-color="rgb(100%, 73.136902%, 90.939331%)" offset="0.78125"/><stop stop-opacity="1" stop-color="rgb(100%, 72.897339%, 91.172791%)" offset="0.789062"/><stop stop-opacity="1" stop-color="rgb(100%, 72.659302%, 91.404724%)" offset="0.796875"/><stop stop-opacity="1" stop-color="rgb(100%, 72.419739%, 91.638184%)" offset="0.804687"/><stop stop-opacity="1" stop-color="rgb(100%, 72.181702%, 91.870117%)" offset="0.8125"/><stop stop-opacity="1" stop-color="rgb(100%, 71.942139%, 92.102051%)" offset="0.820312"/><stop stop-opacity="1" stop-color="rgb(100%, 71.704102%, 92.33551%)" offset="0.828125"/><stop stop-opacity="1" stop-color="rgb(100%, 71.464539%, 92.567444%)" offset="0.835938"/><stop stop-opacity="1" stop-color="rgb(100%, 71.226501%, 92.800903%)" offset="0.84375"/><stop stop-opacity="1" stop-color="rgb(100%, 70.986938%, 93.032837%)" offset="0.851562"/><stop stop-opacity="1" stop-color="rgb(100%, 70.748901%, 93.264771%)" offset="0.859375"/><stop stop-opacity="1" stop-color="rgb(100%, 70.509338%, 93.49823%)" offset="0.867188"/><stop stop-opacity="1" stop-color="rgb(100%, 70.271301%, 93.730164%)" offset="0.875"/><stop stop-opacity="1" stop-color="rgb(100%, 70.031738%, 93.963623%)" offset="0.882812"/><stop stop-opacity="1" stop-color="rgb(100%, 69.793701%, 94.195557%)" offset="0.890625"/><stop stop-opacity="1" stop-color="rgb(100%, 69.554138%, 94.429016%)" offset="0.898438"/><stop stop-opacity="1" stop-color="rgb(100%, 69.316101%, 94.66095%)" offset="0.90625"/><stop stop-opacity="1" stop-color="rgb(100%, 69.076538%, 94.892883%)" offset="0.914062"/><stop stop-opacity="1" stop-color="rgb(100%, 68.838501%, 95.126343%)" offset="0.921875"/><stop stop-opacity="1" stop-color="rgb(100%, 68.598938%, 95.358276%)" offset="0.929688"/><stop stop-opacity="1" stop-color="rgb(100%, 68.360901%, 95.591736%)" offset="0.9375"/><stop stop-opacity="1" stop-color="rgb(100%, 68.121338%, 95.823669%)" offset="0.945312"/><stop stop-opacity="1" stop-color="rgb(100%, 67.883301%, 96.055603%)" offset="0.953125"/><stop stop-opacity="1" stop-color="rgb(100%, 67.643738%, 96.289062%)" offset="0.960938"/><stop stop-opacity="1" stop-color="rgb(100%, 67.405701%, 96.520996%)" offset="0.96875"/><stop stop-opacity="1" stop-color="rgb(100%, 67.166138%, 96.754456%)" offset="0.976562"/><stop stop-opacity="1" stop-color="rgb(100%, 66.928101%, 96.986389%)" offset="0.984375"/><stop stop-opacity="1" stop-color="rgb(100%, 66.688538%, 97.219849%)" offset="0.992188"/><stop stop-opacity="1" stop-color="rgb(100%, 66.4505%, 97.451782%)" offset="1"/></linearGradient><mask id="9d79cf76df"><g filter="url(#60d632c9a6)"><rect x="-24.075" width="288.9" fill="#000000" y="-14.175" height="170.100003" fill-opacity="0.5098"/></g></mask><clipPath id="4f89c42d00"><path d="M 0.554688 1 L 61.40625 1 L 61.40625 30.425781 L 0.554688 30.425781 Z M 0.554688 1 " clip-rule="nonzero"/></clipPath><clipPath id="61c0e67dc6"><rect x="0" width="62" y="0" height="31"/></clipPath><mask id="bc474d63bf"><g filter="url(#60d632c9a6)"><rect x="-24.075" width="288.9" fill="#000000" y="-14.175" height="170.100003" fill-opacity="0.6078"/></g></mask><clipPath id="faa13b4851"><path d="M 0.628906 4 L 71.304688 4 L 71.304688 37.726562 L 0.628906 37.726562 Z M 0.628906 4 " clip-rule="nonzero"/></clipPath><clipPath id="c92df3bc03"><rect x="0" width="72" y="0" height="38"/></clipPath><mask id="9a6960dd31"><g filter="url(#60d632c9a6)"><rect x="-24.075" width="288.9" fill="#000000" y="-14.175" height="170.100003" fill-opacity="0.8275"/></g></mask><clipPath id="4f3237eca1"><path d="M 0.460938 5 L 88.144531 5 L 88.144531 47.019531 L 0.460938 47.019531 Z M 0.460938 5 " clip-rule="nonzero"/></clipPath><clipPath id="e0ca6e6da5"><rect x="0" width="89" y="0" height="48"/></clipPath><mask id="8a1d3456aa"><g filter="url(#60d632c9a6)"><rect x="-24.075" width="288.9" fill="#000000" y="-14.175" height="170.100003" fill-opacity="0.9294"/></g></mask><clipPath id="dcc30b9049"><path d="M 0.730469 6 L 103.511719 6 L 103.511719 54.707031 L 0.730469 54.707031 Z M 0.730469 6 " clip-rule="nonzero"/></clipPath><clipPath id="14f0bf8bdc"><rect x="0" width="104" y="0" height="55"/></clipPath><mask id="8e351310e3"><g filter="url(#60d632c9a6)"><rect x="-24.075" width="288.9" fill="#000000" y="-14.175" height="170.100003" fill-opacity="0.9569"/></g></mask><clipPath id="0e09cf0b37"><path d="M 0.523438 7 L 123.90625 7 L 123.90625 65.664062 L 0.523438 65.664062 Z M 0.523438 7 " clip-rule="nonzero"/></clipPath><clipPath id="4af813ff9f"><rect x="0" width="124" y="0" height="66"/></clipPath></defs><g clip-path="url(#0fa539151d)"><path fill="#ffffff" d="M 0.0859375 0 L 240.664062 0 L 240.664062 148.390625 L 0.0859375 148.390625 Z M 0.0859375 0 " fill-opacity="1" fill-rule="nonzero"/><path fill="#ffffff" d="M 0.0859375 0 L 240.664062 0 L 240.664062 141.648438 L 0.0859375 141.648438 Z M 0.0859375 0 " fill-opacity="1" fill-rule="nonzero"/><path fill="url(#6b856a26a5)" d="M 0.0859375 0 L 0.0859375 141.5 L 240.414062 141.5 L 240.414062 0 Z M 0.0859375 0 " fill-rule="nonzero"/></g><g mask="url(#9d79cf76df)"><g transform="matrix(1, 0, 0, 1, 52, -0.000000000000007933)"><g clip-path="url(#61c0e67dc6)"><g fill="#ffffff" fill-opacity="1"><g transform="translate(1.194622, 26.692348)"><g><path d="M 23.636719 -19.0625 L 6.050781 -19.0625 C 4.042969 -12.707031 2.007812 -6.355469 0 0 L 12.453125 0 L 12.886719 -2.492188 L 16.34375 -2.492188 L 16.773438 0 L 29.738281 0 Z M 13.191406 -4.296875 C 13.191406 -4.320312 14.5625 -12.757812 14.589844 -12.757812 L 14.613281 -12.757812 C 14.640625 -12.757812 16.039062 -4.320312 16.039062 -4.296875 C 16.039062 -4.296875 16.039062 -4.269531 16.011719 -4.269531 L 13.214844 -4.269531 C 13.191406 -4.269531 13.191406 -4.269531 13.191406 -4.296875 Z M 13.191406 -4.296875 "/></g></g></g><g fill="#ffffff" fill-opacity="1"><g transform="translate(32.248083, 26.692348)"><g><path d="M 16.089844 -11.359375 L 26.253906 -11.921875 C 27.273438 -16.800781 22.011719 -19.953125 13.726562 -19.953125 C 6.328125 -19.953125 0.179688 -17.589844 0.179688 -13.191406 C 0.179688 -10.394531 2.695312 -7.421875 12.378906 -7.726562 L 12.886719 -7.726562 C 14.613281 -7.726562 16.113281 -7.726562 16.113281 -6.734375 C 16.113281 -5.898438 15.070312 -5.488281 13.75 -5.488281 C 12.046875 -5.488281 10.699219 -6.203125 11.105469 -7.699219 L 0.253906 -7.140625 C -0.253906 -1.472656 5.285156 0.890625 13.570312 0.890625 C 21.019531 0.890625 26.964844 -1.421875 26.964844 -5.792969 C 26.964844 -9.53125 24.296875 -11.105469 16.089844 -11.359375 Z M 13.011719 -11.386719 C 11.640625 -11.386719 11.082031 -11.589844 11.082031 -12.226562 C 11.082031 -12.910156 11.972656 -13.445312 13.316406 -13.445312 C 14.945312 -13.445312 16.265625 -12.808594 15.757812 -11.359375 C 15.097656 -11.386719 14.386719 -11.386719 13.648438 -11.386719 Z M 13.011719 -11.386719 "/></g></g></g><g clip-path="url(#4f89c42d00)"><path stroke-linecap="butt" transform="matrix(0.400381, 0, 0, 0.400381, 1.188366, 1.55096)" fill="none" stroke-linejoin="miter" d="M 59.0431 14.39013 L 15.129893 14.39013 C 10.105387 30.263666 5.041856 46.127447 0.0173501 62.000983 L 31.120506 62.000983 L 32.203457 55.786206 L 40.837803 55.786206 L 41.910998 62.000983 L 74.282476 62.000983 Z M 32.964451 51.278785 C 32.964451 51.21049 36.38892 30.136834 36.447458 30.136834 L 36.515752 30.136834 C 36.57429 30.136834 40.07681 51.21049 40.07681 51.278785 C 40.07681 51.278785 40.07681 51.337323 39.998759 51.337323 L 33.022988 51.337323 C 32.964451 51.337323 32.964451 51.337323 32.964451 51.278785 Z M 117.766404 33.619841 L 143.152355 32.224687 C 145.688999 20.048797 132.547232 12.175445 111.854073 12.175445 C 93.385355 12.175445 78.028903 18.07802 78.028903 29.053882 C 78.028903 36.039409 84.302219 43.463971 108.497898 42.702977 L 109.76622 42.702977 C 114.068758 42.702977 117.824942 42.702977 117.824942 45.181083 C 117.824942 47.278693 115.220004 48.283594 111.922367 48.283594 C 107.668611 48.283594 104.292923 46.517699 105.317337 42.771272 L 78.214273 44.166426 C 76.936195 58.313093 90.780417 64.215668 111.473576 64.215668 C 130.069127 64.215668 144.928005 58.449682 144.928005 47.522601 C 144.928005 38.195556 138.264437 34.254002 117.766404 33.619841 Z M 110.078422 33.561303 C 106.653953 33.561303 105.258799 33.053975 105.258799 31.47345 C 105.258799 29.746581 107.473484 28.419721 110.829659 28.419721 C 114.898045 28.419721 118.195682 30.010002 116.937117 33.619841 C 115.278542 33.561303 113.502891 33.561303 111.668703 33.561303 Z M 110.078422 33.561303 " stroke="#000000" stroke-width="1.983991" stroke-opacity="1" stroke-miterlimit="4"/></g></g></g></g><g mask="url(#bc474d63bf)"><g transform="matrix(1, 0, 0, 1, 56, 3)"><g clip-path="url(#c92df3bc03)"><g fill="#ffffff" fill-opacity="1"><g transform="translate(1.197597, 33.222661)"><g><path d="M 27.519531 -22.191406 L 7.042969 -22.191406 C 4.703125 -14.792969 2.335938 -7.398438 0 0 L 14.5 0 L 15.003906 -2.898438 L 19.027344 -2.898438 L 19.527344 0 L 34.621094 0 Z M 15.355469 -5 C 15.355469 -5.03125 16.953125 -14.855469 16.984375 -14.855469 L 17.015625 -14.855469 C 17.042969 -14.855469 18.671875 -5.03125 18.671875 -5 C 18.671875 -5 18.671875 -4.972656 18.640625 -4.972656 L 15.386719 -4.972656 C 15.355469 -4.972656 15.355469 -4.972656 15.355469 -5 Z M 15.355469 -5 "/></g></g></g><g fill="#ffffff" fill-opacity="1"><g transform="translate(37.350203, 33.222661)"><g><path d="M 18.730469 -13.226562 L 30.566406 -13.878906 C 31.75 -19.558594 25.625 -23.226562 15.976562 -23.226562 C 7.367188 -23.226562 0.207031 -20.476562 0.207031 -15.355469 C 0.207031 -12.101562 3.136719 -8.640625 14.410156 -8.996094 L 15.003906 -8.996094 C 17.015625 -8.996094 18.761719 -8.996094 18.761719 -7.839844 C 18.761719 -6.863281 17.546875 -6.390625 16.007812 -6.390625 C 14.027344 -6.390625 12.457031 -7.21875 12.929688 -8.964844 L 0.296875 -8.316406 C -0.296875 -1.714844 6.15625 1.035156 15.800781 1.035156 C 24.46875 1.035156 31.394531 -1.65625 31.394531 -6.746094 C 31.394531 -11.097656 28.289062 -12.929688 18.730469 -13.226562 Z M 15.148438 -13.257812 C 13.550781 -13.257812 12.902344 -13.492188 12.902344 -14.234375 C 12.902344 -15.03125 13.9375 -15.652344 15.503906 -15.652344 C 17.398438 -15.652344 18.9375 -14.914062 18.34375 -13.226562 C 17.578125 -13.257812 16.746094 -13.257812 15.890625 -13.257812 Z M 15.148438 -13.257812 "/></g></g></g><g clip-path="url(#faa13b4851)"><path stroke-linecap="butt" transform="matrix(0.466126, 0, 0, 0.466126, 1.190314, 3.952922)" fill="none" stroke-linejoin="miter" d="M 59.049527 14.38931 L 15.12868 14.38931 C 10.108915 30.261488 5.038869 46.133666 0.0191037 61.997463 L 31.118181 61.997463 L 32.207612 55.787704 L 40.839262 55.787704 L 41.903552 61.997463 L 74.284807 61.997463 Z M 32.961834 51.279134 C 32.961834 51.212092 36.389353 30.135784 36.448015 30.135784 L 36.515057 30.135784 C 36.573718 30.135784 40.07666 51.212092 40.07666 51.279134 C 40.07666 51.279134 40.07666 51.337796 40.001237 51.337796 L 33.028876 51.337796 C 32.961834 51.337796 32.961834 51.337796 32.961834 51.279134 Z M 117.761501 33.621965 L 143.145253 32.230845 C 145.692847 20.045973 132.544248 12.176926 111.853431 12.176926 C 93.383378 12.176926 78.022394 18.076616 78.022394 29.054733 C 78.022394 36.043855 84.299195 43.460369 108.492954 42.706147 L 109.76675 42.706147 C 114.074195 42.706147 117.820163 42.706147 117.820163 45.186698 C 117.820163 47.273379 115.222288 48.287388 111.920472 48.287388 C 107.67169 48.287388 104.294452 46.519157 105.316842 42.764809 L 78.20676 44.164309 C 76.941343 58.310157 90.777122 64.218228 111.467939 64.218228 C 130.063696 64.218228 144.930245 58.452621 144.930245 47.524786 C 144.930245 38.197577 138.267953 34.258863 117.761501 33.621965 Z M 110.076819 33.563303 C 106.6493 33.563303 105.25818 33.052108 105.25818 31.468243 C 105.25818 29.750293 107.470564 28.417835 110.831041 28.417835 C 114.895458 28.417835 118.197274 30.010081 116.940237 33.621965 C 115.280949 33.563303 113.495958 33.563303 111.669065 33.563303 Z M 110.076819 33.563303 " stroke="#000000" stroke-width="1.983991" stroke-opacity="1" stroke-miterlimit="4"/></g></g></g></g><g mask="url(#9a6960dd31)"><g transform="matrix(1, 0, 0, 1, 60, 10)"><g clip-path="url(#e0ca6e6da5)"><g fill="#ffffff" fill-opacity="1"><g transform="translate(1.275984, 41.571309)"><g><path d="M 34.183594 -27.570312 L 8.75 -27.570312 C 5.84375 -18.378906 2.902344 -9.191406 0 0 L 18.011719 0 L 18.636719 -3.601562 L 23.636719 -3.601562 L 24.261719 0 L 43.007812 0 Z M 19.078125 -6.210938 C 19.078125 -6.25 21.0625 -18.453125 21.097656 -18.453125 L 21.136719 -18.453125 C 21.171875 -18.453125 23.195312 -6.25 23.195312 -6.210938 C 23.195312 -6.210938 23.195312 -6.175781 23.15625 -6.175781 L 19.113281 -6.175781 C 19.078125 -6.175781 19.078125 -6.175781 19.078125 -6.210938 Z M 19.078125 -6.210938 "/></g></g></g><g fill="#ffffff" fill-opacity="1"><g transform="translate(46.186765, 41.571309)"><g><path d="M 23.269531 -16.429688 L 37.972656 -17.238281 C 39.441406 -24.296875 31.832031 -28.855469 19.847656 -28.855469 C 9.152344 -28.855469 0.257812 -25.4375 0.257812 -19.078125 C 0.257812 -15.035156 3.894531 -10.734375 17.902344 -11.175781 L 18.636719 -11.175781 C 21.136719 -11.175781 23.304688 -11.175781 23.304688 -9.742188 C 23.304688 -8.527344 21.796875 -7.941406 19.886719 -7.941406 C 17.421875 -7.941406 15.476562 -8.96875 16.0625 -11.136719 L 0.367188 -10.328125 C -0.367188 -2.132812 7.644531 1.285156 19.628906 1.285156 C 30.398438 1.285156 39 -2.058594 39 -8.378906 C 39 -13.785156 35.140625 -16.0625 23.269531 -16.429688 Z M 18.820312 -16.46875 C 16.835938 -16.46875 16.027344 -16.761719 16.027344 -17.679688 C 16.027344 -18.671875 17.3125 -19.445312 19.261719 -19.445312 C 21.613281 -19.445312 23.523438 -18.527344 22.789062 -16.429688 C 21.835938 -16.46875 20.804688 -16.46875 19.738281 -16.46875 Z M 18.820312 -16.46875 "/></g></g></g><g clip-path="url(#4f3237eca1)"><path stroke-linecap="butt" transform="matrix(0.579048, 0, 0, 0.579048, 1.266936, 5.21081)" fill="none" stroke-linejoin="miter" d="M 59.045367 14.389413 L 15.128986 14.389413 C 10.103225 30.262722 5.036988 46.129286 0.0179733 62.002595 L 31.116977 62.002595 L 32.203081 55.782794 L 40.837946 55.782794 L 41.903812 62.002595 L 74.284553 62.002595 Z M 32.965378 51.276474 C 32.965378 51.21576 36.39234 30.134548 36.453053 30.134548 L 36.513767 30.134548 C 36.574481 30.134548 40.075649 51.21576 40.075649 51.276474 C 40.075649 51.276474 40.075649 51.337188 40.001443 51.337188 L 33.026092 51.337188 C 32.965378 51.337188 32.965378 51.337188 32.965378 51.276474 Z M 117.762444 33.622224 L 143.147597 32.225805 C 145.690834 20.049297 132.54965 12.176729 111.859705 12.176729 C 93.382445 12.176729 78.02183 18.079468 78.02183 29.048444 C 78.02183 36.044034 84.302345 43.46462 108.493457 42.702324 L 109.761703 42.702324 C 114.072389 42.702324 117.823158 42.702324 117.823158 45.184847 C 117.823158 47.276104 115.219207 48.281256 111.920419 48.281256 C 107.670447 48.281256 104.290707 46.520553 105.316097 42.769784 L 78.210718 44.159457 C 76.942472 58.31254 90.778493 64.215279 111.468438 64.215279 C 130.067126 64.215279 144.928537 58.454205 144.928537 47.525705 C 144.928537 38.196004 138.263501 34.256347 117.762444 33.622224 Z M 110.072018 33.56151 C 106.651803 33.56151 105.255383 33.048815 105.255383 31.470254 C 105.255383 29.750027 107.468067 28.414322 110.834315 28.414322 C 114.8954 28.414322 118.194188 30.013121 116.939434 33.622224 C 115.279921 33.56151 113.49898 33.56151 111.670817 33.56151 Z M 110.072018 33.56151 " stroke="#000000" stroke-width="1.983991" stroke-opacity="1" stroke-miterlimit="4"/></g></g></g></g><g mask="url(#8a1d3456aa)"><g transform="matrix(1, 0, 0, 1, 65, 21)"><g clip-path="url(#14f0bf8bdc)"><g fill="#ffffff" fill-opacity="1"><g transform="translate(1.490572, 48.428643)"><g><path d="M 40.121094 -32.355469 L 10.265625 -32.355469 C 6.859375 -21.570312 3.40625 -10.785156 0 0 L 21.136719 0 L 21.871094 -4.226562 L 27.738281 -4.226562 L 28.472656 0 L 50.472656 0 Z M 22.390625 -7.289062 C 22.390625 -7.332031 24.71875 -21.65625 24.761719 -21.65625 L 24.804688 -21.65625 C 24.847656 -21.65625 27.222656 -7.332031 27.222656 -7.289062 C 27.222656 -7.289062 27.222656 -7.246094 27.175781 -7.246094 L 22.433594 -7.246094 C 22.390625 -7.246094 22.390625 -7.246094 22.390625 -7.289062 Z M 22.390625 -7.289062 "/></g></g></g><g fill="#ffffff" fill-opacity="1"><g transform="translate(54.197943, 48.428643)"><g><path d="M 27.308594 -19.285156 L 44.5625 -20.230469 C 46.289062 -28.515625 37.359375 -33.863281 23.296875 -33.863281 C 10.742188 -33.863281 0.300781 -29.851562 0.300781 -22.390625 C 0.300781 -17.644531 4.574219 -12.597656 21.007812 -13.113281 L 21.871094 -13.113281 C 24.804688 -13.113281 27.351562 -13.113281 27.351562 -11.433594 C 27.351562 -10.007812 25.582031 -9.316406 23.339844 -9.316406 C 20.449219 -9.316406 18.160156 -10.527344 18.851562 -13.070312 L 0.429688 -12.121094 C -0.429688 -2.503906 8.972656 1.511719 23.035156 1.511719 C 35.675781 1.511719 45.769531 -2.414062 45.769531 -9.835938 C 45.769531 -16.175781 41.242188 -18.851562 27.308594 -19.285156 Z M 22.085938 -19.328125 C 19.757812 -19.328125 18.808594 -19.671875 18.808594 -20.75 C 18.808594 -21.914062 20.320312 -22.820312 22.605469 -22.820312 C 25.367188 -22.820312 27.609375 -21.742188 26.746094 -19.285156 C 25.625 -19.328125 24.417969 -19.328125 23.164062 -19.328125 Z M 22.085938 -19.328125 "/></g></g></g><g clip-path="url(#dcc30b9049)"><path stroke-linecap="butt" transform="matrix(0.679572, 0, 0, 0.679572, 1.479954, 5.755897)" fill="none" stroke-linejoin="miter" d="M 59.045307 14.390329 L 15.124025 14.390329 C 10.105928 30.260851 5.036099 46.131373 0.0180016 62.001895 L 31.121006 62.001895 L 32.207398 55.782443 L 40.835305 55.782443 L 41.904453 62.001895 L 74.283537 62.001895 Z M 32.966148 51.275928 C 32.966148 51.212699 36.392019 30.134392 36.4495 30.134392 L 36.512729 30.134392 C 36.575959 30.134392 40.076555 51.212699 40.076555 51.275928 C 40.076555 51.275928 40.076555 51.339157 40.00183 51.339157 L 33.023629 51.339157 C 32.966148 51.339157 32.966148 51.339157 32.966148 51.275928 Z M 117.762214 33.623493 L 143.145852 32.226703 C 145.686515 20.046466 132.546344 12.17156 111.858908 12.17156 C 93.384494 12.17156 78.025554 18.080613 78.025554 29.053748 C 78.025554 36.043446 84.302486 43.464251 108.496266 42.705501 L 109.766598 42.705501 C 114.071929 42.705501 117.825443 42.705501 117.825443 45.182935 C 117.825443 47.275246 115.221551 48.286913 111.91639 48.286913 C 107.674287 48.286913 104.2944 46.516496 105.317563 42.76873 L 78.209493 44.159772 C 76.939162 58.31161 90.780602 64.214915 111.468037 64.214915 C 130.06891 64.214915 144.927765 58.449565 144.927765 47.522414 C 144.927765 38.193238 138.265709 34.255785 117.762214 33.623493 Z M 110.076995 33.560264 C 106.651124 33.560264 105.254334 33.048682 105.254334 31.467953 C 105.254334 29.749269 107.473103 28.415709 110.835746 28.415709 C 114.893909 28.415709 118.193322 30.013682 116.940235 33.623493 C 115.28478 33.560264 113.497119 33.560264 111.669221 33.560264 Z M 110.076995 33.560264 " stroke="#000000" stroke-width="1.983991" stroke-opacity="1" stroke-miterlimit="4"/></g></g></g></g><g mask="url(#8e351310e3)"><g transform="matrix(1, 0, 0, 1, 70, 34)"><g clip-path="url(#4af813ff9f)"><g fill="#ffffff" fill-opacity="1"><g transform="translate(1.533714, 58.152537)"><g><path d="M 48.109375 -38.800781 L 12.3125 -38.800781 C 8.226562 -25.867188 4.085938 -12.933594 0 0 L 25.347656 0 L 26.226562 -5.070312 L 33.265625 -5.070312 L 34.144531 0 L 60.527344 0 Z M 26.847656 -8.742188 C 26.847656 -8.792969 29.640625 -25.96875 29.695312 -25.96875 L 29.746094 -25.96875 C 29.796875 -25.96875 32.644531 -8.792969 32.644531 -8.742188 C 32.644531 -8.742188 32.644531 -8.691406 32.589844 -8.691406 L 26.902344 -8.691406 C 26.847656 -8.691406 26.847656 -8.691406 26.847656 -8.742188 Z M 26.847656 -8.742188 "/></g></g></g><g fill="#ffffff" fill-opacity="1"><g transform="translate(64.739903, 58.152537)"><g><path d="M 32.746094 -23.125 L 53.4375 -24.261719 C 55.507812 -34.195312 44.800781 -40.609375 27.933594 -40.609375 C 12.882812 -40.609375 0.363281 -35.796875 0.363281 -26.847656 C 0.363281 -21.160156 5.484375 -15.105469 25.195312 -15.726562 L 26.226562 -15.726562 C 29.746094 -15.726562 32.796875 -15.726562 32.796875 -13.710938 C 32.796875 -12 30.675781 -11.175781 27.988281 -11.175781 C 24.519531 -11.175781 21.777344 -12.621094 22.605469 -15.675781 L 0.515625 -14.535156 C -0.515625 -3 10.761719 1.8125 27.625 1.8125 C 42.78125 1.8125 54.886719 -2.898438 54.886719 -11.796875 C 54.886719 -19.398438 49.457031 -22.605469 32.746094 -23.125 Z M 26.488281 -23.175781 C 23.691406 -23.175781 22.554688 -23.589844 22.554688 -24.882812 C 22.554688 -26.28125 24.367188 -27.367188 27.109375 -27.367188 C 30.417969 -27.367188 33.109375 -26.074219 32.074219 -23.125 C 30.730469 -23.175781 29.28125 -23.175781 27.78125 -23.175781 Z M 26.488281 -23.175781 "/></g></g></g><g clip-path="url(#0e09cf0b37)"><path stroke-linecap="butt" transform="matrix(0.814936, 0, 0, 0.814936, 1.52098, 6.979776)" fill="none" stroke-linejoin="miter" d="M 59.047148 14.390401 L 15.125944 14.390401 C 10.102543 30.261088 5.036003 46.131775 0.0173952 61.997668 L 31.121257 61.997668 L 32.204548 55.785524 L 40.83732 55.785524 L 41.90623 61.997668 L 74.280323 61.997668 Z M 32.966686 51.275009 C 32.966686 51.212695 36.389118 30.136461 36.451431 30.136461 L 36.513744 30.136461 C 36.576057 30.136461 40.079975 51.212695 40.079975 51.275009 C 40.079975 51.275009 40.079975 51.337322 39.998489 51.337322 L 33.024206 51.337322 C 32.966686 51.337322 32.966686 51.337322 32.966686 51.275009 Z M 117.760541 33.621206 L 143.14597 32.22635 C 145.691224 20.04652 132.547937 12.175886 111.855169 12.175886 C 93.381708 12.175886 78.023907 18.076465 78.023907 29.053171 C 78.023907 36.041833 84.303158 43.466688 108.49505 42.70455 L 109.765281 42.70455 C 114.074477 42.70455 117.822854 42.70455 117.822854 45.182697 C 117.822854 47.277379 115.22008 48.283976 111.917482 48.283976 C 107.670599 48.283976 104.296101 46.51524 105.317078 42.766863 L 78.210846 44.16172 C 76.940616 58.311604 90.778935 64.216976 111.471703 64.216976 C 130.064997 64.216976 144.929086 58.450611 144.929086 47.526631 C 144.929086 38.194035 138.266369 34.258718 117.760541 33.621206 Z M 110.076847 33.558893 C 106.649622 33.558893 105.254765 33.050801 105.254765 31.469005 C 105.254765 29.748202 107.46928 28.415659 110.834191 28.415659 C 114.894134 28.415659 118.196733 30.011835 116.940883 33.621206 C 115.282393 33.558893 113.499278 33.558893 111.673023 33.558893 Z M 110.076847 33.558893 " stroke="#000000" stroke-width="1.983991" stroke-opacity="1" stroke-miterlimit="4"/></g></g></g></g><g fill="#ffffff" fill-opacity="1"><g transform="translate(81.847518, 113.99372)"><g><path d="M 52.414062 -42.269531 L 13.414062 -42.269531 C 8.960938 -28.179688 4.453125 -14.089844 0 0 L 27.613281 0 L 28.574219 -5.523438 L 36.238281 -5.523438 L 37.195312 0 L 65.9375 0 Z M 29.25 -9.523438 C 29.25 -9.582031 32.292969 -28.292969 32.347656 -28.292969 L 32.40625 -28.292969 C 32.460938 -28.292969 35.5625 -9.582031 35.5625 -9.523438 C 35.5625 -9.523438 35.5625 -9.46875 35.503906 -9.46875 L 29.304688 -9.46875 C 29.25 -9.46875 29.25 -9.46875 29.25 -9.523438 Z M 29.25 -9.523438 "/></g></g></g><g fill="#ffffff" fill-opacity="1"><g transform="translate(150.70471, 113.99372)"><g><path d="M 35.675781 -25.191406 L 58.21875 -26.429688 C 60.472656 -37.253906 48.804688 -44.242188 30.433594 -44.242188 C 14.03125 -44.242188 0.394531 -39 0.394531 -29.25 C 0.394531 -23.050781 5.972656 -16.457031 27.445312 -17.132812 L 28.574219 -17.132812 C 32.40625 -17.132812 35.730469 -17.132812 35.730469 -14.933594 C 35.730469 -13.074219 33.417969 -12.171875 30.488281 -12.171875 C 26.714844 -12.171875 23.726562 -13.75 24.628906 -17.078125 L 0.5625 -15.835938 C -0.5625 -3.269531 11.722656 1.972656 30.09375 1.972656 C 46.609375 1.972656 59.796875 -3.15625 59.796875 -12.847656 C 59.796875 -21.132812 53.878906 -24.628906 35.675781 -25.191406 Z M 28.855469 -25.25 C 25.8125 -25.25 24.570312 -25.699219 24.570312 -27.109375 C 24.570312 -28.628906 26.542969 -29.8125 29.53125 -29.8125 C 33.136719 -29.8125 36.070312 -28.402344 34.941406 -25.191406 C 33.476562 -25.25 31.898438 -25.25 30.265625 -25.25 Z M 28.855469 -25.25 "/></g></g></g><path stroke-linecap="butt" transform="matrix(0.887796, 0, 0, 0.887796, 81.833646, 58.245815)" fill="none" stroke-linejoin="miter" d="M 59.049788 14.388121 L 15.125178 14.388121 C 10.104845 30.258708 5.036113 46.129294 0.0157808 61.999881 L 31.118963 61.999881 L 32.205749 55.787165 L 40.838433 55.787165 L 41.907618 61.999881 L 74.282384 61.999881 Z M 32.962539 51.277225 C 32.962539 51.211226 36.390093 30.135509 36.451692 30.135509 L 36.513291 30.135509 C 36.57489 30.135509 40.077243 51.211226 40.077243 51.277225 C 40.077243 51.277225 40.077243 51.338825 40.002444 51.338825 L 33.028538 51.338825 C 32.962539 51.338825 32.962539 51.338825 32.962539 51.277225 Z M 117.7626 33.624662 L 143.145859 32.229881 C 145.689025 20.046445 132.546402 12.17495 111.857879 12.17495 C 93.382527 12.17495 78.026734 18.079671 78.026734 29.053124 C 78.026734 36.04023 84.301049 43.46293 108.491925 42.70614 L 109.763508 42.70614 C 114.07105 42.70614 117.824199 42.70614 117.824199 45.183307 C 117.824199 47.277679 115.219434 48.285266 111.919479 48.285266 C 107.673536 48.285266 104.294381 46.516489 105.315167 42.76774 L 78.211531 44.162521 C 76.939948 58.312731 90.777762 64.217452 111.470685 64.217452 C 130.069235 64.217452 144.927836 58.449129 144.927836 47.524076 C 144.927836 38.196201 138.266325 34.258254 117.7626 33.624662 Z M 110.075903 33.563063 C 106.648349 33.563063 105.253568 33.04827 105.253568 31.468691 C 105.253568 29.748314 107.471138 28.415132 110.832693 28.415132 C 114.893839 28.415132 118.193794 30.012311 116.939811 33.624662 C 115.281034 33.563063 113.499057 33.563063 111.673082 33.563063 Z M 110.075903 33.563063 " stroke="#000000" stroke-width="1.983991" stroke-opacity="1" stroke-miterlimit="4"/></svg>